<?xml version="1.0" encoding="UTF-8" standalone="no"?>
<!-- Generator: Adobe Illustrator 27.1.0, SVG Export Plug-In . SVG Version: 6.00 Build 0)  -->

<svg
   version="1.1"
   id="Layer_1"
   x="0px"
   y="0px"
   viewBox="0 0 1190.6 841.9"
   style="enable-background:new 0 0 1190.6 841.9;"
   xml:space="preserve"
   sodipodi:docname="meta_gemone_logo_210323a[52].svg"
   inkscape:version="1.2 (dc2aeda, 2022-05-15)"
   xmlns:inkscape="http://www.inkscape.org/namespaces/inkscape"
   xmlns:sodipodi="http://sodipodi.sourceforge.net/DTD/sodipodi-0.dtd"
   xmlns:xlink="http://www.w3.org/1999/xlink"
   xmlns="http://www.w3.org/2000/svg"
   xmlns:svg="http://www.w3.org/2000/svg"><defs
   id="defs3797" /><sodipodi:namedview
   id="namedview3795"
   pagecolor="#ffffff"
   bordercolor="#000000"
   borderopacity="0.25"
   inkscape:showpageshadow="2"
   inkscape:pageopacity="0.0"
   inkscape:pagecheckerboard="0"
   inkscape:deskcolor="#d1d1d1"
   showgrid="false"
   inkscape:zoom="0.62609546"
   inkscape:cx="470.37556"
   inkscape:cy="440.82735"
   inkscape:window-width="1206"
   inkscape:window-height="864"
   inkscape:window-x="0"
   inkscape:window-y="38"
   inkscape:window-maximized="0"
   inkscape:current-layer="Layer_1" />
<style
   type="text/css"
   id="style2690">
	.st0{display:none;}
	.st1{display:inline;fill:none;stroke:#C6C5BA;stroke-width:4;stroke-miterlimit:10;}
	.st2{display:inline;fill:none;stroke:#BE1622;stroke-width:6;stroke-miterlimit:10;}
	.st3{display:inline;fill:none;stroke:#92A8B4;stroke-width:3.8662;stroke-miterlimit:10;}
	.st4{display:inline;fill:none;stroke:#92A8B4;stroke-width:1.1446;stroke-miterlimit:10;}
	.st5{display:inline;}
	.st6{fill:none;stroke:#BE1622;stroke-width:1.1446;stroke-miterlimit:10;}
	.st7{fill:none;stroke:#009FE3;stroke-width:1.1446;stroke-miterlimit:10;}
	.st8{fill:none;stroke:#92A8B4;stroke-width:1.1446;stroke-miterlimit:10;}
	.st9{display:inline;fill:none;stroke:#92A8B4;stroke-width:1.4053;stroke-miterlimit:10;}
	.st10{display:inline;fill:none;stroke:#009FE3;stroke-width:6;stroke-miterlimit:10;}
	.st11{fill:none;stroke:#009640;stroke-width:1.0102;stroke-miterlimit:9.9999;}
	.st12{fill:none;stroke:#009640;stroke-width:1.229;stroke-miterlimit:9.9999;}
	.st13{fill:none;stroke:#009640;stroke-width:1.229;stroke-miterlimit:10;}
	.st14{fill:none;stroke:#BE1622;stroke-width:2.4;stroke-miterlimit:10;}
	.st15{fill:none;stroke:#009FE3;stroke-width:2.4;stroke-miterlimit:10;}
	.st16{fill:none;stroke:#BE1622;stroke-width:4.5;stroke-miterlimit:10;}
	.st17{fill:none;stroke:#009FE3;stroke-width:4.5;stroke-miterlimit:10;}
	.st18{fill:none;stroke:#BE1622;stroke-width:3;stroke-miterlimit:10;}
	.st19{fill:none;stroke:#009FE3;stroke-width:3;stroke-miterlimit:10;}
	.st20{display:inline;fill:none;stroke:#92A8B4;stroke-width:4;stroke-miterlimit:10;}
	.st21{display:inline;fill:none;stroke:#009640;stroke-width:0.75;stroke-miterlimit:10;}
	.st22{fill:#009640;}
	.st23{fill:none;stroke:#009640;stroke-width:8;stroke-miterlimit:10;}
	.st24{fill:none;stroke:#009640;stroke-width:1.0102;stroke-miterlimit:10;}
	.st25{display:inline;fill:#009640;}
	.st26{display:inline;fill:none;stroke:#009640;stroke-width:1.229;stroke-miterlimit:10;}
	.st27{display:inline;fill:none;stroke:#BE1622;stroke-width:12.5;stroke-miterlimit:10;}
	.st28{display:inline;fill:none;stroke:#BE1622;stroke-width:10.6282;stroke-miterlimit:10;}
	.st29{display:inline;fill:none;stroke:#BE1622;stroke-width:12.3463;stroke-miterlimit:10;}
	.st30{display:inline;fill:#838272;}
	.st31{font-family:'ACaslon-Regular';}
	.st32{font-size:35.1015px;}
	.st33{fill:#FFFFFF;}
	.st34{display:inline;fill:#0072B0;}
	.st35{fill:#B5CCE2;}
	.st36{fill:#0072B0;}
	.st37{fill:#818080;}
	.st38{font-family:'DIN-Medium';}
	.st39{fill:#92A8B4;}
	.st40{fill:#009540;}
	.st41{fill:#91A7B3;}
	.st42{fill:#CAD3D7;}
	.st43{fill:#1C7FB5;}
	.st44{fill:#1D1D1B;}
</style>
<g
   id="material_x5F_level"
   class="st0">
	
		<image
   style="display:inline;overflow:visible;enable-background:new    ;"
   width="1800"
   height="1794"
   xlink:href="file:///private/var/folders/rw/h6p21bg50qv1kf_4n2y4l8zh0000gn/T/com.microsoft.Outlook/Meta%20genome%20logo%20sourced/Screenshot%202023-03-08%20at%2009.20.01.png"
   transform="matrix(0.3771 2.254526e-04 -2.254526e-04 0.3771 316.1582 165.6582)"
   id="image2692">
	</image>
</g>
<g
   id="material_x5F_tilted"
   class="st0">
	
		<image
   style="display:inline;overflow:visible;enable-background:new    ;"
   width="1800"
   height="1794"
   xlink:href="file:///private/var/folders/rw/h6p21bg50qv1kf_4n2y4l8zh0000gn/T/com.microsoft.Outlook/Meta%20genome%20logo%20sourced/Screenshot%202023-03-08%20at%2009.20.01.png"
   transform="matrix(0.3698 7.373968e-02 -7.373968e-02 0.3698 329.2613 33.833)"
   id="image2695">
	</image>
</g>
<g
   id="DNA"
   class="st0">
	<path
   class="st1"
   d="M341.6,594.2c7.4-7.8,18.9-8.2,26.7-1.1"
   id="path2698" />
	<path
   class="st2"
   d="M385.6,312.1c-21.5-17.7-53.2-16.8-73.7,2.8l-1.5,1.5"
   id="path2700" />
	<path
   class="st2"
   d="M467.1,316.3c-20.5,19.6-52.3,20.5-73.9,2.6"
   id="path2702" />
	<path
   class="st3"
   d="M312,95.6c-8.9,0-40.7-32.5-67.1-32.5s-58.2,32.5-67.1,32.5S137,63.1,110.6,63.1S52.4,95.6,43.4,95.6"
   id="path2704" />
	<line
   class="st3"
   x1="43.4"
   y1="39.8"
   x2="428.8"
   y2="39.8"
   id="line2706" />
	<polyline
   class="st4"
   points="684,181.4 605.7,106.7 527.3,181.4 449,106.7 370.6,181.4 292.2,106.7 213.9,181.4 135.5,106.7    57.2,181.4  "
   id="polyline2708" />
	<g
   class="st5"
   id="g2716">
		<path
   class="st6"
   d="M388.7,213c-21.5-20.5-55.3-20.5-76.8,0l-1.5,1.5"
   id="path2710" />
		<path
   class="st6"
   d="M467.1,214.4c-21.5,20.5-55.3,20.5-76.8,0"
   id="path2712" />
		<path
   class="st7"
   d="M311.9,214.4c21.5,20.5,55.3,20.5,76.8,0l1.5-1.5c21.5-20.5,55.3-20.5,76.8,0"
   id="path2714" />
	</g>
	<g
   class="st5"
   id="g2728">
		<path
   class="st8"
   d="M545.4,213c-21.5-20.5-55.3-20.5-76.8,0l-1.5,1.5"
   id="path2718" />
		<line
   class="st8"
   x1="546.9"
   y1="214.4"
   x2="545.4"
   y2="213"
   id="line2720" />
		<path
   class="st8"
   d="M623.8,214.4c-21.5,20.5-55.3,20.5-76.8,0"
   id="path2722" />
		<path
   class="st8"
   d="M546.9,213c21.5-20.5,55.3-20.5,76.8,0"
   id="path2724" />
		<path
   class="st8"
   d="M468.6,214.4c21.5,20.5,55.3,20.5,76.8,0"
   id="path2726" />
	</g>
	<g
   class="st5"
   id="g2740">
		<path
   class="st8"
   d="M232,213c-21.5-20.5-55.3-20.5-76.8,0l-1.5,1.5"
   id="path2730" />
		<line
   class="st8"
   x1="233.5"
   y1="214.4"
   x2="232"
   y2="213"
   id="line2732" />
		<path
   class="st8"
   d="M310.3,214.4c-21.5,20.5-55.3,20.5-76.8,0"
   id="path2734" />
		<path
   class="st8"
   d="M233.5,213c21.5-20.5,55.3-20.5,76.8,0"
   id="path2736" />
		<path
   class="st8"
   d="M155.2,214.4c21.5,20.5,55.3,20.5,76.8,0"
   id="path2738" />
	</g>
	<path
   class="st9"
   d="M914.7,50.2l-21.5-13.6c-27.1-17.1-69.6-17.1-96.7,0L775,50.2c-27.1,17.1-69.6,17.1-96.7,0L657,36.7   c-27.1-17.1-69.6-17.1-96.7,0l-21.5,13.6c-27.1,17.1-69.6,17.1-96.7,0"
   id="path2742" />
	<path
   class="st9"
   d="M539.7,36.7l21.5,13.6c27.1,17.1,69.6,17.1,96.7,0l21.5-13.6c27.1-17.1,69.6-17.1,96.7,0l21.5,13.6   c27.1,17.1,69.6,17.1,96.7,0l21.5-13.6c27.1-17.1,69.6-17.1,96.7,0"
   id="path2744" />
	<path
   class="st10"
   d="M314.8,318.9c21.5,17.9,53.3,17,73.9-2.6l1.5-1.5c20.5-19.6,52.2-20.5,73.8-2.7"
   id="path2746" />
	<path
   class="st2"
   d="M542.3,312.1c-21.5-17.7-53.2-16.8-73.7,2.8l-1.5,1.5"
   id="path2748" />
	<path
   class="st2"
   d="M623.8,316.3c-20.5,19.6-52.3,20.5-73.9,2.6"
   id="path2750" />
	<path
   class="st10"
   d="M471.5,318.9c21.5,17.9,53.3,17,73.9-2.6l1.5-1.5c20.5-19.6,52.2-20.5,73.8-2.7"
   id="path2752" />
	<g
   class="st5"
   id="g2766">
		
			<ellipse
   transform="matrix(0.7071 -0.7071 0.7071 0.7071 155.3916 785.7596)"
   class="st11"
   cx="1026.2"
   cy="205.3"
   rx="76.7"
   ry="76.7"
   id="ellipse2754" />
		
			<ellipse
   transform="matrix(0.7071 -0.7071 0.7071 0.7071 155.3916 785.7596)"
   class="st12"
   cx="1026.2"
   cy="205.3"
   rx="93.3"
   ry="93.3"
   id="ellipse2756" />
		<polygon
   class="st13"
   points="1102.2,221.8 1119.5,205.3 1119.5,339.8 1102.2,339.8   "
   id="polygon2758" />
		<polygon
   class="st13"
   points="1042.7,129.3 1026.2,112 1163.6,112 1163.6,129.3   "
   id="polygon2760" />
		<polygon
   class="st13"
   points="950.2,188.8 932.9,205.3 932.9,70.8 950.2,70.8   "
   id="polygon2762" />
		<polygon
   class="st13"
   points="1009.7,281.3 1026.2,298.6 888.8,298.6 888.8,281.3   "
   id="polygon2764" />
	</g>
	<g
   class="st5"
   id="g2804">
		<g
   id="g2802">
			<g
   id="g2800">
				<g
   id="g2774">
					<path
   class="st14"
   d="M101.2,316.4c-2.6,0.2-5.2,0.9-7.4,2.3c-1.1,0.7-2.1,1.4-3.1,2.3c-0.9,0.9-1.7,1.9-2.4,3       c-2.9,4.3-3.6,9.8-1.8,14.9l0.3,0.7"
   id="path2768" />
					<path
   class="st14"
   d="M126.1,300.6c-0.4,1.3-0.9,2.5-1.4,3.6c-0.3,0.6-0.6,1.1-0.9,1.6s-0.6,1.1-0.9,1.6       c-0.7,1-1.4,1.9-2.2,2.7c-0.8,0.8-1.6,1.6-2.5,2.2c-0.9,0.7-1.9,1.2-2.8,1.7c-1,0.5-2,1-3.1,1.3c-0.6,0.2-1.1,0.3-1.7,0.4       s-1.1,0.3-1.7,0.4c-1.2,0.2-2.5,0.3-3.8,0.3"
   id="path2770" />
					<path
   class="st15"
   d="M88.5,338.7c1.2-0.4,2.4-1,3.4-1.6c1.1-0.6,2.1-1.2,3-1.9c0.9-0.7,1.7-1.5,2.5-2.3s1.5-1.6,2.1-2.6       c0.3-0.5,0.6-0.9,0.8-1.4c0.3-0.5,0.5-1,0.8-1.5c0.5-1,0.9-2.1,1.1-3.3c0.6-2.3,1-4.7,0.8-7.5c0-0.3,0-0.5,0-0.8       c0-2.6,0.6-5.3,1.7-7.6c0.6-1.1,1.3-2.2,2.1-3.2c0.4-0.5,0.8-1,1.3-1.4s1-0.8,1.5-1.2c1-0.8,2.1-1.4,3.3-2       c1.1-0.6,2.4-0.9,3.7-1.2c1.3-0.2,2.5-0.4,3.8-0.4c1.3,0.1,2.6,0.3,3.9,0.6"
   id="path2772" />
				</g>
				<g
   id="g2782">
					<path
   class="st14"
   d="M153.3,291.1c-1.1-0.8-2.2-1.4-3.4-1.9s-2.4-0.8-3.7-1s-2.6-0.3-3.8-0.2c-1.3,0.1-2.5,0.4-3.8,0.8       c-0.6,0.2-1.2,0.4-1.8,0.6c-0.6,0.3-1.2,0.6-1.7,0.9c-1.1,0.7-2.1,1.4-3.1,2.3c-1,0.8-1.8,1.9-2.5,3s-1.3,2.3-1.8,3.5l-0.3,0.7       "
   id="path2776" />
					<path
   class="st14"
   d="M182.9,292.3c-3.7,3.9-8.4,6-13.2,6.1c-2.4,0.1-4.8-0.3-7.1-1.1c-2.1-0.8-4.3-2-6.3-3.7"
   id="path2778" />
					<path
   class="st15"
   d="M129.4,300.3c2.5,0.9,4.8,1.3,7.2,1.4c1.2,0.1,2.3,0,3.4-0.2c1.1-0.1,2.2-0.3,3.3-0.6       c1.1-0.3,2.1-0.8,3.1-1.2c1-0.5,2-1,3-1.7c0.5-0.3,0.9-0.7,1.4-1.1s0.9-0.8,1.4-1.2c0.9-0.8,1.8-1.8,2.6-2.9l0.5-0.6       c0.4-0.5,0.9-1.1,1.3-1.5c0.5-0.4,1-0.9,1.5-1.3c1-0.8,2.2-1.5,3.3-2c1.2-0.6,2.3-1,3.5-1.2c1.2-0.3,2.4-0.4,3.6-0.5       c4.8-0.2,9.6,1.5,13.5,5.1"
   id="path2780" />
				</g>
				<g
   id="g2790">
					<path
   class="st14"
   d="M211.7,290.6c-7.8-7.1-19.3-6.7-26.7,1.1l-0.6,0.6"
   id="path2784" />
					<path
   class="st14"
   d="M241.1,292.3c-7.4,7.8-18.9,8.2-26.7,1.1"
   id="path2786" />
					<path
   class="st15"
   d="M186.1,293.3c7.8,7.1,19.3,6.8,26.7-1l0.6-0.6c7.4-7.8,18.9-8.2,26.7-1.1"
   id="path2788" />
				</g>
				<g
   id="g2798">
					<path
   class="st14"
   d="M269.8,290.6c-7.8-7.1-19.3-6.7-26.7,1.1l-0.6,0.6"
   id="path2792" />
					<path
   class="st14"
   d="M299.3,292.3c-7.4,7.8-18.9,8.2-26.7,1.1"
   id="path2794" />
					<path
   class="st15"
   d="M244.2,293.3c7.8,7.1,19.3,6.8,26.7-1l0.6-0.6c7.4-7.8,18.9-8.2,26.7-1.1"
   id="path2796" />
				</g>
			</g>
		</g>
	</g>
	<g
   class="st5"
   id="g2842">
		<g
   id="g2840">
			<g
   id="g2838">
				<g
   id="g2812">
					<path
   class="st14"
   d="M222.9,315.2c-0.2-2.6-0.9-5.2-2.3-7.4c-0.7-1.1-1.4-2.1-2.3-3.1c-0.9-0.9-1.9-1.7-3-2.4       c-4.3-2.9-9.8-3.6-14.9-1.8l-0.7,0.3"
   id="path2806" />
					<path
   class="st14"
   d="M238.7,340.1c-1.3-0.4-2.5-0.9-3.6-1.4c-0.6-0.3-1.1-0.6-1.6-0.9s-1.1-0.6-1.6-0.9       c-1-0.7-1.9-1.4-2.7-2.2c-0.8-0.8-1.6-1.6-2.2-2.5c-0.7-0.9-1.2-1.9-1.7-2.8c-0.5-1-1-2-1.3-3.1c-0.2-0.6-0.3-1.1-0.4-1.7       c-0.1-0.6-0.3-1.1-0.4-1.7c-0.2-1.2-0.3-2.5-0.3-3.8"
   id="path2808" />
					<path
   class="st15"
   d="M200.6,302.5c0.4,1.2,1,2.4,1.6,3.4c0.6,1.1,1.2,2.1,1.9,3s1.5,1.7,2.3,2.5s1.6,1.5,2.6,2.1       c0.5,0.3,0.9,0.6,1.4,0.8c0.5,0.3,1,0.5,1.5,0.8c1,0.5,2.1,0.9,3.3,1.1c2.3,0.6,4.7,1,7.5,0.8c0.3,0,0.5,0,0.8,0       c2.6,0,5.3,0.6,7.6,1.7c1.1,0.6,2.2,1.3,3.2,2.1c0.5,0.4,1,0.8,1.4,1.3s0.8,1,1.2,1.5c0.8,1,1.4,2.1,2,3.3       c0.6,1.1,0.9,2.4,1.2,3.7c0.2,1.3,0.4,2.5,0.4,3.8c-0.1,1.3-0.3,2.6-0.6,3.9"
   id="path2810" />
				</g>
				<g
   id="g2820">
					<path
   class="st14"
   d="M248.2,367.3c0.8-1.1,1.4-2.2,1.9-3.4c0.5-1.2,0.8-2.4,1-3.7c0.2-1.3,0.3-2.6,0.2-3.8       c-0.1-1.3-0.4-2.5-0.8-3.8c-0.2-0.6-0.4-1.2-0.6-1.8c-0.3-0.6-0.6-1.2-0.9-1.7c-0.7-1.1-1.4-2.1-2.3-3.1c-0.8-1-1.9-1.8-3-2.5       s-2.3-1.3-3.5-1.8l-0.7-0.3"
   id="path2814" />
					<path
   class="st14"
   d="M247,396.9c-3.9-3.7-6-8.4-6.1-13.2c-0.1-2.4,0.3-4.8,1.1-7.1c0.8-2.1,2-4.3,3.7-6.3"
   id="path2816" />
					<path
   class="st15"
   d="M239,343.4c-0.9,2.5-1.3,4.8-1.4,7.2c-0.1,1.2,0,2.3,0.2,3.4c0.1,1.1,0.3,2.2,0.6,3.3       c0.3,1.1,0.8,2.1,1.2,3.1c0.5,1,1,2,1.7,3c0.3,0.5,0.7,0.9,1.1,1.4c0.4,0.5,0.8,0.9,1.2,1.4c0.8,0.9,1.8,1.8,2.9,2.6l0.6,0.5       c0.5,0.4,1.1,0.9,1.5,1.3c0.4,0.5,0.9,1,1.3,1.5c0.8,1,1.5,2.2,2,3.3c0.6,1.2,1,2.3,1.2,3.5c0.3,1.2,0.4,2.4,0.5,3.6       c0.2,4.8-1.5,9.6-5.1,13.5"
   id="path2818" />
				</g>
				<g
   id="g2828">
					<path
   class="st14"
   d="M248.7,425.6c7.1-7.8,6.7-19.3-1.1-26.7l-0.6-0.6"
   id="path2822" />
					<path
   class="st14"
   d="M247,455.1c-7.8-7.4-8.2-18.9-1.1-26.7"
   id="path2824" />
					<path
   class="st15"
   d="M246,400c-7.1,7.8-6.8,19.3,1,26.7l0.6,0.6c7.8,7.4,8.2,18.9,1.1,26.7"
   id="path2826" />
				</g>
				<g
   id="g2836">
					<path
   class="st14"
   d="M248.7,483.8c7.1-7.8,6.7-19.3-1.1-26.7l-0.6-0.6"
   id="path2830" />
					<path
   class="st14"
   d="M247,513.3c-7.8-7.4-8.2-18.9-1.1-26.7"
   id="path2832" />
					<path
   class="st15"
   d="M246,458.2c-7.1,7.8-6.8,19.3,1,26.7l0.6,0.6c7.8,7.4,8.2,18.9,1.1,26.7"
   id="path2834" />
				</g>
			</g>
		</g>
	</g>
	<g
   class="st5"
   id="g2880">
		<g
   id="g2878">
			<g
   id="g2876">
				<g
   id="g2850">
					<path
   class="st14"
   d="M224.1,436.8c2.6-0.2,5.2-0.9,7.4-2.3c1.1-0.7,2.1-1.4,3.1-2.3c0.9-0.9,1.7-1.9,2.4-3       c2.9-4.3,3.6-9.8,1.8-14.9l-0.3-0.7"
   id="path2844" />
					<path
   class="st14"
   d="M199.2,452.7c0.4-1.3,0.9-2.5,1.4-3.6c0.3-0.6,0.6-1.1,0.9-1.6c0.3-0.5,0.6-1.1,0.9-1.6       c0.7-1,1.4-1.9,2.2-2.7c0.8-0.8,1.6-1.6,2.5-2.2c0.9-0.7,1.9-1.2,2.8-1.7c1-0.5,2-1,3.1-1.3c0.6-0.2,1.1-0.3,1.7-0.4       c0.6-0.1,1.1-0.3,1.7-0.4c1.2-0.2,2.5-0.3,3.8-0.3"
   id="path2846" />
					<path
   class="st15"
   d="M236.8,414.6c-1.2,0.4-2.4,1-3.4,1.6c-1.1,0.6-2.1,1.2-3,1.9c-0.9,0.7-1.7,1.5-2.5,2.3s-1.5,1.6-2.1,2.6       c-0.3,0.5-0.6,0.9-0.8,1.4c-0.3,0.5-0.5,1-0.8,1.5c-0.5,1-0.9,2.1-1.1,3.3c-0.6,2.3-1,4.7-0.8,7.5c0,0.3,0,0.5,0,0.8       c0,2.6-0.6,5.3-1.7,7.6c-0.6,1.1-1.3,2.2-2.1,3.2c-0.4,0.5-0.8,1-1.3,1.4s-1,0.8-1.5,1.2c-1,0.8-2.1,1.4-3.3,2       c-1.1,0.6-2.4,0.9-3.7,1.2c-1.3,0.2-2.5,0.4-3.8,0.4c-1.3-0.1-2.6-0.3-3.9-0.6"
   id="path2848" />
				</g>
				<g
   id="g2858">
					<path
   class="st14"
   d="M171.9,462.1c1.1,0.8,2.2,1.4,3.4,1.9s2.4,0.8,3.7,1s2.6,0.3,3.8,0.2c1.3-0.1,2.5-0.4,3.8-0.8       c0.6-0.2,1.2-0.4,1.8-0.6c0.6-0.3,1.2-0.6,1.7-0.9c1.1-0.7,2.1-1.4,3.1-2.3c1-0.8,1.8-1.9,2.5-3s1.3-2.3,1.8-3.5l0.3-0.7"
   id="path2852" />
					<path
   class="st14"
   d="M142.4,461c3.7-3.9,8.4-6,13.2-6.1c2.4-0.1,4.8,0.3,7.1,1.1c2.1,0.8,4.3,2,6.3,3.7"
   id="path2854" />
					<path
   class="st15"
   d="M195.9,453c-2.5-0.9-4.8-1.3-7.2-1.4c-1.2-0.1-2.3,0-3.4,0.2c-1.1,0.1-2.2,0.3-3.3,0.6       c-1.1,0.3-2.1,0.8-3.1,1.2c-1,0.5-2,1-3,1.7c-0.5,0.3-0.9,0.7-1.4,1.1s-0.9,0.8-1.4,1.2c-0.9,0.8-1.8,1.8-2.6,2.9l-0.5,0.6       c-0.4,0.5-0.9,1.1-1.3,1.5c-0.5,0.4-1,0.9-1.5,1.3c-1,0.8-2.2,1.5-3.3,2c-1.2,0.6-2.3,1-3.5,1.2c-1.2,0.3-2.4,0.4-3.6,0.5       c-4.8,0.2-9.6-1.5-13.5-5.1"
   id="path2856" />
				</g>
				<g
   id="g2866">
					<path
   class="st14"
   d="M113.6,462.7c7.8,7.1,19.3,6.7,26.7-1.1l0.6-0.6"
   id="path2860" />
					<path
   class="st14"
   d="M84.2,461c7.4-7.8,18.9-8.2,26.7-1.1"
   id="path2862" />
					<path
   class="st15"
   d="M139.2,460c-7.8-7.1-19.3-6.8-26.7,1l-0.6,0.6c-7.4,7.8-18.9,8.2-26.7,1.1"
   id="path2864" />
				</g>
				<g
   id="g2874">
					<path
   class="st14"
   d="M55.4,462.7c7.8,7.1,19.3,6.7,26.7-1.1l0.6-0.6"
   id="path2868" />
					<path
   class="st14"
   d="M26,461c7.4-7.8,18.9-8.2,26.7-1.1"
   id="path2870" />
					<path
   class="st15"
   d="M81.1,460c-7.8-7.1-19.3-6.8-26.7,1l-0.6,0.6c-7.4,7.8-18.9,8.2-26.7,1.1"
   id="path2872" />
				</g>
			</g>
		</g>
	</g>
	<g
   class="st5"
   id="g2918">
		<g
   id="g2916">
			<g
   id="g2914">
				<g
   id="g2888">
					<path
   class="st14"
   d="M102.4,438.1c0.2,2.6,0.9,5.2,2.3,7.4c0.7,1.1,1.4,2.1,2.3,3.1c0.9,0.9,1.9,1.7,3,2.4       c4.3,2.9,9.8,3.6,14.9,1.8l0.7-0.3"
   id="path2882" />
					<path
   class="st14"
   d="M86.6,413.1c1.3,0.4,2.5,0.9,3.6,1.4c0.6,0.3,1.1,0.6,1.6,0.9s1.1,0.6,1.6,0.9c1,0.7,1.9,1.4,2.7,2.2       c0.8,0.8,1.6,1.6,2.2,2.5c0.7,0.9,1.2,1.9,1.7,2.8c0.5,1,1,2,1.3,3.1c0.2,0.6,0.3,1.1,0.4,1.7s0.3,1.1,0.4,1.7       c0.2,1.2,0.3,2.5,0.3,3.8"
   id="path2884" />
					<path
   class="st15"
   d="M124.7,450.8c-0.4-1.2-1-2.4-1.6-3.4c-0.6-1.1-1.2-2.1-1.9-3c-0.7-0.9-1.5-1.7-2.3-2.5s-1.6-1.5-2.6-2.1       c-0.5-0.3-0.9-0.6-1.4-0.8c-0.5-0.3-1-0.5-1.5-0.8c-1-0.5-2.1-0.9-3.3-1.1c-2.3-0.6-4.7-1-7.5-0.8c-0.3,0-0.5,0-0.8,0       c-2.6,0-5.3-0.6-7.6-1.7c-1.1-0.6-2.2-1.3-3.2-2.1c-0.5-0.4-1-0.8-1.4-1.3s-0.8-1-1.2-1.5c-0.8-1-1.4-2.1-2-3.3       c-0.6-1.1-0.9-2.4-1.2-3.7c-0.2-1.3-0.4-2.5-0.4-3.8c0.1-1.3,0.3-2.6,0.6-3.9"
   id="path2886" />
				</g>
				<g
   id="g2896">
					<path
   class="st14"
   d="M77.1,385.9c-0.8,1.1-1.4,2.2-1.9,3.4c-0.5,1.2-0.8,2.4-1,3.7c-0.2,1.3-0.3,2.6-0.2,3.8       c0.1,1.3,0.4,2.5,0.8,3.8c0.2,0.6,0.4,1.2,0.6,1.8c0.3,0.6,0.6,1.2,0.9,1.7c0.7,1.1,1.4,2.1,2.3,3.1c0.8,1,1.9,1.8,3,2.5       s2.3,1.3,3.5,1.8l0.7,0.3"
   id="path2890" />
					<path
   class="st14"
   d="M78.3,356.3c3.9,3.7,6,8.4,6.1,13.2c0.1,2.4-0.3,4.8-1.1,7.1c-0.8,2.1-2,4.3-3.7,6.3"
   id="path2892" />
					<path
   class="st15"
   d="M86.3,409.9c0.9-2.5,1.3-4.8,1.4-7.2c0.1-1.2,0-2.3-0.2-3.4c-0.1-1.1-0.3-2.2-0.6-3.3       c-0.3-1.1-0.8-2.1-1.2-3.1c-0.5-1-1-2-1.7-3c-0.3-0.5-0.7-0.9-1.1-1.4s-0.8-0.9-1.2-1.4c-0.8-0.9-1.8-1.8-2.9-2.6l-0.6-0.5       c-0.5-0.4-1.1-0.9-1.5-1.3c-0.4-0.5-0.9-1-1.3-1.5c-0.8-1-1.5-2.2-2-3.3c-0.6-1.2-1-2.3-1.2-3.5c-0.3-1.2-0.4-2.4-0.5-3.6       c-0.2-4.8,1.5-9.6,5.1-13.5"
   id="path2894" />
				</g>
				<g
   id="g2904">
					<path
   class="st14"
   d="M76.6,327.6c-7.1,7.8-6.7,19.3,1.1,26.7l0.6,0.6"
   id="path2898" />
					<path
   class="st14"
   d="M78.3,298.1c7.8,7.4,8.2,18.9,1.1,26.7"
   id="path2900" />
					<path
   class="st15"
   d="M79.3,353.2c7.1-7.8,6.8-19.3-1-26.7l-0.6-0.6c-7.8-7.4-8.2-18.9-1.1-26.7"
   id="path2902" />
				</g>
				<g
   id="g2912">
					<path
   class="st14"
   d="M76.6,269.4c-7.1,7.8-6.7,19.3,1.1,26.7l0.6,0.6"
   id="path2906" />
					<path
   class="st14"
   d="M78.3,240c7.8,7.4,8.2,18.9,1.1,26.7"
   id="path2908" />
					<path
   class="st15"
   d="M79.3,295c7.1-7.8,6.8-19.3-1-26.7l-0.6-0.6c-7.8-7.4-8.2-18.9-1.1-26.7"
   id="path2910" />
				</g>
			</g>
		</g>
	</g>
	<g
   class="st5"
   id="g2940">
		<g
   id="g2938">
			<g
   id="g2936">
				<g
   id="g2926">
					<path
   class="st16"
   d="M894.3,604.2c1.3,0.3,2.6,0.5,3.9,0.6c1.3,0.1,2.6,0.1,3.9,0c1.3-0.1,2.7-0.2,3.9-0.4       c1.3-0.3,2.6-0.6,3.8-1c0.6-0.2,1.3-0.4,1.9-0.7c0.6-0.2,1.2-0.5,1.8-0.8c1.2-0.6,2.4-1.3,3.5-2c1.2-0.7,2.2-1.6,3.3-2.4       c1-0.9,2.1-1.8,3-2.8c3.7-4,6.5-8.8,7.8-14c0.3-1.3,0.6-2.6,0.8-3.9c0.1-1.3,0.2-2.6,0.2-3.9c0-1.3-0.1-2.6-0.3-3.9       c-0.2-1.3-0.5-2.6-0.9-3.8l-0.5-1.5"
   id="path2920" />
					<path
   class="st16"
   d="M835.6,610.4c3.7-3.7,7.9-6.5,12.4-8.4c2.2-1,4.6-1.7,6.9-2.2c1.1-0.3,2.1-0.5,3.1-0.7s2-0.3,3.1-0.4       c8.1-1,16.5,0.1,26.1,3.3"
   id="path2922" />
					<path
   class="st17"
   d="M927.2,565.7c-1.2,0.5-2.3,0.9-3.5,1.3c-1.1,0.5-2.2,0.9-3.2,1.4s-2.1,1-3.1,1.5s-1.9,1.1-2.8,1.7       c-1,0.5-1.9,1.1-2.7,1.7c-0.9,0.6-1.7,1.3-2.5,1.9c-1.7,1.2-3.1,2.7-4.6,4.1c-5.7,5.8-10.2,13.3-13.8,23.1       c-0.2,0.5-0.3,1-0.5,1.5c-1,2.4-2.2,4.7-3.8,6.8c-0.8,1-1.7,2-2.6,2.9c-0.9,0.9-1.9,1.9-3,2.6c-1.1,0.8-2.2,1.5-3.3,2.2       c-0.6,0.3-1.2,0.7-1.8,1s-1.2,0.5-1.9,0.8c-1.3,0.5-2.5,0.9-3.8,1.3c-1.3,0.4-2.7,0.6-4,0.8s-2.7,0.3-4.1,0.4       c-1.4,0-2.7-0.1-4.1-0.2c-2.8-0.2-5-0.8-7.3-1.6c-4.6-1.6-8.9-4-12.8-7.4"
   id="path2924" />
				</g>
				<g
   id="g2934">
					<path
   class="st16"
   d="M778.2,613.6c15.6,13.3,38.5,12.6,53.3-2.1l1.1-1.1"
   id="path2928" />
					<path
   class="st16"
   d="M719.2,610.4c14.9-14.7,37.8-15.3,53.4-2"
   id="path2930" />
					<path
   class="st17"
   d="M829.4,608.4c-15.6-13.4-38.6-12.7-53.5,2l-1.1,1.1c-14.8,14.7-37.8,15.3-53.4,2"
   id="path2932" />
				</g>
			</g>
		</g>
	</g>
	<g
   class="st5"
   id="g2970">
		<g
   id="g2968">
			<g
   id="g2966">
				<g
   id="g2948">
					<path
   class="st18"
   d="M62.1,625.3c-1.8,0.8-3.3,1.8-4.9,3c-1.5,1.2-2.9,2.6-4.1,4.2c-1.2,1.6-2.3,3.3-3.1,5.1       c-0.4,0.9-0.8,1.8-1.2,2.8c-0.3,1-0.6,1.9-0.9,2.9c-2,7.9-0.3,16.4,4.5,22.3l0.7,0.9"
   id="path2942" />
					<path
   class="st18"
   d="M95.5,594.5c-2.6,7.1-6.3,12.9-11,17.7c-4.7,4.7-10.4,8.6-17.3,11.2"
   id="path2944" />
					<path
   class="st19"
   d="M54.5,664c4.7-5.8,7.8-11.9,9.5-18.3c1.7-6.5,2.1-13.4,0.8-20.8l-0.2-1.1c-1.3-7.5,1.6-15.6,7.2-21.6       c5.6-5.9,13.6-9.3,21.2-8.6"
   id="path2946" />
				</g>
				<g
   id="g2956">
					<path
   class="st18"
   d="M137.9,581.2c-6.1-4.5-14.8-5.8-22.6-3.6c-7.8,2.1-14.5,7.7-17.3,14.7l-0.4,1"
   id="path2950" />
					<path
   class="st18"
   d="M183.5,583.3c-11.5,9.8-29.3,10.2-41.4,1.3"
   id="path2952" />
					<path
   class="st19"
   d="M100.4,593.4c1.8,0.3,3.6,0.6,5.4,0.7c1.8,0.1,3.5,0.2,5.2,0.1c1.7,0,3.4-0.2,5.1-0.4       c0.8-0.1,1.7-0.3,2.5-0.4c0.8-0.1,1.6-0.3,2.5-0.5c6.5-1.7,12.7-4.6,18.6-9.5l0.9-0.7c11.5-9.8,29.3-10.2,41.3-1.3"
   id="path2954" />
				</g>
				<g
   id="g2964">
					<path
   class="st18"
   d="M228,581.2c-12.1-8.9-29.8-8.4-41.3,1.4l-0.9,0.7"
   id="path2958" />
					<path
   class="st18"
   d="M273.7,583.3c-11.5,9.8-29.3,10.2-41.4,1.3"
   id="path2960" />
					<path
   class="st19"
   d="M188.4,584.6c12.1,8.9,29.9,8.5,41.4-1.3l0.9-0.7c11.5-9.8,29.3-10.2,41.3-1.3"
   id="path2962" />
				</g>
			</g>
		</g>
	</g>
	<g
   class="st5"
   id="g3000">
		<g
   id="g2998">
			<g
   id="g2996">
				<g
   id="g2978">
					<path
   class="st18"
   d="M179.7,592.3c-0.8-1.8-1.8-3.3-3-4.9c-1.2-1.5-2.6-2.9-4.2-4.1c-1.6-1.2-3.3-2.3-5.1-3.1       c-0.9-0.4-1.8-0.8-2.8-1.2c-1-0.3-1.9-0.6-2.9-0.9c-7.9-2-16.4-0.3-22.3,4.5l-0.9,0.7"
   id="path2972" />
					<path
   class="st18"
   d="M210.6,625.7c-7.1-2.6-12.9-6.3-17.7-11c-4.7-4.7-8.6-10.4-11.2-17.3"
   id="path2974" />
					<path
   class="st19"
   d="M141,584.7c5.8,4.7,11.9,7.8,18.3,9.5c6.5,1.7,13.4,2.1,20.8,0.8l1.1-0.2c7.5-1.3,15.6,1.6,21.6,7.2       c5.9,5.6,9.3,13.6,8.6,21.2"
   id="path2976" />
				</g>
				<g
   id="g2986">
					<path
   class="st18"
   d="M223.8,668.1c4.5-6.1,5.8-14.8,3.6-22.6c-2.1-7.8-7.7-14.5-14.7-17.3l-1-0.4"
   id="path2980" />
					<path
   class="st18"
   d="M221.7,713.7c-9.8-11.5-10.2-29.3-1.3-41.4"
   id="path2982" />
					<path
   class="st19"
   d="M211.7,630.6c-0.3,1.8-0.6,3.6-0.7,5.4c-0.1,1.8-0.2,3.5-0.1,5.2c0,1.7,0.2,3.4,0.4,5.1       c0.1,0.8,0.3,1.7,0.4,2.5c0.1,0.8,0.3,1.6,0.5,2.5c1.7,6.5,4.6,12.7,9.5,18.6l0.7,0.9c9.8,11.5,10.2,29.3,1.3,41.3"
   id="path2984" />
				</g>
				<g
   id="g2994">
					<path
   class="st18"
   d="M223.8,758.2c8.9-12.1,8.4-29.8-1.4-41.3l-0.7-0.9"
   id="path2988" />
					<path
   class="st18"
   d="M221.7,803.9c-9.8-11.5-10.2-29.3-1.3-41.4"
   id="path2990" />
					<path
   class="st19"
   d="M220.4,718.6c-8.9,12.1-8.5,29.9,1.3,41.4l0.7,0.9c9.8,11.5,10.2,29.3,1.3,41.3"
   id="path2992" />
				</g>
			</g>
		</g>
	</g>
	<g
   class="st5"
   id="g3030">
		<g
   id="g3028">
			<g
   id="g3026">
				<g
   id="g3008">
					<path
   class="st18"
   d="M212.8,709.9c1.8-0.8,3.3-1.8,4.9-3c1.5-1.2,2.9-2.6,4.1-4.2c1.2-1.6,2.3-3.3,3.1-5.1       c0.4-0.9,0.8-1.8,1.2-2.8c0.3-1,0.6-1.9,0.9-2.9c2-7.9,0.3-16.4-4.5-22.3l-0.7-0.9"
   id="path3002" />
					<path
   class="st18"
   d="M179.3,740.8c2.6-7.1,6.3-12.9,11-17.7c4.7-4.7,10.4-8.6,17.3-11.2"
   id="path3004" />
					<path
   class="st19"
   d="M220.3,671.2c-4.7,5.8-7.8,11.9-9.5,18.3c-1.7,6.5-2.1,13.4-0.8,20.8l0.2,1.1c1.3,7.5-1.6,15.6-7.2,21.6       c-5.6,5.9-13.6,9.3-21.2,8.6"
   id="path3006" />
				</g>
				<g
   id="g3016">
					<path
   class="st18"
   d="M137,754c6.1,4.5,14.8,5.8,22.6,3.6c7.8-2.1,14.5-7.7,17.3-14.7l0.4-1"
   id="path3010" />
					<path
   class="st18"
   d="M91.3,751.9c11.5-9.8,29.3-10.2,41.4-1.3"
   id="path3012" />
					<path
   class="st19"
   d="M174.5,741.9c-1.8-0.3-3.6-0.6-5.4-0.7c-1.8-0.1-3.5-0.2-5.2-0.1c-1.7,0-3.4,0.2-5.1,0.4       c-0.8,0.1-1.7,0.3-2.5,0.4c-0.8,0.1-1.6,0.3-2.5,0.5c-6.5,1.7-12.7,4.6-18.6,9.5l-0.9,0.7c-11.5,9.8-29.3,10.2-41.3,1.3"
   id="path3014" />
				</g>
				<g
   id="g3024">
					<path
   class="st18"
   d="M46.8,754c12.1,8.9,29.8,8.4,41.3-1.4l0.9-0.7"
   id="path3018" />
					<path
   class="st18"
   d="M1.2,751.9c11.5-9.8,29.3-10.2,41.4-1.3"
   id="path3020" />
					<path
   class="st19"
   d="M86.5,750.6c-12.1-8.9-29.9-8.5-41.4,1.3l-0.9,0.7c-11.5,9.8-29.3,10.2-41.3,1.3"
   id="path3022" />
				</g>
			</g>
		</g>
	</g>
	<g
   class="st5"
   id="g3060">
		<g
   id="g3058">
			<g
   id="g3056">
				<g
   id="g3038">
					<path
   class="st18"
   d="M95.1,743c0.8,1.8,1.8,3.3,3,4.9c1.2,1.5,2.6,2.9,4.2,4.1c1.6,1.2,3.3,2.3,5.1,3.1       c0.9,0.4,1.8,0.8,2.8,1.2c1,0.3,1.9,0.6,2.9,0.9c7.9,2,16.4,0.3,22.3-4.5l0.9-0.7"
   id="path3032" />
					<path
   class="st18"
   d="M64.3,709.5c7.1,2.6,12.9,6.3,17.7,11c4.7,4.7,8.6,10.4,11.2,17.3"
   id="path3034" />
					<path
   class="st19"
   d="M133.8,750.5c-5.8-4.7-11.9-7.8-18.3-9.5c-6.5-1.7-13.4-2.1-20.8-0.8l-1.1,0.2       c-7.5,1.3-15.6-1.6-21.6-7.2c-5.9-5.6-9.3-13.6-8.6-21.2"
   id="path3036" />
				</g>
				<g
   id="g3046">
					<path
   class="st18"
   d="M51,667.2c-4.5,6.1-5.8,14.8-3.6,22.6c2.1,7.8,7.7,14.5,14.7,17.3l1,0.4"
   id="path3040" />
					<path
   class="st18"
   d="M53.1,621.5c9.8,11.5,10.2,29.3,1.3,41.4"
   id="path3042" />
					<path
   class="st19"
   d="M63.2,704.7c0.3-1.8,0.6-3.6,0.7-5.4c0.1-1.8,0.2-3.5,0.1-5.2c0-1.7-0.2-3.4-0.4-5.1       c-0.1-0.8-0.3-1.7-0.4-2.5c-0.1-0.8-0.3-1.6-0.5-2.5c-1.7-6.5-4.6-12.7-9.5-18.6l-0.7-0.9c-9.8-11.5-10.2-29.3-1.3-41.3"
   id="path3044" />
				</g>
				<g
   id="g3054">
					<path
   class="st18"
   d="M51,577c-8.9,12.1-8.4,29.8,1.4,41.3l0.7,0.9"
   id="path3048" />
					<path
   class="st18"
   d="M53.1,531.4c9.8,11.5,10.2,29.3,1.3,41.4"
   id="path3050" />
					<path
   class="st19"
   d="M54.4,616.7c8.9-12.1,8.5-29.9-1.3-41.4l-0.7-0.9c-9.8-11.5-10.2-29.3-1.3-41.3"
   id="path3052" />
				</g>
			</g>
		</g>
	</g>
	<path
   class="st20"
   d="M403.6,470.4c1.2-0.4,2.4-1,3.4-1.6c1.1-0.6,2.1-1.2,3-1.9c0.9-0.7,1.7-1.5,2.5-2.3s1.5-1.6,2.1-2.6   c0.3-0.5,0.6-0.9,0.8-1.4c0.3-0.5,0.5-1,0.8-1.5c0.5-1,0.9-2.1,1.1-3.3c0.6-2.3,1-4.7,0.8-7.5c0-0.3,0-0.5,0-0.8   c0-2.6,0.6-5.3,1.7-7.6c0.6-1.1,1.3-2.2,2.1-3.2c0.4-0.5,0.8-1,1.3-1.4s1-0.8,1.5-1.2c1-0.8,2.1-1.4,3.3-2c1.1-0.6,2.4-0.9,3.7-1.2   c1.3-0.2,2.5-0.4,3.8-0.4c1.3,0.1,2.6,0.3,3.9,0.6"
   id="path3062" />
	<path
   class="st20"
   d="M443.2,432.6c2.5,0.9,4.8,1.3,7.2,1.4c1.2,0.1,2.3,0,3.4-0.2c1.1-0.1,2.2-0.3,3.3-0.6   c1.1-0.3,2.1-0.8,3.1-1.2c1-0.5,2-1,3-1.7c0.5-0.3,0.9-0.7,1.4-1.1s0.9-0.8,1.4-1.2c0.9-0.8,1.8-1.8,2.6-2.9l0.5-0.6   c0.4-0.5,0.9-1.1,1.3-1.5c0.5-0.4,1-0.9,1.5-1.3c1-0.8,2.2-1.5,3.3-2c1.2-0.6,2.3-1,3.5-1.2c1.2-0.3,2.4-0.4,3.6-0.5   c4.8-0.2,9.6,1.5,13.5,5.1"
   id="path3064" />
	<path
   class="st20"
   d="M498.4,425.6c7.8,7.1,19.3,6.8,26.7-1l0.6-0.6c7.4-7.8,18.9-8.2,26.7-1.1"
   id="path3066" />
	<path
   class="st20"
   d="M555,425.6c7.8,7.1,19.3,6.8,26.7-1l0.6-0.6c7.4-7.8,18.9-8.2,26.7-1.1"
   id="path3068" />
	<path
   class="st20"
   d="M514,439.6c0.4,1.2,1,2.4,1.6,3.4c0.6,1.1,1.2,2.1,1.9,3s1.5,1.7,2.3,2.5s1.6,1.5,2.6,2.1   c0.5,0.3,0.9,0.6,1.4,0.8c0.5,0.3,1,0.5,1.5,0.8c1,0.5,2.1,0.9,3.3,1.1c2.3,0.6,4.7,1,7.5,0.8c0.3,0,0.5,0,0.8,0   c2.6,0,5.3,0.6,7.6,1.7c1.1,0.6,2.2,1.3,3.2,2.1c0.5,0.4,1,0.8,1.4,1.3s0.8,1,1.2,1.5c0.8,1,1.4,2.1,2,3.3c0.6,1.1,0.9,2.4,1.2,3.7   c0.2,1.3,0.4,2.5,0.4,3.8c-0.1,1.3-0.3,2.6-0.6,3.9"
   id="path3070" />
	<path
   class="st20"
   d="M551.8,479.2c-0.9,2.5-1.3,4.8-1.4,7.2c-0.1,1.2,0,2.3,0.2,3.4c0.1,1.1,0.3,2.2,0.6,3.3   c0.3,1.1,0.8,2.1,1.2,3.1c0.5,1,1,2,1.7,3c0.3,0.5,0.7,0.9,1.1,1.4c0.4,0.5,0.8,0.9,1.2,1.4c0.8,0.9,1.8,1.8,2.9,2.6l0.6,0.5   c0.5,0.4,1.1,0.9,1.5,1.3c0.4,0.5,0.9,1,1.3,1.5c0.8,1,1.5,2.2,2,3.3c0.6,1.2,1,2.3,1.2,3.5c0.3,1.2,0.4,2.4,0.5,3.6   c0.2,4.8-1.5,9.6-5.1,13.5"
   id="path3072" />
	<path
   class="st20"
   d="M558.8,534.4c-7.1,7.8-6.8,19.3,1,26.7l0.6,0.6c7.8,7.4,8.2,18.9,1.1,26.7"
   id="path3074" />
	<path
   class="st20"
   d="M558.5,590.8c-7.1,7.8-6.8,19.3,1,26.7l0.6,0.6c7.8,7.4,8.2,18.9,1.1,26.7"
   id="path3076" />
	<path
   class="st20"
   d="M546.5,548.5c-1.2,0.4-2.4,1-3.4,1.6c-1.1,0.6-2.1,1.2-3,1.9s-1.7,1.5-2.5,2.3s-1.5,1.6-2.1,2.6   c-0.3,0.5-0.6,0.9-0.8,1.4c-0.3,0.5-0.5,1-0.8,1.5c-0.5,1-0.9,2.1-1.1,3.3c-0.6,2.3-1,4.7-0.8,7.5c0,0.3,0,0.5,0,0.8   c0,2.6-0.6,5.3-1.7,7.6c-0.6,1.1-1.3,2.2-2.1,3.2c-0.4,0.5-0.8,1-1.3,1.4s-1,0.8-1.5,1.2c-1,0.8-2.1,1.4-3.3,2   c-1.1,0.6-2.4,0.9-3.7,1.2c-1.3,0.2-2.5,0.4-3.8,0.4c-1.3-0.1-2.6-0.3-3.9-0.6"
   id="path3078" />
	<path
   class="st20"
   d="M506.9,586.2c-2.5-0.9-4.8-1.3-7.2-1.4c-1.2-0.1-2.3,0-3.4,0.2c-1.1,0.1-2.2,0.3-3.3,0.6   c-1.1,0.3-2.1,0.8-3.1,1.2c-1,0.5-2,1-3,1.7c-0.5,0.3-0.9,0.7-1.4,1.1c-0.5,0.4-0.9,0.8-1.4,1.2c-0.9,0.8-1.8,1.8-2.6,2.9l-0.5,0.6   c-0.4,0.5-0.9,1.1-1.3,1.5c-0.5,0.4-1,0.9-1.5,1.3c-1,0.8-2.2,1.5-3.3,2c-1.2,0.6-2.3,1-3.5,1.2c-1.2,0.3-2.4,0.4-3.6,0.5   c-4.8,0.2-9.6-1.5-13.5-5.1"
   id="path3080" />
	<path
   class="st20"
   d="M451.8,593.2c-7.8-7.1-19.3-6.8-26.7,1l-0.6,0.6c-7.4,7.8-18.9,8.2-26.7,1.1"
   id="path3082" />
	<path
   class="st20"
   d="M395.1,593.2c-7.8-7.1-19.3-6.8-26.7,1l-0.6,0.6c-7.4,7.8-18.9,8.2-26.7,1.1"
   id="path3084" />
	<path
   class="st20"
   d="M436.3,580.8c-0.4-1.2-1-2.4-1.6-3.4c-0.6-1.1-1.2-2.1-1.9-3c-0.7-0.9-1.5-1.7-2.3-2.5s-1.6-1.5-2.6-2.1   c-0.5-0.3-0.9-0.6-1.4-0.8c-0.5-0.3-1-0.5-1.5-0.8c-1-0.5-2.1-0.9-3.3-1.1c-2.3-0.6-4.7-1-7.5-0.8c-0.3,0-0.5,0-0.8,0   c-2.6,0-5.3-0.6-7.6-1.7c-1.1-0.6-2.2-1.3-3.2-2.1c-0.5-0.4-1-0.8-1.4-1.3s-0.8-1-1.2-1.5c-0.8-1-1.4-2.1-2-3.3   c-0.6-1.1-0.9-2.4-1.2-3.7c-0.2-1.3-0.4-2.5-0.4-3.8c0.1-1.3,0.3-2.6,0.6-3.9"
   id="path3086" />
	<path
   class="st20"
   d="M398.6,541.2c0.9-2.5,1.3-4.8,1.4-7.2c0.1-1.2,0-2.3-0.2-3.4c-0.1-1.1-0.3-2.2-0.6-3.3   c-0.3-1.1-0.8-2.1-1.2-3.1c-0.5-1-1-2-1.7-3c-0.3-0.5-0.7-0.9-1.1-1.4s-0.8-0.9-1.2-1.4c-0.8-0.9-1.8-1.8-2.9-2.6l-0.6-0.5   c-0.5-0.4-1.1-0.9-1.5-1.3c-0.4-0.5-0.9-1-1.3-1.5c-0.8-1-1.5-2.2-2-3.3c-0.6-1.2-1-2.3-1.2-3.5c-0.3-1.2-0.4-2.4-0.5-3.6   c-0.2-4.8,1.5-9.6,5.1-13.5"
   id="path3088" />
	<path
   class="st20"
   d="M391.6,486.1c7.1-7.8,6.8-19.3-1-26.7l-0.6-0.6c-7.8-7.4-8.2-18.9-1.1-26.7"
   id="path3090" />
	<path
   class="st20"
   d="M391.6,429.4c7.1-7.8,6.8-19.3-1-26.7l-0.6-0.6c-7.8-7.4-8.2-18.9-1.1-26.7"
   id="path3092" />
	<path
   class="st1"
   d="M416.3,448.1c-2.6,0.2-5.2,0.9-7.4,2.3c-1.1,0.7-2.1,1.4-3.1,2.3c-0.9,0.9-1.7,1.9-2.4,3   c-2.9,4.3-3.6,9.8-1.8,14.9l0.3,0.7"
   id="path3094" />
	<path
   class="st1"
   d="M441.3,432.2c-0.4,1.3-0.9,2.5-1.4,3.6c-0.3,0.6-0.6,1.1-0.9,1.6s-0.6,1.1-0.9,1.6c-0.7,1-1.4,1.9-2.2,2.7   c-0.8,0.8-1.6,1.6-2.5,2.2c-0.9,0.7-1.9,1.2-2.8,1.7c-1,0.5-2,1-3.1,1.3c-0.6,0.2-1.1,0.3-1.7,0.4s-1.1,0.3-1.7,0.4   c-1.2,0.2-2.5,0.3-3.8,0.3"
   id="path3096" />
	<path
   class="st1"
   d="M467.1,423.5c-1.1-0.8-2.2-1.4-3.4-1.9c-1.2-0.5-2.4-0.8-3.7-1c-1.3-0.2-2.6-0.3-3.8-0.2   c-1.3,0.1-2.5,0.4-3.8,0.8c-0.6,0.2-1.2,0.4-1.8,0.6c-0.6,0.3-1.2,0.6-1.7,0.9c-1.1,0.7-2.1,1.4-3.1,2.3c-1,0.8-1.8,1.9-2.5,3   s-1.3,2.3-1.8,3.5l-0.3,0.7"
   id="path3098" />
	<path
   class="st1"
   d="M496.7,424.6c-3.7,3.9-8.4,6-13.2,6.1c-2.4,0.1-4.8-0.3-7.1-1.1c-2.1-0.8-4.3-2-6.3-3.7"
   id="path3100" />
	<path
   class="st1"
   d="M524,422.9c-7.8-7.1-19.3-6.7-26.7,1.1l-0.6,0.6"
   id="path3102" />
	<path
   class="st1"
   d="M553.4,424.6c-7.4,7.8-18.9,8.2-26.7,1.1"
   id="path3104" />
	<path
   class="st1"
   d="M580.6,422.9c-7.8-7.1-19.3-6.7-26.7,1.1l-0.6,0.6"
   id="path3106" />
	<path
   class="st1"
   d="M610.1,424.6c-7.4,7.8-18.9,8.2-26.7,1.1"
   id="path3108" />
	<path
   class="st1"
   d="M536.3,450.9c-0.2-2.6-0.9-5.2-2.3-7.4c-0.7-1.1-1.4-2.1-2.3-3.1c-0.9-0.9-1.9-1.7-3-2.4   c-4.3-2.9-9.8-3.6-14.9-1.8l-0.7,0.3"
   id="path3110" />
	<path
   class="st1"
   d="M561,503.2c0.8-1.1,1.4-2.2,1.9-3.4c0.5-1.2,0.8-2.4,1-3.7c0.2-1.3,0.3-2.6,0.2-3.8c-0.1-1.3-0.4-2.5-0.8-3.8   c-0.2-0.6-0.4-1.2-0.6-1.8c-0.3-0.6-0.6-1.2-0.9-1.7c-0.7-1.1-1.4-2.1-2.3-3.1c-0.8-1-1.9-1.8-3-2.5s-2.3-1.3-3.5-1.8l-0.7-0.3l0,0   c-1.3-0.4-2.5-0.9-3.6-1.4c-0.6-0.3-1.1-0.6-1.6-0.9s-1.1-0.6-1.6-0.9c-1-0.7-1.9-1.4-2.7-2.2c-0.8-0.8-1.6-1.6-2.2-2.5   c-0.7-0.9-1.2-1.9-1.7-2.8c-0.5-1-1-2-1.3-3.1c-0.2-0.6-0.3-1.1-0.4-1.7c-0.1-0.6-0.3-1.1-0.4-1.7c-0.2-1.2-0.3-2.5-0.3-3.8"
   id="path3112" />
	<path
   class="st1"
   d="M559.8,532.8c-3.9-3.7-6-8.4-6.1-13.2c-0.1-2.4,0.3-4.8,1.1-7.1c0.8-2.1,2-4.3,3.7-6.3"
   id="path3114" />
	<path
   class="st1"
   d="M561.5,560c7.1-7.8,6.7-19.3-1.1-26.7l-0.6-0.6"
   id="path3116" />
	<path
   class="st1"
   d="M559.8,589.4c-7.8-7.4-8.2-18.9-1.1-26.7"
   id="path3118" />
	<path
   class="st1"
   d="M561.2,616.4c7.1-7.8,6.7-19.3-1.1-26.7l-0.6-0.6"
   id="path3120" />
	<path
   class="st1"
   d="M559.5,645.9c-7.8-7.4-8.2-18.9-1.1-26.7"
   id="path3122" />
	<path
   class="st1"
   d="M533.8,569.8c2.6-0.2,5.2-0.9,7.4-2.3c1.1-0.7,2.1-1.4,3.1-2.3c0.9-0.9,1.7-1.9,2.4-3   c2.9-4.3,3.6-9.8,1.8-14.9l-0.3-0.7"
   id="path3124" />
	<path
   class="st1"
   d="M508.8,586.6c0.4-1.3,0.9-2.5,1.4-3.6c0.3-0.6,0.6-1.1,0.9-1.6s0.6-1.1,0.9-1.6c0.7-1,1.4-1.9,2.2-2.7   s1.6-1.6,2.5-2.2c0.9-0.7,1.9-1.2,2.8-1.7c1-0.5,2-1,3.1-1.3c0.6-0.2,1.1-0.3,1.7-0.4c0.6-0.1,1.1-0.3,1.7-0.4   c1.2-0.2,2.5-0.3,3.8-0.3"
   id="path3126" />
	<path
   class="st1"
   d="M483,595.4c1.1,0.8,2.2,1.4,3.4,1.9c1.2,0.5,2.4,0.8,3.7,1c1.3,0.2,2.6,0.3,3.8,0.2c1.3-0.1,2.5-0.4,3.8-0.8   c0.6-0.2,1.2-0.4,1.8-0.6c0.6-0.3,1.2-0.6,1.7-0.9c1.1-0.7,2.1-1.4,3.1-2.3c1-0.8,1.8-1.9,2.5-3s1.3-2.3,1.8-3.5l0.3-0.7"
   id="path3128" />
	<path
   class="st1"
   d="M453.4,594.2c3.7-3.9,8.4-6,13.2-6.1c2.4-0.1,4.8,0.3,7.1,1.1c2.1,0.8,4.3,2,6.3,3.7"
   id="path3130" />
	<path
   class="st1"
   d="M426.2,595.9c7.8,7.1,19.3,6.7,26.7-1.1l0.6-0.6"
   id="path3132" />
	<path
   class="st1"
   d="M396.7,594.2c7.4-7.8,18.9-8.2,26.7-1.1"
   id="path3134" />
	<path
   class="st1"
   d="M369.5,595.9c7.8,7.1,19.3,6.7,26.7-1.1l0.6-0.6"
   id="path3136" />
	<path
   class="st1"
   d="M414,568.1c0.2,2.6,0.9,5.2,2.3,7.4c0.7,1.1,1.4,2.1,2.3,3.1c0.9,0.9,1.9,1.7,3,2.4c4.3,2.9,9.8,3.6,14.9,1.8   l0.7-0.3"
   id="path3138" />
	<path
   class="st1"
   d="M398.2,543.1c1.3,0.4,2.5,0.9,3.6,1.4c0.6,0.3,1.1,0.6,1.6,0.9c0.5,0.3,1.1,0.6,1.6,0.9c1,0.7,1.9,1.4,2.7,2.2   c0.8,0.8,1.6,1.6,2.2,2.5c0.7,0.9,1.2,1.9,1.7,2.8c0.5,1,1,2,1.3,3.1c0.2,0.6,0.3,1.1,0.4,1.7c0.1,0.6,0.3,1.1,0.4,1.7   c0.2,1.2,0.3,2.5,0.3,3.8"
   id="path3140" />
	<path
   class="st1"
   d="M389.4,517.3c-0.8,1.1-1.4,2.2-1.9,3.4s-0.8,2.4-1,3.7s-0.3,2.6-0.2,3.8c0.1,1.3,0.4,2.5,0.8,3.8   c0.2,0.6,0.4,1.2,0.6,1.8c0.3,0.6,0.6,1.2,0.9,1.7c0.7,1.1,1.4,2.1,2.3,3.1c0.8,1,1.9,1.8,3,2.5s2.3,1.3,3.5,1.8l0.7,0.3"
   id="path3142" />
	<path
   class="st1"
   d="M390.6,487.7c3.9,3.7,6,8.4,6.1,13.2c0.1,2.4-0.3,4.8-1.1,7.1c-0.8,2.1-2,4.3-3.7,6.3"
   id="path3144" />
	<path
   class="st1"
   d="M388.9,460.5c-7.1,7.8-6.7,19.3,1.1,26.7l0.6,0.6"
   id="path3146" />
	<path
   class="st1"
   d="M390.6,431c7.8,7.4,8.2,18.9,1.1,26.7"
   id="path3148" />
	<path
   class="st1"
   d="M388.9,403.8c-7.1,7.8-6.7,19.3,1.1,26.7l0.6,0.6"
   id="path3150" />
	<path
   class="st1"
   d="M390.6,374.3c7.8,7.4,8.2,18.9,1.1,26.7"
   id="path3152" />
</g>
<g
   id="Layer_9"
   class="st0">
	<path
   class="st21"
   d="M721.2,613.6c0,0,11,9.5,25.7,9.5c27.4,0,29.6-24.4,55.6-24.4c17.3,0,26.7,9.9,26.7,9.9"
   id="path3155" />
	<path
   class="st21"
   d="M838,613.6c0,0,10.6,9.5,25.3,9.5c26.7,0,28-29.2,37.7-39.9c13.1-14.6,26.1-17.8,26.1-17.8"
   id="path3157" />
	<path
   class="st21"
   d="M778.2,613.8c0,0,12.1,9.3,26.8,9.3c24.2,0,33.8-24.9,59.9-24.9c14.5,0,22.2,3.8,22.2,3.8"
   id="path3159" />
	<path
   class="st21"
   d="M719.3,610.4c0,0,12.2-11.7,26.1-11.7c16.4,0,27.1,9.7,27.1,9.7"
   id="path3161" />
	<path
   class="st21"
   d="M930.3,564c0,0,6.3,16.9-6.9,30.3c-14.5,14.8-29.1,10.1-29.1,10.1"
   id="path3163" />
	<g
   class="st5"
   id="g3185">
		<g
   id="g3167">
			<path
   class="st22"
   d="M926.7,310.7c-15.3,0-24.1-15.6-24.1-15.6c0.1,0.1,11.7,7.9,24.1,7.9c11.8,0,18.2-5.3,24.9-11     c6.9-5.8,14.6-12.4,28.4-12.4c18,0,27.7,10.2,28.1,10.6l-6.2,4.6c-0.3-0.3-7.5-7.6-21.9-7.6c-10.9,0-16.7,4.9-23.4,10.6     C949.4,303.9,941.4,310.7,926.7,310.7z"
   id="path3165" />
		</g>
		<g
   id="g3171">
			<path
   class="st22"
   d="M1038.3,312.5c-15.1,0-28.7-10.2-29.3-10.6l6.5-4.7c0.1,0.1,10.3,7.6,22.8,7.6c16.9,0,23.2-15.6,28.7-29.3     c1.7-4.3,3.4-8.4,5.2-11.4c9.8-16.1,26.1-16.2,26.9-16.2v7.7c-0.5,0-12.8,0.2-20.3,12.5c-1.5,2.5-3,6.3-4.7,10.3     C1068.3,292.8,1060.4,312.5,1038.3,312.5z"
   id="path3169" />
		</g>
		<g
   id="g3175">
			<path
   class="st22"
   d="M982.3,310.7c-15,0-27.5-8.7-27.9-9.2l5.7-5.1c0,0.3,9.6,6.6,22.2,6.6c10.1,0,17.5-5.3,25.3-10.9     c8.5-6.1,18.1-13,32-13c14.6,0,22.9,3.6,23.2,3.7l-3.3,6.9c0,0-7.3-3-19.9-3c-11.5,0-19.3,5.6-27.5,11.5     C1003.6,304.4,994.9,310.7,982.3,310.7z"
   id="path3173" />
		</g>
		<g
   id="g3179">
			<path
   class="st22"
   d="M902.6,295.1c0,0,8.3-15.4,22.7-15.4c17.2,0,25.8,9.4,26.2,9.8l-5.7,5.1c-0.3-0.2-6.9-7.2-20.5-7.2     C913.4,287.3,902.7,295,902.6,295.1z"
   id="path3177" />
		</g>
		<g
   id="g3183">
			<path
   class="st22"
   d="M1076,294.2c-4.2,0-6.8-0.8-7-0.9l3-7c0.3,0.1,9.5,3.3,21.9-8.1c0.8-0.7,4.5-5.1,8-10.8l4.1,7.2     c-3.7,6-5.8,8.3-6.9,9.3C1089.8,292.3,1081.5,294.2,1076,294.2z"
   id="path3181" />
		</g>
	</g>
	<g
   class="st5"
   id="g3207">
		<g
   id="g3189">
			<path
   class="st22"
   d="M1131.6,304.7c0,15.3-15.6,24.1-15.6,24.1c0.1-0.1,7.9-11.7,7.9-24.1c0-11.8-5.3-18.2-11-24.9     c-5.8-6.9-12.4-14.6-12.4-28.4c0-18,10.2-27.7,10.6-28.1l4.6,6.2c-0.3,0.3-7.6,7.5-7.6,21.9c0,10.9,4.9,16.7,10.6,23.4     C1124.8,282,1131.6,290.1,1131.6,304.7z"
   id="path3187" />
		</g>
		<g
   id="g3193">
			<path
   class="st22"
   d="M1133.4,193.1c0,15.1-10.2,28.7-10.6,29.3l-4.7-6.5c0.1-0.1,7.6-10.3,7.6-22.8c0-16.9-15.6-23.2-29.3-28.7     c-4.3-1.7-8.4-3.4-11.4-5.2c-16.1-9.8-16.2-26.1-16.2-26.9h7.7c0,0.5,0.2,12.8,12.5,20.3c2.5,1.5,6.3,3,10.3,4.7     C1113.7,163.1,1133.4,171,1133.4,193.1z"
   id="path3191" />
		</g>
		<g
   id="g3197">
			<path
   class="st22"
   d="M1131.6,249.2c0,15-8.7,27.5-9.2,27.9l-5.1-5.7c0.3,0,6.6-9.6,6.6-22.2c0-10.1-5.3-17.5-10.9-25.3     c-6.1-8.5-13-18.1-13-32c0-14.6,3.6-22.9,3.7-23.2l6.9,3.3c0,0-3,7.3-3,19.9c0,11.5,5.6,19.3,11.5,27.5     C1125.3,227.9,1131.6,236.6,1131.6,249.2z"
   id="path3195" />
		</g>
		<g
   id="g3201">
			<path
   class="st22"
   d="M1116,328.8c0,0-15.4-8.3-15.4-22.7c0-17.2,9.4-25.8,9.8-26.2l5.1,5.7c-0.2,0.3-7.2,6.9-7.2,20.5     C1108.2,318.1,1115.9,328.7,1116,328.8z"
   id="path3199" />
		</g>
		<g
   id="g3205">
			<path
   class="st22"
   d="M1115,155.5c0,4.2-0.8,6.8-0.9,7l-7-3c0.1-0.3,3.3-9.5-8.1-21.9c-0.7-0.8-5.1-4.5-10.8-8l7.2-4.1     c6,3.7,8.3,5.8,9.3,6.9C1113.2,141.6,1115,149.9,1115,155.5z"
   id="path3203" />
		</g>
	</g>
	<g
   class="st5"
   id="g3229">
		<g
   id="g3211">
			<path
   class="st22"
   d="M1125.6,99.9c15.3,0,24.1,15.6,24.1,15.6c-0.1-0.1-11.7-7.9-24.1-7.9c-11.8,0-18.2,5.3-24.9,11     c-6.9,5.8-14.6,12.4-28.4,12.4c-18,0-27.7-10.2-28.1-10.6l6.2-4.6c0.3,0.3,7.5,7.6,21.9,7.6c10.9,0,16.7-4.9,23.4-10.6     C1102.9,106.7,1111,99.9,1125.6,99.9z"
   id="path3209" />
		</g>
		<g
   id="g3215">
			<path
   class="st22"
   d="M1014,98.1c15.1,0,28.7,10.2,29.3,10.6l-6.5,4.7c-0.1-0.1-10.3-7.6-22.8-7.6c-16.9,0-23.2,15.6-28.7,29.3     c-1.7,4.3-3.4,8.4-5.2,11.4c-9.8,16.1-26.1,16.2-26.9,16.2V155c0.5,0,12.8-0.2,20.3-12.5c1.5-2.5,3-6.3,4.7-10.3     C984,117.8,991.9,98.1,1014,98.1z"
   id="path3213" />
		</g>
		<g
   id="g3219">
			<path
   class="st22"
   d="M1070.1,99.9c15,0,27.5,8.7,27.9,9.2l-5.7,5.1c0-0.3-9.6-6.6-22.2-6.6c-10.1,0-17.5,5.3-25.3,10.9     c-8.5,6.1-18.1,13-32,13c-14.6,0-22.9-3.6-23.2-3.7l3.3-6.9c0,0,7.3,3,19.9,3c11.5,0,19.3-5.6,27.5-11.5     C1048.7,106.2,1057.5,99.9,1070.1,99.9z"
   id="path3217" />
		</g>
		<g
   id="g3223">
			<path
   class="st22"
   d="M1149.7,115.5c0,0-8.3,15.4-22.7,15.4c-17.2,0-25.8-9.4-26.2-9.8l5.7-5.1c0.3,0.2,6.9,7.2,20.5,7.2     C1139,123.2,1149.6,115.5,1149.7,115.5z"
   id="path3221" />
		</g>
		<g
   id="g3227">
			<path
   class="st22"
   d="M976.3,116.4c4.2,0,6.8,0.8,7,0.9l-3,7c-0.3-0.1-9.5-3.3-21.9,8.1c-0.8,0.7-4.5,5.1-8,10.8l-4.1-7.2     c3.7-6,5.8-8.3,6.9-9.3C962.5,118.3,970.8,116.4,976.3,116.4z"
   id="path3225" />
		</g>
	</g>
	<g
   class="st5"
   id="g3251">
		<g
   id="g3233">
			<path
   class="st22"
   d="M920.8,105.9c0-15.3,15.6-24.1,15.6-24.1c-0.1,0.1-7.9,11.7-7.9,24.1c0,11.8,5.3,18.2,11,24.9     c5.8,6.9,12.4,14.6,12.4,28.4c0,18-10.2,27.7-10.6,28.1l-4.6-6.2c0.3-0.3,7.6-7.5,7.6-21.9c0-10.9-4.9-16.7-10.6-23.4     C927.6,128.5,920.8,120.5,920.8,105.9z"
   id="path3231" />
		</g>
		<g
   id="g3237">
			<path
   class="st22"
   d="M919,217.4c0-15.1,10.2-28.7,10.6-29.3l4.7,6.5c-0.1,0.1-7.6,10.3-7.6,22.8c0,16.9,15.6,23.2,29.3,28.7     c4.3,1.7,8.4,3.4,11.4,5.2c16.1,9.8,16.2,26.1,16.2,26.9h-7.7c0-0.5-0.2-12.8-12.5-20.3c-2.5-1.5-6.3-3-10.3-4.7     C938.7,247.4,919,239.5,919,217.4z"
   id="path3235" />
		</g>
		<g
   id="g3241">
			<path
   class="st22"
   d="M920.8,161.4c0-15,8.7-27.5,9.2-27.9l5.1,5.7c-0.3,0-6.6,9.6-6.6,22.2c0,10.1,5.3,17.5,10.9,25.3     c6.1,8.5,13,18.1,13,32c0,14.6-3.6,22.9-3.7,23.2l-6.9-3.3c0,0,3-7.3,3-19.9c0-11.5-5.6-19.3-11.5-27.5     C927,182.7,920.8,174,920.8,161.4z"
   id="path3239" />
		</g>
		<g
   id="g3245">
			<path
   class="st22"
   d="M936.3,81.7c0,0,15.4,8.3,15.4,22.7c0,17.2-9.4,25.8-9.8,26.2l-5.1-5.7c0.2-0.3,7.2-6.9,7.2-20.5     C944.1,92.5,936.4,81.8,936.3,81.7z"
   id="path3243" />
		</g>
		<g
   id="g3249">
			<path
   class="st22"
   d="M937.3,255.1c0-4.2,0.8-6.8,0.9-7l7,3c-0.1,0.3-3.3,9.5,8.1,21.9c0.7,0.8,5.1,4.5,10.8,8l-7.1,4     c-6-3.7-8.3-5.8-9.3-6.9C939.2,269,937.3,260.7,937.3,255.1z"
   id="path3247" />
		</g>
	</g>
	<g
   class="st5"
   id="g3341">
		<g
   id="g3273">
			<g
   id="g3255">
				<path
   class="st22"
   d="M591.4,398.7c-13.5,3-24.4-9.1-24.4-9.1c0.1,0.1,11.9,4.7,22.9,2.3c10.5-2.3,15-8.3,19.9-14.6      c4.9-6.5,10.6-13.8,22.7-16.5c16-3.5,26.6,3.6,27,3.9l-4.6,5.3c-0.3-0.2-8.1-5.3-20.9-2.4c-9.7,2.1-13.8,7.6-18.7,13.9      C610.1,388.3,604.3,395.9,591.4,398.7z"
   id="path3253" />
			</g>
			<g
   id="g3259">
				<path
   class="st22"
   d="M690.5,378.5c-13.4,3-27.4-3.4-28-3.6l4.8-5.4c0.1,0,10.6,4.7,21.7,2.3c15-3.3,17.5-18.3,19.7-31.6      c0.7-4.2,1.3-8.1,2.4-11.2c5.5-16.2,20-19.5,20.6-19.6l1.5,6.8c-0.4,0.1-11.3,2.7-15.5,15.1c-0.9,2.5-1.5,6.2-2.1,10      C713.3,355.2,710.1,374.2,690.5,378.5z"
   id="path3257" />
			</g>
			<g
   id="g3263">
				<path
   class="st22"
   d="M640.5,387.9c-13.3,2.9-26.1-2.3-26.5-2.7l4.1-5.6c0.1,0.2,9.8,4,21,1.5c9-2,14.5-8.1,20.3-14.6      c6.3-7,13.5-15,25.8-17.7c12.9-2.8,21-1.3,21.3-1.2l-1.6,6.8c0,0-7-1.2-18.2,1.3c-10.1,2.2-16,8.7-22.1,15.6      C658.2,378.2,651.7,385.4,640.5,387.9z"
   id="path3261" />
			</g>
			<g
   id="g3267">
				<path
   class="st22"
   d="M567,389.7c0,0,4.3-15.3,17.1-18.1c15.2-3.4,24.7,3.3,25.1,3.5l-4.1,5.6c-0.3-0.2-7.5-5-19.5-2.4      C575,380.7,567,389.6,567,389.7z"
   id="path3265" />
			</g>
			<g
   id="g3271">
				<path
   class="st22"
   d="M720.3,354.9c-3.7,0.8-6.2,0.6-6.4,0.6l1.3-6.8c0.3,0.1,9.1,1.1,17.8-11.4c0.6-0.8,3-5.4,5-11.1l5,5.5      c-2.1,6-3.5,8.5-4.3,9.6C732.2,350.5,725.2,353.8,720.3,354.9z"
   id="path3269" />
			</g>
		</g>
		<g
   id="g3295">
			<g
   id="g3277">
				<path
   class="st22"
   d="M771.6,353.4c3,13.5-9.1,24.4-9.1,24.4c0.1-0.1,4.7-11.9,2.3-22.9c-2.3-10.5-8.3-15-14.6-19.9      c-6.5-4.9-13.8-10.6-16.5-22.7c-3.5-16,3.6-26.6,3.9-27l5.3,4.6c-0.2,0.3-5.3,8.1-2.4,20.9c2.1,9.7,7.6,13.8,13.9,18.7      C761.1,334.6,768.7,340.4,771.6,353.4z"
   id="path3275" />
			</g>
			<g
   id="g3281">
				<path
   class="st22"
   d="M751.4,254.2c3,13.4-3.4,27.4-3.6,28l-5.4-4.8c0-0.1,4.7-10.6,2.3-21.7c-3.3-15-18.3-17.5-31.6-19.7      c-4.2-0.7-8.1-1.3-11.2-2.4c-16.2-5.5-19.5-20-19.6-20.6l6.8-1.5c0.1,0.4,2.7,11.3,15.1,15.5c2.5,0.9,6.2,1.5,10,2.1      C728,231.5,747.1,234.6,751.4,254.2z"
   id="path3279" />
			</g>
			<g
   id="g3285">
				<path
   class="st22"
   d="M760.7,304.2c2.9,13.3-2.3,26.1-2.7,26.5l-5.6-4.1c0.2-0.1,4-9.8,1.5-21c-2-9-8.1-14.5-14.6-20.3      c-7-6.3-15-13.5-17.7-25.8c-2.8-12.9-1.3-21-1.2-21.3l6.8,1.6c0,0-1.2,7,1.3,18.2c2.2,10.1,8.7,16,15.6,22.1      C751,286.5,758.3,293,760.7,304.2z"
   id="path3283" />
			</g>
			<g
   id="g3289">
				<path
   class="st22"
   d="M762.5,377.8c0,0-15.3-4.3-18.1-17.1c-3.4-15.2,3.3-24.7,3.5-25.1l5.6,4.1c-0.2,0.3-5,7.5-2.4,19.5      C753.5,369.8,762.4,377.7,762.5,377.8z"
   id="path3287" />
			</g>
			<g
   id="g3293">
				<path
   class="st22"
   d="M727.8,224.4c0.8,3.7,0.6,6.2,0.5,6.4l-6.8-1.3c0.1-0.3,1.1-9.1-11.4-17.8c-0.8-0.6-5.4-3-11.1-5l5.5-5      c6,2.1,8.5,3.5,9.6,4.3C723.4,212.5,726.7,219.5,727.8,224.4z"
   id="path3291" />
			</g>
		</g>
		<g
   id="g3317">
			<g
   id="g3299">
				<path
   class="st22"
   d="M726.3,173.1c13.5-3,24.4,9.1,24.4,9.1c-0.1-0.1-11.9-4.7-22.9-2.3c-10.5,2.3-15,8.3-19.9,14.6      c-4.9,6.5-10.6,13.8-22.7,16.5c-16,3.5-26.6-3.6-27-3.9l4.6-5.3c0.3,0.2,8.1,5.3,20.9,2.4c9.7-2.1,13.8-7.6,18.7-13.9      C707.5,183.6,713.3,176,726.3,173.1z"
   id="path3297" />
			</g>
			<g
   id="g3303">
				<path
   class="st22"
   d="M627.1,193.4c13.4-3,27.4,3.4,28,3.6l-4.8,5.4c-0.1,0-10.6-4.7-21.7-2.3c-15,3.3-17.5,18.3-19.7,31.6      c-0.7,4.2-1.3,8.1-2.4,11.2c-5.5,16.2-20,19.5-20.6,19.6l-1.5-6.8c0.4-0.1,11.3-2.7,15.5-15.1c0.9-2.5,1.5-6.2,2.1-10      C604.4,216.7,607.5,197.7,627.1,193.4z"
   id="path3301" />
			</g>
			<g
   id="g3307">
				<path
   class="st22"
   d="M677.1,184c13.3-2.9,26.1,2.3,26.5,2.7l-4.1,5.6c-0.1-0.2-9.8-4-21-1.5c-9,2-14.5,8.1-20.3,14.6      c-6.3,7-13.5,15-25.8,17.7c-12.9,2.8-21,1.3-21.3,1.2l1.6-6.8c0,0,7,1.2,18.2-1.3c10.1-2.2,16-8.7,22.1-15.6      C659.4,193.7,665.9,186.5,677.1,184z"
   id="path3305" />
			</g>
			<g
   id="g3311">
				<path
   class="st22"
   d="M750.7,182.2c0,0-4.3,15.3-17.1,18.1c-15.2,3.4-24.7-3.3-25.1-3.5l4.1-5.6c0.3,0.2,7.5,5,19.5,2.4      C742.7,191.2,750.6,182.3,750.7,182.2z"
   id="path3309" />
			</g>
			<g
   id="g3315">
				<path
   class="st22"
   d="M597.3,217c3.7-0.8,6.2-0.6,6.4-0.6l-1.3,6.8c-0.3-0.1-9.1-1.1-17.8,11.4c-0.6,0.8-3,5.4-5,11.1l-5-5.5      c2.1-6,3.5-8.5,4.3-9.6C585.4,221.4,592.4,218.1,597.3,217z"
   id="path3313" />
			</g>
		</g>
		<g
   id="g3339">
			<g
   id="g3321">
				<path
   class="st22"
   d="M546,218.5c-3-13.5,9.1-24.4,9.1-24.4c-0.1,0.1-4.7,11.9-2.3,22.9c2.3,10.5,8.3,15,14.6,19.9      c6.5,4.9,13.8,10.6,16.5,22.7c3.5,16-3.6,26.6-3.9,27l-5.3-4.6c0.2-0.3,5.3-8.1,2.4-20.9c-2.1-9.7-7.6-13.8-13.9-18.7      C556.5,237.3,548.9,231.5,546,218.5z"
   id="path3319" />
			</g>
			<g
   id="g3325">
				<path
   class="st22"
   d="M566.2,317.7c-3-13.4,3.4-27.4,3.6-28l5.4,4.8c0,0.1-4.7,10.6-2.3,21.7c3.3,15,18.3,17.5,31.6,19.7      c4.2,0.7,8.1,1.3,11.2,2.4c16.2,5.5,19.5,20,19.6,20.6l-6.8,1.5c-0.1-0.4-2.7-11.3-15.1-15.5c-2.5-0.9-6.2-1.5-10-2.1      C589.6,340.4,570.6,337.3,566.2,317.7z"
   id="path3323" />
			</g>
			<g
   id="g3329">
				<path
   class="st22"
   d="M556.9,267.7c-2.9-13.3,2.3-26.1,2.7-26.5l5.6,4.1c-0.2,0.1-4,9.8-1.5,21c2,9,8.1,14.5,14.6,20.3      c7,6.3,15,13.5,17.7,25.8c2.8,12.9,1.3,21,1.2,21.3l-6.8-1.6c0,0,1.2-7-1.3-18.2c-2.2-10.1-8.7-16-15.6-22.1      C566.6,285.3,559.3,278.8,556.9,267.7z"
   id="path3327" />
			</g>
			<g
   id="g3333">
				<path
   class="st22"
   d="M555.1,194.1c0,0,15.3,4.3,18.1,17.1c3.4,15.2-3.3,24.7-3.5,25.1l-5.6-4.1c0.2-0.3,5-7.5,2.4-19.5      C564.1,202.1,555.2,194.2,555.1,194.1z"
   id="path3331" />
			</g>
			<g
   id="g3337">
				<path
   class="st22"
   d="M589.8,347.5c-0.8-3.7-0.6-6.2-0.5-6.4l6.8,1.3c-0.1,0.3-1.1,9.1,11.4,17.8c0.8,0.6,5.4,3,11.1,5l-5.5,5      c-6-2.1-8.5-3.5-9.6-4.3C594.2,359.3,590.9,352.4,589.8,347.5z"
   id="path3335" />
			</g>
		</g>
	</g>
	<g
   class="st5"
   id="g3363">
		<g
   id="g3345">
			<path
   class="st22"
   d="M324.8,404.4c-14.8,3.7-28.1-3-28.6-3.3l3.5-6.8c0.1,0.1,11.3,5.6,23.3,2.6c11.5-2.8,16.4-9.5,21.5-16.6     c5.3-7.3,11.3-15.5,24.6-18.8c17.5-4.3,29.4,3.2,29.8,3.6l-4.9,6c-0.3-0.2-9.1-5.6-23.1-2.1c-10.6,2.6-15.1,8.7-20.2,15.8     C345.2,392.4,339,401,324.8,404.4z"
   id="path3343" />
		</g>
		<g
   id="g3349">
			<path
   class="st22"
   d="M433.6,379.6c-14.7,3.6-30.3-3-30.9-3.3l5.1-6.1c0.1,0,11.8,4.9,24,1.9c16.4-4,18.8-20.7,20.8-35.3     c0.6-4.6,1.3-8.9,2.3-12.4c5.6-18,21.5-22,22.2-22.2l1.8,7.4c-0.5,0.1-12.4,3.3-16.7,17c-0.9,2.8-1.5,6.9-2.1,11.1     C458,353.2,455,374.3,433.6,379.6z"
   id="path3347" />
		</g>
		<g
   id="g3353">
			<path
   class="st22"
   d="M378.7,391.2c-14.6,3.6-28.8-1.8-29.3-2.2l4.3-6.3c0.1,0.2,10.9,4.1,23.1,1.1c9.9-2.4,15.7-9.3,22-16.6     c6.8-7.9,14.4-16.9,27.9-20.2c14.1-3.5,23.1-2,23.4-1.9l-1.5,7.5c-0.1,0-7.8-1.2-20.1,1.9c-11.1,2.7-17.4,10-24,17.8     C397.9,380,390.9,388.2,378.7,391.2z"
   id="path3351" />
		</g>
		<g
   id="g3357">
			<path
   class="st22"
   d="M297.6,395.1l-5.9-4.9c0.4-0.5,10.2-12,24.3-15.5c16.7-4.1,27.3,3,27.7,3.2l-4.3,6.3     c-0.3-0.2-8.4-5.4-21.6-2.1C306.2,385,297.7,395,297.6,395.1z"
   id="path3355" />
		</g>
		<g
   id="g3361">
			<path
   class="st22"
   d="M465.8,352.7c-4.1,1-6.8,0.8-7.1,0.8l1.3-7.5c0.4,0,10.1,1,19.3-13.1c0.6-0.9,3.2-6.1,3.6-7l3.3,10.5     c-0.6,1.3,0.3-0.5-0.5,0.7C478.7,347.6,471.1,351.4,465.8,352.7z"
   id="path3359" />
		</g>
	</g>
	<g
   class="st5"
   id="g3385">
		<g
   id="g3367">
			<path
   class="st22"
   d="M527.7,370.6c3.7,14.8-3,28.1-3.3,28.6l-6.8-3.5c0.1-0.1,5.6-11.3,2.6-23.3c-2.8-11.5-9.5-16.4-16.6-21.5     c-7.3-5.3-15.5-11.3-18.8-24.6c-4.3-17.5,3.2-29.4,3.6-29.8l6,4.9c-0.2,0.3-5.6,9.1-2.1,23.1c2.6,10.6,8.7,15.1,15.8,20.2     C515.7,350.2,524.2,356.3,527.7,370.6z"
   id="path3365" />
		</g>
		<g
   id="g3371">
			<path
   class="st22"
   d="M502.9,261.8c3.6,14.7-3,30.3-3.3,30.9l-6.1-5.1c0-0.1,4.9-11.8,1.9-24c-4-16.4-20.7-18.8-35.3-20.8     c-4.6-0.6-8.9-1.3-12.4-2.3c-18-5.6-22-21.5-22.2-22.2l7.4-1.8c0.1,0.5,3.3,12.4,17,16.7c2.8,0.9,6.9,1.5,11.1,2.1     C476.5,237.4,497.6,240.3,502.9,261.8z"
   id="path3369" />
		</g>
		<g
   id="g3375">
			<path
   class="st22"
   d="M514.5,316.6c3.6,14.6-1.8,28.8-2.2,29.3l-6.3-4.3c0.2-0.1,4.1-10.9,1.1-23.1c-2.4-9.9-9.3-15.7-16.6-22     c-7.9-6.8-16.9-14.4-20.2-27.9c-3.5-14.1-2-23.1-1.9-23.4l7.5,1.5c0,0.1-1.2,7.8,1.9,20.1c2.7,11.1,10,17.4,17.8,24     C503.3,297.4,511.5,304.4,514.5,316.6z"
   id="path3373" />
		</g>
		<g
   id="g3379">
			<path
   class="st22"
   d="M518.4,397.7l-4.9,5.9c-0.5-0.4-12-10.2-15.5-24.3c-4.1-16.7,3-27.3,3.2-27.7l6.3,4.3     c-0.2,0.3-5.4,8.4-2.1,21.6C508.3,389.1,518.3,397.6,518.4,397.7z"
   id="path3377" />
		</g>
		<g
   id="g3383">
			<path
   class="st22"
   d="M476,229.6c1,4.1,0.8,6.8,0.8,7.1l-7.5-1.3c0-0.4,1-10.1-13.1-19.3c-0.9-0.6-6.1-3.2-7-3.6l10.5-3.3     c1.3,0.6-0.5-0.3,0.7,0.5C470.9,216.6,474.7,224.2,476,229.6z"
   id="path3381" />
		</g>
	</g>
	<g
   class="st5"
   id="g3407">
		<g
   id="g3389">
			<path
   class="st22"
   d="M493.9,167.6c14.8-3.7,28.1,3,28.6,3.3l-3.5,6.8c-0.1-0.1-11.3-5.6-23.3-2.6c-11.5,2.8-16.4,9.5-21.5,16.6     c-5.3,7.3-11.3,15.5-24.6,18.8c-17.5,4.3-29.4-3.2-29.8-3.6l4.9-6c0.3,0.2,9.1,5.6,23.1,2.1c10.6-2.6,15.1-8.7,20.2-15.8     C473.5,179.6,479.6,171.1,493.9,167.6z"
   id="path3387" />
		</g>
		<g
   id="g3393">
			<path
   class="st22"
   d="M385.1,192.5c14.7-3.6,30.3,3,30.9,3.3l-5.1,6.1c-0.1,0-11.8-4.9-24-1.9c-16.4,4-18.8,20.7-20.8,35.3     c-0.6,4.6-1.3,8.9-2.3,12.4c-5.6,18-21.5,22-22.2,22.2l-1.8-7.4c0.5-0.1,12.4-3.3,16.7-17c0.9-2.8,1.5-6.9,2.1-11.1     C360.7,218.8,363.6,197.8,385.1,192.5z"
   id="path3391" />
		</g>
		<g
   id="g3397">
			<path
   class="st22"
   d="M439.9,180.9c14.6-3.6,28.8,1.8,29.3,2.2l-4.3,6.3c-0.1-0.2-10.9-4.1-23.1-1.1c-9.9,2.4-15.7,9.3-22,16.6     c-6.8,7.9-14.4,16.9-27.9,20.2c-14.1,3.5-23.1,2-23.4,1.9l1.5-7.5c0.1,0,7.8,1.2,20.1-1.9c11.1-2.7,17.4-10,24-17.8     C420.7,192,427.7,183.9,439.9,180.9z"
   id="path3395" />
		</g>
		<g
   id="g3401">
			<path
   class="st22"
   d="M521,176.9l5.9,4.9c-0.4,0.5-10.2,12-24.3,15.5c-16.7,4.1-27.3-3-27.7-3.2l4.3-6.3     c0.3,0.2,8.4,5.4,21.6,2.1C512.4,187.1,520.9,177,521,176.9z"
   id="path3399" />
		</g>
		<g
   id="g3405">
			<path
   class="st22"
   d="M352.9,219.3c4.1-1,6.8-0.8,7.1-0.8l-1.3,7.5c-0.4,0-10.1-1-19.3,13.1c-0.6,0.9-3.2,6.1-3.6,7l-3.3-10.5     c0.6-1.3-0.3,0.5,0.5-0.7C339.9,224.4,347.5,220.6,352.9,219.3z"
   id="path3403" />
		</g>
	</g>
	<g
   class="st5"
   id="g3429">
		<g
   id="g3411">
			<path
   class="st22"
   d="M290.9,201.5c-3.7-14.8,3-28.1,3.3-28.6l6.8,3.5c-0.1,0.1-5.6,11.3-2.6,23.3c2.8,11.5,9.5,16.4,16.6,21.5     c7.3,5.3,15.5,11.3,18.8,24.6c4.3,17.5-3.2,29.4-3.6,29.8l-6-4.9c0.2-0.3,5.6-9.1,2.1-23.1c-2.6-10.6-8.7-15.1-15.8-20.2     C302.9,221.9,294.4,215.7,290.9,201.5z"
   id="path3409" />
		</g>
		<g
   id="g3415">
			<path
   class="st22"
   d="M315.8,310.3c-3.6-14.7,3-30.3,3.3-30.9l6.1,5.1c0,0.1-4.9,11.8-1.9,24c4,16.4,20.7,18.8,35.3,20.8     c4.6,0.6,8.9,1.3,12.4,2.3c18,5.6,22,21.5,22.2,22.2l-7.4,1.8c-0.1-0.5-3.3-12.4-17-16.7c-2.8-0.9-6.9-1.5-11.1-2.1     C342.1,334.7,321.1,331.7,315.8,310.3z"
   id="path3413" />
		</g>
		<g
   id="g3419">
			<path
   class="st22"
   d="M304.2,255.4c-3.6-14.6,1.8-28.8,2.2-29.3l6.3,4.3c-0.2,0.1-4.1,10.9-1.1,23.1c2.4,9.9,9.3,15.7,16.6,22     c7.9,6.8,16.9,14.4,20.2,27.9c3.5,14.1,2,23.1,1.9,23.4l-7.5-1.5c0-0.1,1.2-7.8-1.9-20.1c-2.7-11.1-10-17.4-17.8-24     C315.3,274.6,307.2,267.6,304.2,255.4z"
   id="path3417" />
		</g>
		<g
   id="g3423">
			<path
   class="st22"
   d="M300.2,174.3l4.9-5.9c0.5,0.4,12,10.2,15.5,24.3c4.1,16.7-3,27.3-3.2,27.7l-6.3-4.3     c0.2-0.3,5.4-8.4,2.1-21.6C310.4,182.9,300.3,174.4,300.2,174.3z"
   id="path3421" />
		</g>
		<g
   id="g3427">
			<path
   class="st22"
   d="M342.6,342.5c-1-4.1-0.8-6.8-0.8-7.1l7.5,1.3c0,0.4-1,10.1,13.1,19.3c0.9,0.6,6.1,3.2,7,3.6l-10.5,3.3     c-1.3-0.6,0.5,0.3-0.7-0.5C347.7,355.4,343.9,347.8,342.6,342.5z"
   id="path3425" />
		</g>
	</g>
	<g
   class="st5"
   id="g3441">
		<path
   class="st23"
   d="M714.5,541.1c0,0,11,9.5,25.7,9.5c27.4,0,29.6-24.4,55.6-24.4c17.3,0,25.7,9.7,25.7,9.7"
   id="path3431" />
		<path
   class="st23"
   d="M829.7,543.1c0,0,12.5,9.4,27.2,9.4c26.7,0,31.4-32.2,38.9-44.5c9.2-15.1,24.7-15,24.7-15"
   id="path3433" />
		<path
   class="st23"
   d="M772.2,542.9c0,0,11.4,7.7,26.1,7.7c24.2,0,33.8-24.9,59.9-24.9c14.5,0,22.1,3.6,22.1,3.6"
   id="path3435" />
		<path
   class="st23"
   d="M712.6,535.1c0,0,12.2-8.9,26.1-8.9c16.4,0,24.3,8.9,24.3,8.9"
   id="path3437" />
		<path
   class="st23"
   d="M920.4,520.6c-0.8,1-1.7,2-2.7,2.9c-15.2,14.1-27.2,8.9-27.2,8.9"
   id="path3439" />
	</g>
</g>
<g
   id="Layer_3"
   class="st0">
	<g
   class="st5"
   id="g3456">
		<circle
   class="st24"
   cx="271.7"
   cy="170.2"
   r="76.7"
   id="circle3444" />
		<circle
   class="st13"
   cx="271.7"
   cy="170.2"
   r="93.3"
   id="circle3446" />
		<polygon
   class="st13"
   points="347.7,186.7 365,170.2 365,304.7 347.7,304.7   "
   id="polygon3448" />
		<polygon
   class="st13"
   points="288.1,94.2 271.7,76.9 409.1,76.9 409.1,94.2   "
   id="polygon3450" />
		<polygon
   class="st13"
   points="195.6,153.7 178.3,170.2 178.3,35.7 195.6,35.7   "
   id="polygon3452" />
		<polygon
   class="st13"
   points="255.2,246.2 271.7,263.5 134.2,263.5 134.2,246.2   "
   id="polygon3454" />
	</g>
	<path
   class="st25"
   d="M918.6,185.2h71.2v-17.3H852.3c-27.1,0-51.5,11.5-68.5,30c-2.7,2.9-7.5,1-7.5-2.9v-68.3H759v134.5   c0,27.1,11.5,51.5,30,68.5c2.9,2.7,1,7.5-2.9,7.5h-71.2v17.3h137.4c27.1,0,51.5-11.5,68.5-30c2.7-2.9,7.5-1,7.5,2.9v68.3h17.3   V261.2c0-27.1-11.5-51.5-30-68.5C912.8,190,914.6,185.2,918.6,185.2z M929.1,261.2c0,42.4-34.3,76.7-76.7,76.7   s-76.7-34.3-76.7-76.7s34.3-76.7,76.7-76.7C894.7,184.5,929.1,218.8,929.1,261.2z"
   id="path3458" />
	<path
   class="st25"
   d="M-108.8,624l69.7-14.7l-3.6-16.9l-134.5,28.3c-26.5,5.6-48,21.9-60.9,43.5c-2,3.4-7.1,2.6-7.9-1.3l-14.1-66.8   l-16.9,3.6l27.7,131.6c5.6,26.5,21.9,48,43.5,60.9c3.4,2,2.6,7.1-1.3,7.9l-69.7,14.7l3.6,16.9l134.5-28.3   c26.5-5.6,48-21.9,60.9-43.5c2-3.4,7.1-2.6,7.9,1.3l14.1,66.8l16.9-3.6l-27.7-131.6c-5.6-26.5-21.9-48-43.5-60.9   C-113.5,629.9-112.7,624.8-108.8,624z M-82.9,696.2c8.7,41.5-17.8,82.1-59.3,90.9c-41.5,8.7-82.1-17.8-90.9-59.3   c-8.7-41.5,17.8-82.1,59.3-90.9C-132.3,628.2-91.6,654.7-82.9,696.2z"
   id="path3460" />
	<path
   class="st25"
   d="M-109.1,408.8l69.7-14.7l-3.6-16.9l-134.5,28.3c-26.5,5.6-48,21.9-60.9,43.5c-2,3.4-7.1,2.6-7.9-1.3   l-14.1-66.8l-16.9,3.6l27.7,131.6c5.6,26.5,21.9,48,43.5,60.9c3.4,2,2.6,7.1-1.3,7.9l-69.7,14.7l3.6,16.9l134.5-28.3   c26.5-5.6,48-21.9,60.9-43.5c2-3.4,7.1-2.6,7.9,1.3l14.1,66.8l16.9-3.6l-27.7-131.6c-5.6-26.5-21.9-48-43.5-60.9   C-113.8,414.7-112.9,409.7-109.1,408.8z M-83.2,481.1c8.7,41.5-17.8,82.1-59.3,90.9c-41.5,8.7-82.1-17.8-90.9-59.3   c-8.7-41.5,17.8-82.1,59.3-90.9C-132.6,413.1-91.9,439.6-83.2,481.1z"
   id="path3462" />
	<path
   class="st25"
   d="M108.5,620.4l69.7-14.7l-3.6-16.9L40.1,617.1c-26.5,5.6-48,21.9-60.9,43.5c-2,3.4-7.1,2.6-7.9-1.3l-14.1-66.8   l-16.9,3.6L-32,727.6c5.6,26.5,21.9,48,43.5,60.9c3.4,2,2.6,7.1-1.3,7.9l-69.7,14.7l3.6,16.9l134.5-28.3   c26.5-5.6,48-21.9,60.9-43.5c2-3.4,7.1-2.6,7.9,1.3l14.1,66.8l16.9-3.6l-27.7-131.6c-5.6-26.5-21.9-48-43.5-60.9   C103.8,626.2,104.6,621.2,108.5,620.4z M134.4,692.6c8.7,41.5-17.8,82.1-59.3,90.9c-41.5,8.7-82.1-17.8-90.9-59.3   c-8.7-41.5,17.8-82.1,59.3-90.9C85,624.6,125.7,651.1,134.4,692.6z"
   id="path3464" />
	<path
   class="st25"
   d="M108.3,405.3l69.7-14.7l-3.6-16.9L39.9,402c-26.5,5.6-48,21.9-60.9,43.5c-2,3.4-7.1,2.6-7.9-1.3L-43,377.3   l-16.9,3.6l27.7,131.6c5.6,26.5,21.9,48,43.5,60.9c3.4,2,2.6,7.1-1.3,7.9L-59.7,596l3.6,16.9l134.5-28.3   c26.5-5.6,48-21.9,60.9-43.5c2-3.4,7.1-2.6,7.9,1.3l14.1,66.8l16.9-3.6L150.5,474c-5.6-26.5-21.9-48-43.5-60.9   C103.6,411.1,104.4,406.1,108.3,405.3z M134.2,477.5c8.7,41.5-17.8,82.1-59.3,90.9c-41.5,8.7-82.1-17.8-90.9-59.3   c-8.7-41.5,17.8-82.1,59.3-90.9C84.8,409.5,125.5,436,134.2,477.5z"
   id="path3466" />
	<path
   class="st25"
   d="M536.1,404.3c-51.4-4.7-103.7,9.4-103.7,9.4c-33.3,6.3-59.2,29.7-70.2,59.3c-3.9-14.8-7.6-33.8-8.4-53.9   c-0.1-3.2-4.8-3.3-5.1-0.1c-4.7,51.4,9.4,103.7,9.4,103.7c6.3,33.3,29.7,59.2,59.3,70.2c-14.8,3.9-33.8,7.6-53.9,8.4   c-3.2,0.1-3.3,4.8-0.1,5.1c51.4,4.7,103.7-9.4,103.7-9.4c33.3-6.3,59.2-29.7,70.2-59.3c3.9,14.8,7.6,33.8,8.4,53.9   c0.1,3.2,4.8,3.3,5.1,0.1c4.7-51.4-9.4-103.7-9.4-103.7c-6.3-33.3-29.7-59.2-59.3-70.2c14.8-3.9,33.8-7.6,53.9-8.4   C539.2,409.3,539.3,404.5,536.1,404.3z M525.1,491.1c7.9,41.6-19.5,81.8-61.1,89.6c-41.6,7.9-81.8-19.5-89.6-61.1   s19.5-81.8,61.1-89.6C477.1,422.1,517.2,449.5,525.1,491.1z"
   id="path3468" />
	<path
   class="st25"
   d="M545.3,588c-51.4-4.7-103.7,9.4-103.7,9.4c-33.3,6.3-59.2,29.7-70.2,59.3c-3.9-14.8-7.6-33.8-8.4-53.9   c-0.1-3.2-4.8-3.3-5.1-0.1c-4.7,51.4,9.4,103.7,9.4,103.7c6.3,33.3,29.7,59.2,59.3,70.2c-14.8,3.9-33.8,7.6-53.9,8.4   c-3.2,0.1-3.3,4.8-0.1,5.1c51.4,4.7,103.7-9.4,103.7-9.4c33.3-6.3,59.2-29.7,70.2-59.3c3.9,14.8,7.6,33.8,8.4,53.9   c0.1,3.2,4.8,3.3,5.1,0.1c4.7-51.4-9.4-103.7-9.4-103.7c-6.3-33.3-29.7-59.2-59.3-70.2c14.8-3.9,33.8-7.6,53.9-8.4   C548.4,593,548.5,588.3,545.3,588z M534.3,674.8c7.9,41.6-19.5,81.8-61.1,89.6c-41.6,7.9-81.8-19.5-89.6-61.1s19.5-81.8,61.1-89.6   S526.4,633.2,534.3,674.8z"
   id="path3470" />
	<path
   class="st25"
   d="M723.2,394.5c-51.4-4.7-103.7,9.4-103.7,9.4c-33.3,6.3-59.2,29.7-70.2,59.3c-3.9-14.8-7.6-33.8-8.4-53.9   c-0.1-3.2-4.8-3.3-5.1-0.1c-4.7,51.4,9.4,103.7,9.4,103.7c6.3,33.3,29.7,59.2,59.3,70.2c-14.8,3.9-33.8,7.6-53.9,8.4   c-3.2,0.1-3.3,4.8-0.1,5.1c51.4,4.7,103.7-9.4,103.7-9.4c33.3-6.3,59.2-29.7,70.2-59.3c3.9,14.8,7.6,33.8,8.4,53.9   c0.1,3.2,4.8,3.3,5.1,0.1c4.7-51.4-9.4-103.7-9.4-103.7c-6.3-33.3-29.7-59.2-59.3-70.2c14.8-3.9,33.8-7.6,53.9-8.4   C726.3,399.5,726.4,394.8,723.2,394.5z M712.2,481.3c7.9,41.6-19.5,81.8-61.1,89.6c-41.6,7.9-81.8-19.5-89.6-61.1   s19.5-81.8,61.1-89.6C664.1,412.4,704.3,439.7,712.2,481.3z"
   id="path3472" />
	<path
   class="st25"
   d="M732.4,578.2c-51.4-4.7-103.7,9.4-103.7,9.4c-33.3,6.3-59.2,29.7-70.2,59.3c-3.9-14.8-7.6-33.8-8.4-53.9   c-0.1-3.2-4.8-3.3-5.1-0.1c-4.7,51.4,9.4,103.7,9.4,103.7c6.3,33.3,29.7,59.2,59.3,70.2c-14.8,3.9-33.8,7.6-53.9,8.4   c-3.2,0.1-3.3,4.8-0.1,5.1c51.4,4.7,103.7-9.4,103.7-9.4c33.3-6.3,59.2-29.7,70.2-59.3c3.9,14.8,7.6,33.8,8.4,53.9   c0.1,3.2,4.8,3.3,5.1,0.1c4.7-51.4-9.4-103.7-9.4-103.7c-6.3-33.3-29.7-59.2-59.3-70.2c14.8-3.9,33.8-7.6,53.9-8.4   C735.5,583.3,735.6,578.5,732.4,578.2z M721.4,665.1c7.9,41.6-19.5,81.8-61.1,89.6c-41.6,7.9-81.8-19.5-89.6-61.1   s19.5-81.8,61.1-89.6C673.3,596.1,713.5,623.5,721.4,665.1z"
   id="path3474" />
	<path
   class="st26"
   d="M623.7,493.6c24.8-1.7,60.2-1,91.3,11.3c-54.7-31.1-139.4-24.6-139.4-24.6c-33.9,0-63.6,18.1-80,45.2   c-1.7-24.8-1-60.2,11.3-91.3c-31.1,54.7-24.6,139.4-24.6,139.4c0,33.9,18.1,63.6,45.2,80c-24.8,1.7-60.2,1-91.3-11.3   c54.7,31.1,139.4,24.6,139.4,24.6c33.9,0,63.6-18.1,80-45.2c1.7,24.8,1,60.2-11.3,91.3c31.1-54.7,24.6-139.4,24.6-139.4   C668.9,539.6,650.8,509.9,623.7,493.6z M575.6,650.3c-42.4,0-76.7-34.3-76.7-76.7s34.3-76.7,76.7-76.7s76.7,34.3,76.7,76.7   S617.9,650.3,575.6,650.3z"
   id="path3476" />
</g>
<g
   id="scan"
   class="st0">
	
		<image
   style="display:inline;overflow:visible;enable-background:new    ;"
   width="528"
   height="512"
   xlink:href="file:///private/var/folders/rw/h6p21bg50qv1kf_4n2y4l8zh0000gn/T/com.microsoft.Outlook/Meta%20genome%20logo%20sourced/meta_genome_logo_sketch.png"
   transform="matrix(0.941 0 0 0.941 346.8431 180.0407)"
   id="image3479">
	</image>
</g>
<g
   id="L"
   class="st0">
	<path
   class="st27"
   d="M582.7,403.4c-12.3-7.2-20.9-24.4-20.9-44.5c0-26.6,15.1-48.1,33.8-48.1"
   id="path3482" />
	<ellipse
   class="st28"
   cx="497.6"
   cy="99.2"
   rx="33.8"
   ry="48.1"
   id="ellipse3484" />
	<line
   class="st27"
   x1="578.7"
   y1="336.2"
   x2="611.7"
   y2="336.2"
   id="line3486" />
	<line
   class="st27"
   x1="578.7"
   y1="356"
   x2="611.7"
   y2="356"
   id="line3488" />
	<line
   class="st27"
   x1="578.7"
   y1="375.7"
   x2="611.7"
   y2="375.7"
   id="line3490" />
	<path
   class="st27"
   d="M595.3,421c0,0,34.1-24.9,34.1-62.1c0-18.5-3.4-27-26.4-56.1c-22.2-28.1-71.6-97.5-71.6-97.5"
   id="path3492" />
	<path
   class="st29"
   d="M556.6,523.1c-41.6-15.3-71.3-55.3-71.3-102.2c0-60.2,50.1-110.1,110.2-110.1"
   id="path3494" />
	<line
   class="st27"
   x1="378.8"
   y1="505.6"
   x2="509"
   y2="353.3"
   id="line3496" />
	<path
   class="st27"
   d="M607.8,438.6c12.3,7.2,20.9,24.4,20.9,44.5c0,26.6-15.1,48.1-33.8,48.1"
   id="path3498" />
	<line
   class="st27"
   x1="611.9"
   y1="505.8"
   x2="578.9"
   y2="505.8"
   id="line3500" />
	<line
   class="st27"
   x1="611.9"
   y1="486"
   x2="578.9"
   y2="486"
   id="line3502" />
	<line
   class="st27"
   x1="611.9"
   y1="466.3"
   x2="578.9"
   y2="466.3"
   id="line3504" />
	<path
   class="st27"
   d="M595.3,421c0,0-34.1,24.9-34.1,62.1c0,18.5,3.4,27,26.4,56.1c22.2,28.1,71.6,97.5,71.6,97.5"
   id="path3506" />
	<path
   class="st29"
   d="M633.9,318.9c41.6,15.3,71.3,55.3,71.3,102.2c0,60.2-50.1,110.1-110.2,110.1"
   id="path3508" />
	<line
   class="st27"
   x1="811.7"
   y1="336.4"
   x2="681.5"
   y2="488.7"
   id="line3510" />
</g>
<g
   id="Layer_14"
   class="st0">
	<circle
   class="st30"
   cx="168.8"
   cy="334.5"
   r="60.9"
   id="circle3513" />
	<g
   class="st5"
   id="g3533">
		<rect
   x="135.2"
   y="92.4"
   width="13"
   height="4.9"
   id="rect3515" />
		<rect
   x="135.2"
   y="100.2"
   width="13"
   height="4.9"
   id="rect3517" />
		<rect
   x="135.2"
   y="108"
   width="13"
   height="4.9"
   id="rect3519" />
		<path
   d="M100.9,128.2c0-8.9,2.9-17.4,8.4-24.5l0.4-0.4l0,0c1-1.3,2.2-2.6,3.4-3.8c5-5,11-8.5,17.5-10.4c0,0,0,0,0,0.1    c-2.8,4-4.3,9.2-4.3,14.8c0,8.5,3.7,16.2,9.4,19.6l2.5-4.2c-4.2-2.5-7-8.6-7-15.4c0-8.9,5-16.4,10.8-16.4l0,0c0,0,0,0-1-4.8    c-11.7,0.2-22.8,5-31.3,13.5c-1.3,1.3-2.5,2.7-3.6,4.1l0,0l-51.2,59.9l3.7,3.2l38.8-45.4c-0.8,3.4-1.3,7-1.3,10.5    c0,18.9,11.9,35.9,29.6,42.5l1.7-4.6C111.5,160.2,100.9,145,100.9,128.2z"
   id="path3521" />
		<rect
   x="135.2"
   y="159.1"
   width="13"
   height="4.9"
   id="rect3523" />
		<rect
   x="135.2"
   y="151.3"
   width="13"
   height="4.9"
   id="rect3525" />
		<rect
   x="135.2"
   y="143.5"
   width="13"
   height="4.9"
   id="rect3527" />
		<path
   d="M130.8,152.6c0-13.1,12.2-22.3,12.4-22.4c0.6-0.4,14.4-10.7,14.4-26.4c0-8.1-1.8-12.1-10.9-23.6    c-8.6-10.9-27.9-38-28-38.2l-4,2.8c0.2,0.3,19.5,27.5,28.2,38.4c8.9,11.2,9.8,14.1,9.8,20.5c0,13.1-12.2,22.3-12.4,22.4    c-0.6,0.4-14.4,10.7-14.4,26.4c0,8.1,1.8,12.1,10.9,23.6c8.6,10.9,27.9,38,28,38.2l4-2.8c-0.2-0.3-19.5-27.5-28.2-38.4    C131.7,161.9,130.8,159.1,130.8,152.6z"
   id="path3529" />
		<path
   d="M228.6,96.5l-3.7-3.2l-38.8,45.4c0.8-3.4,1.3-7,1.3-10.5c0-18.9-11.9-35.9-29.6-42.5l-1.7,4.6    c15.8,5.8,26.4,21.1,26.4,37.9c0,8.9-2.9,17.5-8.4,24.5l-0.4,0.4l0,0c-1,1.3-2.2,2.6-3.4,3.8c-5,5-11,8.5-17.5,10.4c0,0,0,0,0-0.1    c2.8-4,4.3-9.2,4.3-14.8c0-8.5-3.7-16.2-9.4-19.6l-2.5,4.2c4.2,2.5,7,8.6,7,15.4c0,8.9-5,16.4-10.8,16.4l0,0c0,0,0,0,1,4.8    c11.7-0.2,22.8-5,31.3-13.5c1.3-1.3,2.5-2.7,3.6-4.1l0,0L228.6,96.5z"
   id="path3531" />
	</g>
	<text
   transform="matrix(1 0 0 1 72.49 426.3174)"
   class="st5 st31 st32"
   id="text3535">Meta Genome</text>
	<g
   class="st5"
   id="g3555">
		<rect
   x="316.1"
   y="80.1"
   width="13"
   height="4.9"
   id="rect3537" />
		<rect
   x="316.1"
   y="87.9"
   width="13"
   height="4.9"
   id="rect3539" />
		<rect
   x="316.1"
   y="95.6"
   width="13"
   height="4.9"
   id="rect3541" />
		<rect
   x="316.2"
   y="146.7"
   width="13"
   height="4.9"
   id="rect3543" />
		<rect
   x="316.2"
   y="139"
   width="13"
   height="4.9"
   id="rect3545" />
		<rect
   x="316.2"
   y="131.2"
   width="13"
   height="4.9"
   id="rect3547" />
		<path
   d="M388.4,101.5l-21.4,25c0.8-3.4,1.3-7,1.3-10.5c0-18.9-11.9-35.9-29.6-42.5L337,78c15.8,5.8,26.4,21.1,26.4,37.9    c0,8.9-2.9,17.5-8.4,24.5l-0.4,0.4l0,0c-1,1.3-2.2,2.6-3.4,3.8c-5,5-11,8.5-17.5,10.4c0,0,0,0,0-0.1c2.8-4,4.3-9.2,4.3-14.8    c0-8.5-3.7-16.2-9.4-19.6l-2.5,4.2c4.2,2.5,7,8.6,7,15.4c0,8.9-5,16.4-10.8,16.4l0,0c0,0,0,0,1,4.8c11.7-0.2,22.8-5,31.3-13.5    c1.3-1.3,2.5-2.7,3.6-4.1l0,0l30.9-36.1C389.1,105.7,388.8,103.6,388.4,101.5z"
   id="path3549" />
		<path
   d="M324.1,117.9c0.6-0.4,14.4-10.7,14.4-26.4c0-8.1-1.8-12.1-10.9-23.6c-3.7-4.7-9.4-12.5-14.8-19.8c-1.8,0.3-3.6,0.6-5.3,1    c5.7,7.9,12.2,16.6,16.2,21.8c8.9,11.2,9.8,14.1,9.8,20.5c0,13.1-12.2,22.3-12.4,22.4c-0.6,0.4-14.4,10.7-14.4,26.4    c0,8.1,1.8,12.1,10.9,23.6c3.2,4.1,7.9,10.4,12.6,16.8c1.8-0.2,3.7-0.5,5.5-0.8c-5.1-7.1-10.6-14.4-14.2-19    c-8.9-11.2-9.8-14.1-9.8-20.5C311.7,127.1,323.9,118,324.1,117.9z"
   id="path3551" />
		<path
   d="M322.8,75L322.8,75c0,0,0,0-1-4.9c-11.7,0.2-22.8,5-31.3,13.5c-1.3,1.3-2.5,2.7-3.6,4.1l0,0l-30.3,35.5    c0.3,2.1,0.7,4.2,1.1,6.2l20.6-24.1c-0.8,3.4-1.3,7-1.3,10.5c0,18.9,11.9,35.9,29.6,42.5l1.7-4.6c-15.8-5.8-26.4-21.1-26.4-37.9    c0-8.9,2.9-17.4,8.4-24.5l0.4-0.4l0,0c1-1.3,2.2-2.6,3.4-3.8c5-5,11-8.5,17.5-10.4c0,0,0,0,0,0.1c-2.8,4-4.3,9.2-4.3,14.8    c0,8.5,3.7,16.2,9.4,19.6l2.5-4.2c-4.2-2.5-7-8.6-7-15.4C311.9,82.5,316.9,75,322.8,75z"
   id="path3553" />
	</g>
	<g
   class="st5"
   id="g3575">
		<rect
   x="162"
   y="300.3"
   class="st33"
   width="13"
   height="4.9"
   id="rect3557" />
		<rect
   x="162"
   y="308"
   class="st33"
   width="13"
   height="4.9"
   id="rect3559" />
		<rect
   x="162"
   y="315.8"
   class="st33"
   width="13"
   height="4.9"
   id="rect3561" />
		<rect
   x="162.1"
   y="366.9"
   class="st33"
   width="13"
   height="4.9"
   id="rect3563" />
		<rect
   x="162.1"
   y="359.1"
   class="st33"
   width="13"
   height="4.9"
   id="rect3565" />
		<rect
   x="162.1"
   y="351.3"
   class="st33"
   width="13"
   height="4.9"
   id="rect3567" />
		<path
   class="st33"
   d="M234.2,321.6l-21.4,25c0.8-3.4,1.3-7,1.3-10.5c0-18.9-11.9-35.9-29.6-42.5l-1.7,4.6    c15.8,5.8,26.4,21.1,26.4,37.9c0,8.9-2.9,17.5-8.4,24.5l-0.4,0.4l0,0c-1,1.3-2.2,2.6-3.4,3.8c-5,5-11,8.5-17.5,10.4c0,0,0,0,0-0.1    c2.8-4,4.3-9.2,4.3-14.8c0-8.5-3.7-16.2-9.4-19.6l-2.5,4.2c4.2,2.5,7,8.6,7,15.4c0,8.9-5,16.4-10.8,16.4l0,0c0,0,0,0,1,4.8    c11.7-0.2,22.8-5,31.3-13.5c1.3-1.3,2.5-2.7,3.6-4.1l0,0l30.9-36.1C235,325.9,234.7,323.7,234.2,321.6z"
   id="path3569" />
		<path
   class="st33"
   d="M170,338c0.6-0.4,14.4-10.7,14.4-26.4c0-8.1-1.8-12.1-10.9-23.6c-3.7-4.7-9.4-12.5-14.8-19.8    c-1.8,0.3-3.6,0.6-5.3,1c5.7,7.9,12.2,16.6,16.2,21.8c8.9,11.2,9.8,14.1,9.8,20.5c0,13.1-12.2,22.3-12.4,22.4    c-0.6,0.4-14.4,10.7-14.4,26.4c0,8.1,1.8,12.1,10.9,23.6c3.2,4.1,7.9,10.4,12.6,16.8c1.8-0.2,3.7-0.5,5.5-0.8    c-5.1-7.1-10.6-14.4-14.2-19c-8.9-11.2-9.8-14.1-9.8-20.5C157.6,347.3,169.8,338.1,170,338z"
   id="path3571" />
		<path
   class="st33"
   d="M168.6,295.2L168.6,295.2c0,0,0,0-1-4.9c-11.7,0.2-22.8,5-31.3,13.5c-1.3,1.3-2.5,2.7-3.6,4.1l0,0    l-30.3,35.5c0.3,2.1,0.7,4.2,1.1,6.2l20.6-24.1c-0.8,3.4-1.3,7-1.3,10.5c0,18.9,11.9,35.9,29.6,42.5l1.7-4.6    c-15.8-5.8-26.4-21.1-26.4-37.9c0-8.9,2.9-17.4,8.4-24.5l0.4-0.4l0,0c1-1.3,2.2-2.6,3.4-3.8c5-5,11-8.5,17.5-10.4c0,0,0,0,0,0.1    c-2.8,4-4.3,9.2-4.3,14.8c0,8.5,3.7,16.2,9.4,19.6l2.5-4.2c-4.2-2.5-7-8.6-7-15.4C157.8,302.7,162.8,295.2,168.6,295.2z"
   id="path3573" />
	</g>
	<text
   transform="matrix(1 0 0 1 203.1012 546.6859)"
   class="st34 st31 st32"
   id="text3577">Meta Genome</text>
	<g
   class="st5"
   id="g3593">
		<rect
   x="155"
   y="515.8"
   class="st35"
   width="7.8"
   height="3"
   id="rect3579" />
		<rect
   x="155"
   y="520.5"
   class="st35"
   width="7.8"
   height="3"
   id="rect3581" />
		<rect
   x="155"
   y="525.2"
   class="st35"
   width="7.8"
   height="3"
   id="rect3583" />
		<rect
   x="155"
   y="556"
   class="st35"
   width="7.8"
   height="3"
   id="rect3585" />
		<rect
   x="155"
   y="551.3"
   class="st35"
   width="7.8"
   height="3"
   id="rect3587" />
		<rect
   x="155"
   y="546.6"
   class="st35"
   width="7.8"
   height="3"
   id="rect3589" />
		<path
   class="st35"
   d="M159.8,538.6c0.4-0.3,8.7-6.5,8.7-15.9c0-4.9-1.1-7.3-6.6-14.2c-2.2-2.8-5.7-7.5-8.9-11.9    c-1.1,0.2-2.2,0.4-3.2,0.6c3.4,4.7,7.3,10,9.8,13.1c5.4,6.8,5.9,8.5,5.9,12.4c0,7.9-7.4,13.5-7.5,13.5c-0.4,0.3-8.7,6.5-8.7,15.9    c0,4.9,1.1,7.3,6.6,14.2c1.9,2.5,4.8,6.3,7.6,10.1c1.1-0.1,2.2-0.3,3.3-0.5c-3.1-4.3-6.4-8.7-8.6-11.4c-5.4-6.8-5.9-8.5-5.9-12.4    C152.3,544.2,159.7,538.7,159.8,538.6z"
   id="path3591" />
	</g>
	<g
   class="st5"
   id="g3599">
		<path
   class="st36"
   d="M198.5,528.7l-12.9,15.1c0.5-2.1,0.8-4.2,0.8-6.4c0-11.4-7.2-21.7-17.8-25.6l-1,2.7    c9.5,3.5,15.9,12.7,15.9,22.9c0,5.4-1.8,10.5-5,14.8l-0.2,0.3l0,0c-0.6,0.8-1.3,1.6-2,2.3c-3,3-6.6,5.1-10.5,6.3l0,0    c1.7-2.4,2.6-5.6,2.6-8.9c0-5.2-2.2-9.8-5.7-11.8l-1.5,2.6c2.5,1.5,4.2,5.2,4.2,9.3c0,5.4-3,9.9-6.5,9.9l0,0c0,0,0,0,0.6,2.9    c7.1-0.1,13.8-3,18.9-8.1c0.8-0.8,1.5-1.6,2.2-2.5l0,0l18.6-21.8C199,531.3,198.8,530,198.5,528.7z"
   id="path3595" />
		<path
   class="st36"
   d="M159,512.8L159,512.8c0,0,0,0-0.6-2.9c-7.1,0.1-13.8,3-18.9,8.1c-0.8,0.8-1.5,1.6-2.2,2.5l0,0L119,541.8    c0.2,1.3,0.4,2.5,0.7,3.8l12.4-14.5c-0.5,2.1-0.8,4.2-0.8,6.4c0,11.4,7.2,21.7,17.8,25.6l1-2.7c-9.5-3.5-15.9-12.7-15.9-22.9    c0-5.4,1.8-10.5,5-14.8l0.2-0.3l0,0c0.6-0.8,1.3-1.6,2-2.3c3-3,6.6-5.1,10.5-6.3l0,0c-1.7,2.4-2.6,5.6-2.6,8.9    c0,5.2,2.2,9.8,5.7,11.8l1.5-2.6c-2.5-1.5-4.2-5.2-4.2-9.3C152.4,517.3,155.4,512.8,159,512.8z"
   id="path3597" />
	</g>
	<text
   transform="matrix(1 0 0 1 203.1012 656.59)"
   class="st5 st31 st32"
   id="text3601">Meta Genome</text>
	<g
   class="st5"
   id="g3621">
		<rect
   x="155"
   y="625.7"
   width="7.8"
   height="3"
   id="rect3603" />
		<rect
   x="155"
   y="630.4"
   width="7.8"
   height="3"
   id="rect3605" />
		<rect
   x="155"
   y="635.1"
   width="7.8"
   height="3"
   id="rect3607" />
		<rect
   x="155"
   y="665.9"
   width="7.8"
   height="3"
   id="rect3609" />
		<rect
   x="155"
   y="661.2"
   width="7.8"
   height="3"
   id="rect3611" />
		<rect
   x="155"
   y="656.6"
   width="7.8"
   height="3"
   id="rect3613" />
		<path
   d="M198.5,638.6l-12.9,15.1c0.5-2.1,0.8-4.2,0.8-6.4c0-11.4-7.2-21.7-17.8-25.6l-1,2.7c9.5,3.5,15.9,12.7,15.9,22.9    c0,5.4-1.8,10.5-5,14.8l-0.2,0.3l0,0c-0.6,0.8-1.3,1.6-2,2.3c-3,3-6.6,5.1-10.5,6.3l0,0c1.7-2.4,2.6-5.6,2.6-8.9    c0-5.2-2.2-9.8-5.7-11.8l-1.5,2.6c2.5,1.5,4.2,5.2,4.2,9.3c0,5.4-3,9.9-6.5,9.9l0,0c0,0,0,0,0.6,2.9c7.1-0.1,13.8-3,18.9-8.1    c0.8-0.8,1.5-1.6,2.2-2.5l0,0l18.6-21.8C199,641.2,198.8,639.9,198.5,638.6z"
   id="path3615" />
		<path
   d="M159.8,648.5c0.4-0.3,8.7-6.5,8.7-15.9c0-4.9-1.1-7.3-6.6-14.2c-2.2-2.8-5.7-7.5-8.9-11.9c-1.1,0.2-2.2,0.4-3.2,0.6    c3.4,4.7,7.3,10,9.8,13.1c5.4,6.8,5.9,8.5,5.9,12.4c0,7.9-7.4,13.5-7.5,13.5c-0.4,0.3-8.7,6.5-8.7,15.9c0,4.9,1.1,7.3,6.6,14.2    c1.9,2.5,4.8,6.3,7.6,10.1c1.1-0.1,2.2-0.3,3.3-0.5c-3.1-4.3-6.4-8.7-8.6-11.4c-5.4-6.8-5.9-8.5-5.9-12.4    C152.3,654.1,159.7,648.6,159.8,648.5z"
   id="path3617" />
		<path
   d="M159,622.7L159,622.7c0,0,0,0-0.6-2.9c-7.1,0.1-13.8,3-18.9,8.1c-0.8,0.8-1.5,1.6-2.2,2.5l0,0L119,651.7    c0.2,1.3,0.4,2.5,0.7,3.8l12.4-14.5c-0.5,2.1-0.8,4.2-0.8,6.4c0,11.4,7.2,21.7,17.8,25.6l1-2.7c-9.5-3.5-15.9-12.7-15.9-22.9    c0-5.4,1.8-10.5,5-14.8l0.2-0.3l0,0c0.6-0.8,1.3-1.6,2-2.3c3-3,6.6-5.1,10.5-6.3l0,0c-1.7,2.4-2.6,5.6-2.6,8.9    c0,5.2,2.2,9.8,5.7,11.8l1.5-2.6c-2.5-1.5-4.2-5.2-4.2-9.3C152.4,627.2,155.4,622.7,159,622.7z"
   id="path3619" />
	</g>
	<g
   class="st5"
   id="g3641">
		<rect
   x="501.5"
   y="70.8"
   width="13"
   height="4.9"
   id="rect3623" />
		<rect
   x="501.5"
   y="78.6"
   width="13"
   height="4.9"
   id="rect3625" />
		<rect
   x="501.5"
   y="86.4"
   width="13"
   height="4.9"
   id="rect3627" />
		<rect
   x="501.6"
   y="137.5"
   width="13"
   height="4.9"
   id="rect3629" />
		<rect
   x="501.6"
   y="129.7"
   width="13"
   height="4.9"
   id="rect3631" />
		<rect
   x="501.6"
   y="121.9"
   width="13"
   height="4.9"
   id="rect3633" />
		<path
   d="M573.7,92.2l-21.4,25c0.8-3.4,1.3-7,1.3-10.5c0-18.9-11.9-35.9-29.6-42.5l-1.7,4.6c15.8,5.8,26.4,21.1,26.4,37.9    c0,8.9-2.9,17.5-8.4,24.5l-0.4,0.4l0,0c-1,1.3-2.2,2.6-3.4,3.8c-5,5-11,8.5-17.5,10.4c0,0,0,0,0-0.1c2.8-4,4.3-9.2,4.3-14.8    c0-8.5-3.7-16.2-9.4-19.6c0,0,4.5,12.9,4.5,19.6c0,8.9-5,16.4-10.8,16.4l0,0c0,0,0,0,1,4.8c11.7-0.2,22.8-5,31.3-13.5    c1.3-1.3,2.5-2.7,3.6-4.1l0,0l30.9-36.1C574.5,96.5,574.1,94.3,573.7,92.2z"
   id="path3635" />
		<path
   d="M509.5,108.6c0.6-0.4,14.4-10.7,14.4-26.4c0-8.1-1.8-12.1-10.9-23.6c-3.7-4.7-9.4-12.5-14.8-19.8    c-1.8,0.3,6.8,17.6,10.9,22.8c8.9,11.2,9.8,14.1,9.8,20.5c0,13.1-12.2,22.3-12.4,22.4c-0.6,0.4-14.4,10.7-14.4,26.4    c0,8.1,1.8,12.1,10.9,23.6c3.2,4.1,7.9,10.4,12.6,16.8c1.8-0.2-5.1-15.3-8.7-19.8c-8.9-11.2-9.8-14.1-9.8-20.5    C497.1,117.9,509.3,108.7,509.5,108.6z"
   id="path3637" />
		<path
   d="M508.1,65.8L508.1,65.8c0,0,0,0-1-4.9c-11.7,0.2-22.8,5-31.3,13.5c-1.3,1.3-2.5,2.7-3.6,4.1l0,0L441.9,114    c0.3,2.1,0.7,4.2,1.1,6.2L463.6,96c-0.8,3.4-1.3,7-1.3,10.5c0,18.9,11.9,35.9,29.6,42.5l1.7-4.6c-15.8-5.8-26.4-21.1-26.4-37.9    c0-8.9,2.9-17.4,8.4-24.5l0.4-0.4l0,0c1-1.3,2.2-2.6,3.4-3.8c5-5,11-8.5,17.5-10.4c0,0,0,0,0,0.1c-2.8,4-4.3,9.2-4.3,14.8    c0,8.5,3.7,16.2,9.4,19.6c0,0-4.5-12.9-4.5-19.6C497.3,73.3,502.3,65.8,508.1,65.8z"
   id="path3639" />
	</g>
	<g
   class="st5"
   id="g3669">
		<text
   transform="matrix(1 0 0 1 493.5575 548.6368)"
   class="st37 st38 st32"
   id="text3643">Meta</text>
		<g
   id="g3665">
			<path
   class="st37"
   d="M643.5,531.8l-12.9,15.1c0.5-2.1,0.8-4.2,0.8-6.4c0-11.4-7.2-21.7-17.8-25.6l-1,2.7     c9.5,3.5,15.9,12.7,15.9,22.9c0,5.4-1.8,10.5-5,14.8l-0.2,0.3l0,0c-0.6,0.8-1.3,1.6-2,2.3c-3,3-6.6,5.1-10.5,6.3l0,0     c1.7-2.4,2.6-5.6,2.6-8.9c0-5.2-2.2-9.8-5.7-11.8l-1.5,2.6c2.5,1.5,4.2,5.2,4.2,9.3c0,5.4-3,9.9-6.5,9.9l0,0c0,0,0,0,0.6,2.9     c7.1-0.1,13.8-3,18.9-8.1c0.8-0.8,1.5-1.6,2.2-2.5l0,0l18.6-21.8C643.9,534.4,643.7,533.1,643.5,531.8z"
   id="path3645" />
			<g
   id="g3661">
				<rect
   x="599.9"
   y="518.9"
   class="st39"
   width="7.8"
   height="3"
   id="rect3647" />
				<rect
   x="599.9"
   y="523.6"
   class="st39"
   width="7.8"
   height="3"
   id="rect3649" />
				<rect
   x="599.9"
   y="528.3"
   class="st39"
   width="7.8"
   height="3"
   id="rect3651" />
				<rect
   x="599.9"
   y="559.1"
   class="st39"
   width="7.8"
   height="3"
   id="rect3653" />
				<rect
   x="599.9"
   y="554.4"
   class="st39"
   width="7.8"
   height="3"
   id="rect3655" />
				<rect
   x="599.9"
   y="549.7"
   class="st39"
   width="7.8"
   height="3"
   id="rect3657" />
				<path
   class="st39"
   d="M604.7,541.7c0.4-0.3,8.7-6.5,8.7-15.9c0-4.9-1.1-7.3-6.6-14.2c-2.2-2.8-5.7-7.5-8.9-11.9      c-1.1,0.2-2.2,0.4-3.2,0.6c3.4,4.7,7.3,10,9.8,13.1c5.4,6.8,5.9,8.5,5.9,12.4c0,7.9-7.4,13.5-7.5,13.5      c-0.4,0.3-8.7,6.5-8.7,15.9c0,4.9,1.1,7.3,6.6,14.2c1.9,2.5,4.8,6.3,7.6,10.1c1.1-0.1,2.2-0.3,3.3-0.5      c-3.1-4.3-6.4-8.7-8.6-11.4c-5.4-6.8-5.9-8.5-5.9-12.4C597.2,547.3,604.6,541.7,604.7,541.7z"
   id="path3659" />
			</g>
			<path
   class="st37"
   d="M603.9,515.8L603.9,515.8c0,0,0,0-0.6-2.9c-7.1,0.1-13.8,3-18.9,8.1c-0.8,0.8-1.5,1.6-2.2,2.5l0,0     l-18.3,21.4c0.2,1.3,0.4,2.5,0.7,3.8l12.4-14.5c-0.5,2.1-0.8,4.2-0.8,6.4c0,11.4,7.2,21.7,17.8,25.6l1-2.7     c-9.5-3.5-15.9-12.7-15.9-22.9c0-5.4,1.8-10.5,5-14.8l0.2-0.3l0,0c0.6-0.8,1.3-1.6,2-2.3c3-3,6.6-5.1,10.5-6.3l0,0     c-1.7,2.4-2.6,5.6-2.6,8.9c0,5.2,2.2,9.8,5.7,11.8l1.5-2.6c-2.5-1.5-4.2-5.2-4.2-9.3C597.4,520.4,600.3,515.8,603.9,515.8z"
   id="path3663" />
		</g>
		<text
   transform="matrix(1 0 0 1 638.822 548.4412)"
   class="st37 st38 st32"
   id="text3667">Genome</text>
	</g>
	<g
   class="st5"
   id="g3695">
		<text
   transform="matrix(1 0 0 1 493.5575 655.3759)"
   class="st38 st32"
   id="text3671">Meta</text>
		<g
   id="g3691">
			<rect
   x="599.9"
   y="625.6"
   width="7.8"
   height="3"
   id="rect3673" />
			<rect
   x="599.9"
   y="630.3"
   width="7.8"
   height="3"
   id="rect3675" />
			<rect
   x="599.9"
   y="635"
   width="7.8"
   height="3"
   id="rect3677" />
			<rect
   x="599.9"
   y="665.8"
   width="7.8"
   height="3"
   id="rect3679" />
			<rect
   x="599.9"
   y="661.1"
   width="7.8"
   height="3"
   id="rect3681" />
			<rect
   x="599.9"
   y="656.5"
   width="7.8"
   height="3"
   id="rect3683" />
			<path
   d="M643.5,638.5l-12.9,15.1c0.5-2.1,0.8-4.2,0.8-6.4c0-11.4-7.2-21.7-17.8-25.6l-1,2.7c9.5,3.5,15.9,12.7,15.9,22.9     c0,5.4-1.8,10.5-5,14.8l-0.2,0.3l0,0c-0.6,0.8-1.3,1.6-2,2.3c-3,3-6.6,5.1-10.5,6.3l0,0c1.7-2.4,2.6-5.6,2.6-8.9     c0-5.2-2.2-9.8-5.7-11.8l-1.5,2.6c2.5,1.5,4.2,5.2,4.2,9.3c0,5.4-3,9.9-6.5,9.9l0,0c0,0,0,0,0.6,2.9c7.1-0.1,13.8-3,18.9-8.1     c0.8-0.8,1.5-1.6,2.2-2.5l0,0l18.6-21.8C643.9,641.1,643.7,639.8,643.5,638.5z"
   id="path3685" />
			<path
   d="M604.7,648.4c0.4-0.3,8.7-6.5,8.7-15.9c0-4.9-1.1-7.3-6.6-14.2c-2.2-2.8-5.7-7.5-8.9-11.9c-1.1,0.2-2.2,0.4-3.2,0.6     c3.4,4.7,7.3,10,9.8,13.1c5.4,6.8,5.9,8.5,5.9,12.4c0,7.9-7.4,13.5-7.5,13.5c-0.4,0.3-8.7,6.5-8.7,15.9c0,4.9,1.1,7.3,6.6,14.2     c1.9,2.5,4.8,6.3,7.6,10.1c1.1-0.1,2.2-0.3,3.3-0.5c-3.1-4.3-6.4-8.7-8.6-11.4c-5.4-6.8-5.9-8.5-5.9-12.4     C597.2,654,604.6,648.5,604.7,648.4z"
   id="path3687" />
			<path
   d="M603.9,622.6L603.9,622.6c0,0,0,0-0.6-2.9c-7.1,0.1-13.8,3-18.9,8.1c-0.8,0.8-1.5,1.6-2.2,2.5l0,0l-18.3,21.4     c0.2,1.3,0.4,2.5,0.7,3.8L577,641c-0.5,2.1-0.8,4.2-0.8,6.4c0,11.4,7.2,21.7,17.8,25.6l1-2.7c-9.5-3.5-15.9-12.7-15.9-22.9     c0-5.4,1.8-10.5,5-14.8l0.2-0.3l0,0c0.6-0.8,1.3-1.6,2-2.3c3-3,6.6-5.1,10.5-6.3l0,0c-1.7,2.4-2.6,5.6-2.6,8.9     c0,5.2,2.2,9.8,5.7,11.8l1.5-2.6c-2.5-1.5-4.2-5.2-4.2-9.3C597.4,627.1,600.3,622.6,603.9,622.6z"
   id="path3689" />
		</g>
		<text
   transform="matrix(1 0 0 1 638.822 655.1803)"
   class="st38 st32"
   id="text3693">Genome</text>
	</g>
</g>
<circle
   class="st40"
   cx="450.9"
   cy="288"
   r="1.6"
   id="circle3698" />
<path
   class="st41"
   d="M438.2,236.4l19.7-8.6c1.2-0.5,2.6,5.9,1.4,6.3l-20.3,6C438.3,240.2,437.5,236.7,438.2,236.4z"
   id="path3700" />
<path
   class="st41"
   d="M438.1,261.9l20.9,7.8c1.3,0.5,2.2-6.6,0.9-6.9l-21.3-4.9C437.9,257.7,437.3,261.6,438.1,261.9z"
   id="path3702" />
<path
   class="st41"
   d="M436.1,246.8l28.2-3.6c1.1-0.1,1.1,9.2,0,9.2l-28.2-2.1C435.7,250.2,435.7,246.9,436.1,246.8z"
   id="path3704" />
<path
   class="st42"
   d="M433.3,248.2c0-14.9,7.5-25.4,15-31.2l-3-4.3c-11.9,8.8-20.9,20.4-20.9,35.4c0,16.1,11.9,26.2,22.6,36.1  l3.7-3.7C441.2,272,433.3,261.3,433.3,248.2z"
   id="path3706" />
<path
   class="st42"
   d="M471.1,325.6c0,14.9-7.5,25.4-17.5,34l3,4.3c14.4-11.6,23.5-23.2,23.5-38.2c0-16.1-11.9-26.2-22.6-36.1  l-3.7,3.7C463.3,301.9,471.1,312.6,471.1,325.6z"
   id="path3708" />
<path
   class="st41"
   d="M463.6,339.4l-19.7,8.6c-1.2,0.5-2.6-5.9-1.4-6.3l20.3-6C463.5,335.6,464.3,339.1,463.6,339.4z"
   id="path3710" />
<path
   class="st41"
   d="M463.7,313.9l-20.9-7.8c-1.3-0.5-2.2,6.6-0.9,6.9l21.3,4.9C463.9,318.1,464.5,314.2,463.7,313.9z"
   id="path3712" />
<path
   class="st41"
   d="M465.7,329l-28.2,3.6c-1.1,0.1-1.1-9.2,0-9.2l28.2,2.1C466.1,325.6,466.1,329,465.7,329z"
   id="path3714" />
<g
   id="g3738">
	<path
   class="st43"
   d="M606.7,221.7h17.6l13.1,41.6h0.2l13.1-41.6h17.6v54.9h-10.5v-45.3h-0.2l-14.8,45.3h-10.5l-14.8-45.3l-0.2,0.2   v45.2h-10.5V221.7z"
   id="path3716" />
	<path
   class="st43"
   d="M707.9,274.3c-3.9,2.1-8.3,3.2-13.9,3.2c-13.4,0-21.2-7.7-21.2-21c0-11.7,6.2-21.4,18.8-21.4   c15,0,19.3,10.3,19.3,24.5h-28c0.5,6.5,5,10.2,11.6,10.2c5.1,0,9.5-1.9,13.5-4.1V274.3z M700.8,252.4c-0.3-5.1-2.7-9.5-8.6-9.5   c-5.9,0-8.9,4.1-9.4,9.5H700.8z"
   id="path3718" />
	<path
   class="st43"
   d="M719.5,243.8h-7.8v-7.7h7.8V228l10.5-3.4v11.5h9.4v7.7H730v18.9c0,3.5,0.9,6.7,5,6.7c1.9,0,3.7-0.4,4.8-1.1   l0.3,8.3c-2.2,0.6-4.6,0.9-7.8,0.9c-8.3,0-12.8-5.1-12.8-13.1V243.8z"
   id="path3720" />
	<path
   class="st43"
   d="M746.9,238.2c4.1-1.9,9.6-3.1,14.1-3.1c12.4,0,17.5,5.1,17.5,17.1v5.2c0,4.1,0.1,7.2,0.2,10.2   c0.1,3.1,0.2,5.9,0.5,9.1h-9.3c-0.4-2.1-0.4-4.8-0.5-6.1h-0.2c-2.4,4.5-7.7,7-12.5,7c-7.2,0-14.2-4.3-14.2-12   c0-6.1,2.9-9.6,6.9-11.6c4-2,9.2-2.4,13.6-2.4h5.8c0-6.5-2.9-8.7-9.1-8.7c-4.5,0-9,1.7-12.5,4.4L746.9,238.2z M759.2,269.9   c3.2,0,5.7-1.4,7.4-3.6c1.7-2.3,2.2-5.2,2.2-8.3h-4.6c-4.7,0-11.7,0.8-11.7,7C752.5,268.4,755.4,269.9,759.2,269.9z"
   id="path3722" />
	<path
   class="st43"
   d="M786.1,259.8v-8.7h20.7v8.7H786.1z"
   id="path3724" />
	<path
   class="st43"
   d="M649.6,306.5c-4.2-2-9.8-2.9-14.2-2.9c-12.8,0-19.9,8.7-19.9,19.9c0,11.2,6.9,19.6,18.7,19.6   c3,0,5.4-0.3,7.2-0.8V328h-11.7v-8.7H652V349c-5.8,1.6-11.9,2.8-17.8,2.8c-17.8,0-30.1-8.9-30.1-27.5c0-18.8,11.5-29.4,30.1-29.4   c6.4,0,11.4,0.9,16.1,2.3L649.6,306.5z"
   id="path3726" />
	<path
   class="st43"
   d="M692,348.6c-3.9,2.1-8.3,3.2-13.9,3.2c-13.4,0-21.2-7.7-21.2-21c0-11.7,6.2-21.4,18.8-21.4   c15,0,19.3,10.3,19.3,24.5h-28c0.5,6.5,5,10.2,11.6,10.2c5.1,0,9.5-1.9,13.5-4.1V348.6z M684.9,326.6c-0.3-5.1-2.7-9.5-8.6-9.5   c-5.9,0-8.9,4.1-9.4,9.5H684.9z"
   id="path3728" />
	<path
   class="st43"
   d="M700.1,310.3h10v5.5h0.2c3.3-4.6,7.8-6.5,13.3-6.5c9.6,0,13.8,6.8,13.8,15.9v25.6h-10.5v-21.6   c0-5-0.1-11.7-6.8-11.7c-7.6,0-9.3,8.3-9.3,13.5v19.8h-10.5V310.3z"
   id="path3730" />
	<path
   class="st43"
   d="M762.1,309.4c12,0,21.3,8.1,21.3,21.5c0,11.7-7.8,20.9-21.3,20.9c-13.4,0-21.2-9.3-21.2-20.9   C740.9,317.5,750.1,309.4,762.1,309.4z M762.1,343.6c8.1,0,10.2-7.2,10.2-14c0-6.2-3.3-12-10.2-12c-6.8,0-10.2,6-10.2,12   C751.9,336.3,754,343.6,762.1,343.6z"
   id="path3732" />
	<path
   class="st43"
   d="M786.7,310.3h9.8v5.7h0.2c3.3-5,8.1-6.6,12-6.6c5.7,0,9.7,2.1,12,7.2c2.4-4.9,7.7-7.2,12.7-7.2   c10,0,12.8,6.8,12.8,15.9v25.6h-10.5v-24.2c0-3.8,0-9.1-6.1-9.1c-7,0-7.9,8.3-7.9,13.6v19.7h-10.5v-24.2c0-3.8,0-9.1-6.1-9.1   c-7,0-7.9,8.3-7.9,13.6v19.7h-10.5V310.3z"
   id="path3734" />
	<path
   class="st43"
   d="M884.6,348.6c-3.9,2.1-8.3,3.2-13.9,3.2c-13.4,0-21.2-7.7-21.2-21c0-11.7,6.2-21.4,18.8-21.4   c15,0,19.3,10.3,19.3,24.5h-28c0.5,6.5,5,10.2,11.6,10.2c5.1,0,9.5-1.9,13.5-4.1V348.6z M877.5,326.6c-0.3-5.1-2.7-9.5-8.6-9.5   c-5.9,0-8.9,4.1-9.4,9.5H877.5z"
   id="path3736" />
</g>
<path
   class="st43"
   d="M575.8,235.2l-48.7,57c0.1-1.4,0.1-2.9,0.1-4.3c0-35.9-24.4-66.3-57.5-75.3c-1.1-0.3-2,1-1.3,1.9  c5.3,7.2,8.6,12.6,10.5,17.8c0.3,0.9,0.9,1.6,1.7,2c18.3,10.8,30.6,30.8,30.6,53.5c0,22-11.5,41.4-28.9,52.5c-0.7,0.4-1.2,1-1.5,1.7  c-3.3,7-8.6,13.4-15.3,19.8c-0.9,0.9-0.1,2.4,1.1,2.1c17.5-4,32.7-13.9,43.6-27.5l0,0l71.5-83.7  C580.2,246.7,578.2,240.8,575.8,235.2z"
   id="path3740" />
<path
   class="st43"
   d="M437.5,210.6c-20,3-37.6,13.7-49.6,28.9l0,0l-72,84.2c1.6,6,3.6,11.9,6,17.6l49.3-57.7  c-0.1,1.4-0.1,2.8-0.1,4.2c0,37.4,26.4,68.7,61.6,76.3c1.1,0.2,1.9-1,1.2-2c-5-6.7-8.3-11.8-10.3-16.6c-0.4-0.9-1-1.6-1.9-2  c-20.5-10.1-34.7-31.3-34.7-55.7c0-24.8,14.6-46.2,35.6-56.2c0.8-0.4,1.4-1,1.8-1.7c3.1-5.8,7.7-11.4,14.1-17.2  C439.5,212,438.7,210.5,437.5,210.6z"
   id="path3742" />
<path
   class="st41"
   d="M451.9,289.2c3-2.9,25-15.2,25-40.9c0-13.4-3-19.9-17.8-38.6c-11.1-14-35.3-43-45.1-54.6  c-1.7,0.4-3.4,0.9-5.1,1.4c8,11.2,31.5,43.9,43.1,58.7c14.3,18.2,15.9,22.8,15.9,33.1c0,21.1-12.6,33.2-18,38.4  c-5.4,5.2-25.1,15.2-25.1,40.9c0,13.4,3,19.8,17.8,38.6c10.6,13.4,31.2,42.1,40.7,55.2c1.7-0.4,3.4-0.9,5.1-1.4  c-7.9-13.1-27.6-45.3-38.7-59.3c-14.3-18.2-15.9-22.8-15.9-33.1C433.8,306.4,448.8,292.1,451.9,289.2z"
   id="path3744" />
<circle
   class="st44"
   cx="450.9"
   cy="600.8"
   r="1.6"
   id="circle3746" />
<path
   class="st44"
   d="M438.2,549.3l19.7-8.6c1.2-0.5,2.6,5.9,1.4,6.3l-20.3,6C438.3,553.1,437.5,549.6,438.2,549.3z"
   id="path3748" />
<path
   class="st44"
   d="M438.1,574.8l20.9,7.8c1.3,0.5,2.2-6.6,0.9-6.9l-21.3-4.9C437.9,570.6,437.3,574.5,438.1,574.8z"
   id="path3750" />
<path
   class="st44"
   d="M436.1,559.7l28.2-3.6c1.1-0.1,1.1,9.2,0,9.2l-28.2-2.1C435.7,563,435.7,559.7,436.1,559.7z"
   id="path3752" />
<path
   class="st44"
   d="M433.3,561.1c0-14.9,7.5-25.4,15-31.2l-3-4.3c-11.9,8.8-20.9,20.4-20.9,35.4c0,16.1,11.9,26.2,22.6,36.1  l3.7-3.7C441.2,584.8,433.3,574.2,433.3,561.1z"
   id="path3754" />
<path
   class="st44"
   d="M471.1,638.5c0,14.9-7.5,25.4-17.5,34l3,4.3c14.4-11.6,23.5-23.2,23.5-38.2c0-16.1-11.9-26.2-22.6-36.1  l-3.7,3.7C463.3,614.8,471.1,625.4,471.1,638.5z"
   id="path3756" />
<path
   class="st44"
   d="M463.6,652.3l-19.7,8.6c-1.2,0.5-2.6-5.9-1.4-6.3l20.3-6C463.5,648.5,464.3,652,463.6,652.3z"
   id="path3758" />
<path
   class="st44"
   d="M463.7,626.8l-20.9-7.8c-1.3-0.5-2.2,6.6-0.9,6.9l21.3,4.9C463.9,630.9,464.5,627.1,463.7,626.8z"
   id="path3760" />
<path
   class="st44"
   d="M465.7,641.9l-28.2,3.6c-1.1,0.1-1.1-9.2,0-9.2l28.2,2.1C466.1,638.5,466.1,641.8,465.7,641.9z"
   id="path3762" />
<g
   id="g3786">
	<path
   class="st44"
   d="M606.7,534.5h17.6l13.1,41.6h0.2l13.1-41.6h17.6v54.9h-10.5v-45.3h-0.2l-14.8,45.3h-10.5l-14.8-45.3l-0.2,0.2   v45.2h-10.5V534.5z"
   id="path3764" />
	<path
   class="st44"
   d="M707.9,587.2c-3.9,2.1-8.3,3.2-13.9,3.2c-13.4,0-21.2-7.7-21.2-21c0-11.7,6.2-21.4,18.8-21.4   c15,0,19.3,10.3,19.3,24.5h-28c0.5,6.5,5,10.2,11.6,10.2c5.1,0,9.5-1.9,13.5-4.1V587.2z M700.8,565.2c-0.3-5.1-2.7-9.5-8.6-9.5   c-5.9,0-8.9,4.1-9.4,9.5H700.8z"
   id="path3766" />
	<path
   class="st44"
   d="M719.5,556.6h-7.8v-7.7h7.8v-8.1l10.5-3.4v11.5h9.4v7.7H730v18.9c0,3.5,0.9,6.7,5,6.7c1.9,0,3.7-0.4,4.8-1.1   l0.3,8.3c-2.2,0.6-4.6,0.9-7.8,0.9c-8.3,0-12.8-5.1-12.8-13.1V556.6z"
   id="path3768" />
	<path
   class="st44"
   d="M746.9,551.1c4.1-1.9,9.6-3.1,14.1-3.1c12.4,0,17.5,5.1,17.5,17.1v5.2c0,4.1,0.1,7.2,0.2,10.2   c0.1,3.1,0.2,5.9,0.5,9.1h-9.3c-0.4-2.1-0.4-4.8-0.5-6.1h-0.2c-2.4,4.5-7.7,7-12.5,7c-7.2,0-14.2-4.3-14.2-12   c0-6.1,2.9-9.6,6.9-11.6c4-2,9.2-2.4,13.6-2.4h5.8c0-6.5-2.9-8.7-9.1-8.7c-4.5,0-9,1.7-12.5,4.4L746.9,551.1z M759.2,582.7   c3.2,0,5.7-1.4,7.4-3.6c1.7-2.3,2.2-5.2,2.2-8.3h-4.6c-4.7,0-11.7,0.8-11.7,7C752.5,581.2,755.4,582.7,759.2,582.7z"
   id="path3770" />
	<path
   class="st44"
   d="M786.1,572.6V564h20.7v8.7H786.1z"
   id="path3772" />
	<path
   class="st44"
   d="M649.6,619.4c-4.2-2-9.8-2.9-14.2-2.9c-12.8,0-19.9,8.7-19.9,19.9c0,11.2,6.9,19.6,18.7,19.6   c3,0,5.4-0.3,7.2-0.8v-14.3h-11.7v-8.7H652v29.6c-5.8,1.6-11.9,2.8-17.8,2.8c-17.8,0-30.1-8.9-30.1-27.5   c0-18.8,11.5-29.4,30.1-29.4c6.4,0,11.4,0.9,16.1,2.3L649.6,619.4z"
   id="path3774" />
	<path
   class="st44"
   d="M692,661.4c-3.9,2.1-8.3,3.2-13.9,3.2c-13.4,0-21.2-7.7-21.2-21c0-11.7,6.2-21.4,18.8-21.4   c15,0,19.3,10.3,19.3,24.5h-28c0.5,6.5,5,10.2,11.6,10.2c5.1,0,9.5-1.9,13.5-4.1V661.4z M684.9,639.4c-0.3-5.1-2.7-9.5-8.6-9.5   c-5.9,0-8.9,4.1-9.4,9.5H684.9z"
   id="path3776" />
	<path
   class="st44"
   d="M700.1,623.2h10v5.5h0.2c3.3-4.6,7.8-6.5,13.3-6.5c9.6,0,13.8,6.8,13.8,15.9v25.6h-10.5V642   c0-5-0.1-11.7-6.8-11.7c-7.6,0-9.3,8.3-9.3,13.5v19.8h-10.5V623.2z"
   id="path3778" />
	<path
   class="st44"
   d="M762.1,622.2c12,0,21.3,8.1,21.3,21.5c0,11.7-7.8,20.9-21.3,20.9c-13.4,0-21.2-9.3-21.2-20.9   C740.9,630.3,750.1,622.2,762.1,622.2z M762.1,656.5c8.1,0,10.2-7.2,10.2-14c0-6.2-3.3-12-10.2-12c-6.8,0-10.2,6-10.2,12   C751.9,649.1,754,656.5,762.1,656.5z"
   id="path3780" />
	<path
   class="st44"
   d="M786.7,623.2h9.8v5.7h0.2c3.3-5,8.1-6.6,12-6.6c5.7,0,9.7,2.1,12,7.2c2.4-4.9,7.7-7.2,12.7-7.2   c10,0,12.8,6.8,12.8,15.9v25.6h-10.5v-24.2c0-3.8,0-9.1-6.1-9.1c-7,0-7.9,8.3-7.9,13.6v19.7h-10.5v-24.2c0-3.8,0-9.1-6.1-9.1   c-7,0-7.9,8.3-7.9,13.6v19.7h-10.5V623.2z"
   id="path3782" />
	<path
   class="st44"
   d="M884.6,661.4c-3.9,2.1-8.3,3.2-13.9,3.2c-13.4,0-21.2-7.7-21.2-21c0-11.7,6.2-21.4,18.8-21.4   c15,0,19.3,10.3,19.3,24.5h-28c0.5,6.5,5,10.2,11.6,10.2c5.1,0,9.5-1.9,13.5-4.1V661.4z M877.5,639.4c-0.3-5.1-2.7-9.5-8.6-9.5   c-5.9,0-8.9,4.1-9.4,9.5H877.5z"
   id="path3784" />
</g>
<path
   class="st44"
   d="M575.8,548l-48.7,57c0.1-1.4,0.1-2.9,0.1-4.3c0-35.9-24.4-66.3-57.5-75.3c-1.1-0.3-2,1-1.3,1.9  c5.3,7.2,8.6,12.6,10.5,17.8c0.3,0.9,0.9,1.6,1.7,2c18.3,10.8,30.6,30.8,30.6,53.5c0,22-11.5,41.4-28.9,52.5c-0.7,0.4-1.2,1-1.5,1.7  c-3.3,7-8.6,13.4-15.3,19.8c-0.9,0.9-0.1,2.4,1.1,2.1c17.5-4,32.7-13.9,43.6-27.5l0,0l71.5-83.7C580.2,559.6,578.2,553.7,575.8,548z  "
   id="path3788" />
<path
   class="st44"
   d="M437.5,523.5c-20,3-37.6,13.7-49.6,28.9l0,0l-72,84.2c1.6,6,3.6,11.9,6,17.6l49.3-57.7  c-0.1,1.4-0.1,2.8-0.1,4.2c0,37.4,26.4,68.7,61.6,76.3c1.1,0.2,1.9-1,1.2-2c-5-6.7-8.3-11.8-10.3-16.6c-0.4-0.9-1-1.6-1.9-2  c-20.5-10.1-34.7-31.3-34.7-55.7c0-24.8,14.6-46.2,35.6-56.2c0.8-0.4,1.4-1,1.8-1.7c3.1-5.8,7.7-11.4,14.1-17.2  C439.5,524.8,438.7,523.3,437.5,523.5z"
   id="path3790" />
<path
   class="st44"
   d="M451.9,602.1c3-2.9,25-15.2,25-40.9c0-13.4-3-19.9-17.8-38.6c-11.1-14-35.3-43-45.1-54.6  c-1.7,0.4-3.4,0.9-5.1,1.4c8,11.2,31.5,43.9,43.1,58.7c14.3,18.2,15.9,22.8,15.9,33.1c0,21.1-12.6,33.2-18,38.4  c-5.4,5.2-25.1,15.2-25.1,40.9c0,13.4,3,19.8,17.8,38.6c10.6,13.4,31.2,42.1,40.7,55.2c1.7-0.4,3.4-0.9,5.1-1.4  c-7.9-13.1-27.6-45.3-38.7-59.3c-14.3-18.2-15.9-22.8-15.9-33.1C433.8,619.3,448.8,604.9,451.9,602.1z"
   id="path3792" />
</svg>
