solid Surface 9
  facet normal -0.000000e+00 -1.000000e+00 -0.000000e+00
    outer loop
      vertex 1.962707e+00 -2.500000e+01 5.992773e+01
      vertex -1.962707e+00 -2.500000e+01 5.992773e+01
      vertex 3.920686e+00 -2.500000e+01 5.971108e+01
    endloop
  endfacet
  facet normal -0.000000e+00 -1.000000e+00 0.000000e+00
    outer loop
      vertex 1.962707e+00 -2.500000e+01 5.992773e+01
      vertex -9.797174e-15 -2.500000e+01 6.000000e+01
      vertex -1.962707e+00 -2.500000e+01 5.992773e+01
    endloop
  endfacet
  facet normal -0.000000e+00 -1.000000e+00 -0.000000e+00
    outer loop
      vertex 3.920686e+00 -2.500000e+01 5.971108e+01
      vertex -3.920686e+00 -2.500000e+01 5.971108e+01
      vertex 5.869219e+00 -2.500000e+01 5.935059e+01
    endloop
  endfacet
  facet normal -0.000000e+00 -1.000000e+00 0.000000e+00
    outer loop
      vertex 3.920686e+00 -2.500000e+01 5.971108e+01
      vertex -1.962707e+00 -2.500000e+01 5.992773e+01
      vertex -3.920686e+00 -2.500000e+01 5.971108e+01
    endloop
  endfacet
  facet normal 0.000000e+00 -1.000000e+00 -0.000000e+00
    outer loop
      vertex 5.869219e+00 -2.500000e+01 5.935059e+01
      vertex -5.869219e+00 -2.500000e+01 5.935059e+01
      vertex 7.803613e+00 -2.500000e+01 5.884712e+01
    endloop
  endfacet
  facet normal -0.000000e+00 -1.000000e+00 0.000000e+00
    outer loop
      vertex 5.869219e+00 -2.500000e+01 5.935059e+01
      vertex -3.920686e+00 -2.500000e+01 5.971108e+01
      vertex -5.869219e+00 -2.500000e+01 5.935059e+01
    endloop
  endfacet
  facet normal 0.000000e+00 -1.000000e+00 -0.000000e+00
    outer loop
      vertex 7.803613e+00 -2.500000e+01 5.884712e+01
      vertex -7.803613e+00 -2.500000e+01 5.884712e+01
      vertex 9.719207e+00 -2.500000e+01 5.820187e+01
    endloop
  endfacet
  facet normal -0.000000e+00 -1.000000e+00 0.000000e+00
    outer loop
      vertex 7.803613e+00 -2.500000e+01 5.884712e+01
      vertex -5.869219e+00 -2.500000e+01 5.935059e+01
      vertex -7.803613e+00 -2.500000e+01 5.884712e+01
    endloop
  endfacet
  facet normal 0.000000e+00 -1.000000e+00 -0.000000e+00
    outer loop
      vertex 9.719207e+00 -2.500000e+01 5.820187e+01
      vertex -9.719207e+00 -2.500000e+01 5.820187e+01
      vertex 1.161139e+01 -2.500000e+01 5.741642e+01
    endloop
  endfacet
  facet normal -0.000000e+00 -1.000000e+00 0.000000e+00
    outer loop
      vertex 9.719207e+00 -2.500000e+01 5.820187e+01
      vertex -7.803613e+00 -2.500000e+01 5.884712e+01
      vertex -9.719207e+00 -2.500000e+01 5.820187e+01
    endloop
  endfacet
  facet normal -0.000000e+00 -1.000000e+00 -0.000000e+00
    outer loop
      vertex 1.161139e+01 -2.500000e+01 5.741642e+01
      vertex -1.161139e+01 -2.500000e+01 5.741642e+01
      vertex 1.530734e+01 -2.500000e+01 5.543277e+01
    endloop
  endfacet
  facet normal -0.000000e+00 -1.000000e+00 0.000000e+00
    outer loop
      vertex 1.161139e+01 -2.500000e+01 5.741642e+01
      vertex -9.719207e+00 -2.500000e+01 5.820187e+01
      vertex -1.161139e+01 -2.500000e+01 5.741642e+01
    endloop
  endfacet
  facet normal 0.000000e+00 -1.000000e+00 -0.000000e+00
    outer loop
      vertex 1.530734e+01 -2.500000e+01 5.543277e+01
      vertex -1.530734e+01 -2.500000e+01 5.543277e+01
      vertex 1.885587e+01 -2.500000e+01 5.291528e+01
    endloop
  endfacet
  facet normal -0.000000e+00 -1.000000e+00 0.000000e+00
    outer loop
      vertex 1.530734e+01 -2.500000e+01 5.543277e+01
      vertex -1.161139e+01 -2.500000e+01 5.741642e+01
      vertex -1.530734e+01 -2.500000e+01 5.543277e+01
    endloop
  endfacet
  facet normal -0.000000e+00 -1.000000e+00 -0.000000e+00
    outer loop
      vertex 1.885587e+01 -2.500000e+01 5.291528e+01
      vertex -1.885587e+01 -2.500000e+01 5.291528e+01
      vertex 2.222281e+01 -2.500000e+01 4.988818e+01
    endloop
  endfacet
  facet normal -0.000000e+00 -1.000000e+00 0.000000e+00
    outer loop
      vertex 1.885587e+01 -2.500000e+01 5.291528e+01
      vertex -1.530734e+01 -2.500000e+01 5.543277e+01
      vertex -1.885587e+01 -2.500000e+01 5.291528e+01
    endloop
  endfacet
  facet normal 0.000000e+00 -1.000000e+00 -0.000000e+00
    outer loop
      vertex 2.222281e+01 -2.500000e+01 4.988818e+01
      vertex -2.222281e+01 -2.500000e+01 4.988818e+01
      vertex 2.537573e+01 -2.500000e+01 4.638063e+01
    endloop
  endfacet
  facet normal -0.000000e+00 -1.000000e+00 0.000000e+00
    outer loop
      vertex 2.222281e+01 -2.500000e+01 4.988818e+01
      vertex -1.885587e+01 -2.500000e+01 5.291528e+01
      vertex -2.222281e+01 -2.500000e+01 4.988818e+01
    endloop
  endfacet
  facet normal 0.000000e+00 -1.000000e+00 -0.000000e+00
    outer loop
      vertex -2.222281e+01 -2.500000e+01 4.988818e+01
      vertex -2.537573e+01 -2.500000e+01 4.638063e+01
      vertex 2.537573e+01 -2.500000e+01 4.638063e+01
    endloop
  endfacet
  facet normal 0.000000e+00 -1.000000e+00 -0.000000e+00
    outer loop
      vertex 2.537573e+01 -2.500000e+01 4.638063e+01
      vertex -2.537573e+01 -2.500000e+01 4.638063e+01
      vertex 2.828427e+01 -2.500000e+01 4.242641e+01
    endloop
  endfacet
  facet normal -0.000000e+00 -1.000000e+00 0.000000e+00
    outer loop
      vertex 2.828427e+01 -2.500000e+01 4.242641e+01
      vertex -2.537573e+01 -2.500000e+01 4.638063e+01
      vertex -2.828427e+01 -2.500000e+01 4.242641e+01
    endloop
  endfacet
  facet normal -0.000000e+00 -1.000000e+00 0.000000e+00
    outer loop
      vertex 3.092042e+01 -2.500000e+01 3.806360e+01
      vertex -2.828427e+01 -2.500000e+01 4.242641e+01
      vertex -3.092042e+01 -2.500000e+01 3.806360e+01
    endloop
  endfacet
  facet normal -0.000000e+00 -1.000000e+00 0.000000e+00
    outer loop
      vertex 3.325879e+01 -2.500000e+01 3.333421e+01
      vertex -3.092042e+01 -2.500000e+01 3.806360e+01
      vertex -3.325879e+01 -2.500000e+01 3.333421e+01
    endloop
  endfacet
  facet normal -2.833766e-31 -1.000000e+00 7.034506e-16
    outer loop
      vertex 3.527685e+01 -2.500000e+01 2.828380e+01
      vertex -3.325879e+01 -2.500000e+01 3.333421e+01
      vertex -3.527685e+01 -2.500000e+01 2.828380e+01
    endloop
  endfacet
  facet normal -0.000000e+00 -1.000000e+00 0.000000e+00
    outer loop
      vertex 3.695518e+01 -2.500000e+01 2.296101e+01
      vertex -3.527685e+01 -2.500000e+01 2.828380e+01
      vertex -3.695518e+01 -2.500000e+01 2.296101e+01
    endloop
  endfacet
  facet normal -0.000000e+00 -1.000000e+00 0.000000e+00
    outer loop
      vertex 3.827761e+01 -2.500000e+01 1.741708e+01
      vertex -3.695518e+01 -2.500000e+01 2.296101e+01
      vertex -3.827761e+01 -2.500000e+01 1.741708e+01
    endloop
  endfacet
  facet normal -0.000000e+00 -1.000000e+00 0.000000e+00
    outer loop
      vertex 3.923141e+01 -2.500000e+01 1.170542e+01
      vertex -3.827761e+01 -2.500000e+01 1.741708e+01
      vertex -3.923141e+01 -2.500000e+01 1.170542e+01
    endloop
  endfacet
  facet normal -0.000000e+00 -1.000000e+00 0.000000e+00
    outer loop
      vertex 3.980739e+01 -2.500000e+01 5.881029e+00
      vertex -3.923141e+01 -2.500000e+01 1.170542e+01
      vertex -3.980739e+01 -2.500000e+01 5.881029e+00
    endloop
  endfacet
  facet normal -0.000000e+00 -1.000000e+00 0.000000e+00
    outer loop
      vertex 4.000000e+01 -2.500000e+01 3.061617e-15
      vertex -3.980739e+01 -2.500000e+01 5.881029e+00
      vertex -4.000000e+01 -2.500000e+01 -7.960204e-15
    endloop
  endfacet
  facet normal -0.000000e+00 -1.000000e+00 -0.000000e+00
    outer loop
      vertex 3.980739e+01 -2.500000e+01 -5.881029e+00
      vertex -4.000000e+01 -2.500000e+01 -7.960204e-15
      vertex -3.980739e+01 -2.500000e+01 -5.881029e+00
    endloop
  endfacet
  facet normal -0.000000e+00 -1.000000e+00 -0.000000e+00
    outer loop
      vertex 3.923141e+01 -2.500000e+01 -1.170542e+01
      vertex -3.980739e+01 -2.500000e+01 -5.881029e+00
      vertex -3.923141e+01 -2.500000e+01 -1.170542e+01
    endloop
  endfacet
  facet normal -0.000000e+00 -1.000000e+00 -0.000000e+00
    outer loop
      vertex 3.827761e+01 -2.500000e+01 -1.741708e+01
      vertex -3.923141e+01 -2.500000e+01 -1.170542e+01
      vertex -3.827761e+01 -2.500000e+01 -1.741708e+01
    endloop
  endfacet
  facet normal -0.000000e+00 -1.000000e+00 -0.000000e+00
    outer loop
      vertex 3.695518e+01 -2.500000e+01 -2.296101e+01
      vertex -3.827761e+01 -2.500000e+01 -1.741708e+01
      vertex -3.695518e+01 -2.500000e+01 -2.296101e+01
    endloop
  endfacet
  facet normal -0.000000e+00 -1.000000e+00 -0.000000e+00
    outer loop
      vertex 3.527685e+01 -2.500000e+01 -2.828380e+01
      vertex -3.695518e+01 -2.500000e+01 -2.296101e+01
      vertex -3.527685e+01 -2.500000e+01 -2.828380e+01
    endloop
  endfacet
  facet normal -1.502856e-31 -1.000000e+00 7.034506e-16
    outer loop
      vertex 3.325879e+01 -2.500000e+01 -3.333421e+01
      vertex -3.527685e+01 -2.500000e+01 -2.828380e+01
      vertex -3.325879e+01 -2.500000e+01 -3.333421e+01
    endloop
  endfacet
  facet normal -0.000000e+00 -1.000000e+00 -0.000000e+00
    outer loop
      vertex 3.092042e+01 -2.500000e+01 -3.806360e+01
      vertex -3.325879e+01 -2.500000e+01 -3.333421e+01
      vertex -3.092042e+01 -2.500000e+01 -3.806360e+01
    endloop
  endfacet
  facet normal -0.000000e+00 -1.000000e+00 -0.000000e+00
    outer loop
      vertex 2.828427e+01 -2.500000e+01 -4.242641e+01
      vertex -3.092042e+01 -2.500000e+01 -3.806360e+01
      vertex -2.828427e+01 -2.500000e+01 -4.242641e+01
    endloop
  endfacet
  facet normal -0.000000e+00 -1.000000e+00 -0.000000e+00
    outer loop
      vertex 2.537573e+01 -2.500000e+01 -4.638063e+01
      vertex -2.828427e+01 -2.500000e+01 -4.242641e+01
      vertex -2.537573e+01 -2.500000e+01 -4.638063e+01
    endloop
  endfacet
  facet normal -0.000000e+00 -1.000000e+00 -0.000000e+00
    outer loop
      vertex 2.222281e+01 -2.500000e+01 -4.988818e+01
      vertex -2.537573e+01 -2.500000e+01 -4.638063e+01
      vertex -2.222281e+01 -2.500000e+01 -4.988818e+01
    endloop
  endfacet
  facet normal -0.000000e+00 -1.000000e+00 -0.000000e+00
    outer loop
      vertex 1.885587e+01 -2.500000e+01 -5.291528e+01
      vertex -2.222281e+01 -2.500000e+01 -4.988818e+01
      vertex -1.885587e+01 -2.500000e+01 -5.291528e+01
    endloop
  endfacet
  facet normal -0.000000e+00 -1.000000e+00 -0.000000e+00
    outer loop
      vertex 1.530734e+01 -2.500000e+01 -5.543277e+01
      vertex -1.885587e+01 -2.500000e+01 -5.291528e+01
      vertex -1.530734e+01 -2.500000e+01 -5.543277e+01
    endloop
  endfacet
  facet normal -0.000000e+00 -1.000000e+00 -0.000000e+00
    outer loop
      vertex 1.161139e+01 -2.500000e+01 -5.741642e+01
      vertex -1.530734e+01 -2.500000e+01 -5.543277e+01
      vertex -1.161139e+01 -2.500000e+01 -5.741642e+01
    endloop
  endfacet
  facet normal -0.000000e+00 -1.000000e+00 -0.000000e+00
    outer loop
      vertex 9.719207e+00 -2.500000e+01 -5.820187e+01
      vertex -1.161139e+01 -2.500000e+01 -5.741642e+01
      vertex -9.719207e+00 -2.500000e+01 -5.820187e+01
    endloop
  endfacet
  facet normal -0.000000e+00 -1.000000e+00 -0.000000e+00
    outer loop
      vertex 7.803613e+00 -2.500000e+01 -5.884712e+01
      vertex -9.719207e+00 -2.500000e+01 -5.820187e+01
      vertex -7.803613e+00 -2.500000e+01 -5.884712e+01
    endloop
  endfacet
  facet normal -0.000000e+00 -1.000000e+00 -0.000000e+00
    outer loop
      vertex 5.869219e+00 -2.500000e+01 -5.935059e+01
      vertex -7.803613e+00 -2.500000e+01 -5.884712e+01
      vertex -5.869219e+00 -2.500000e+01 -5.935059e+01
    endloop
  endfacet
  facet normal -0.000000e+00 -1.000000e+00 -0.000000e+00
    outer loop
      vertex 3.920686e+00 -2.500000e+01 -5.971108e+01
      vertex -5.869219e+00 -2.500000e+01 -5.935059e+01
      vertex -3.920686e+00 -2.500000e+01 -5.971108e+01
    endloop
  endfacet
  facet normal -0.000000e+00 -1.000000e+00 -0.000000e+00
    outer loop
      vertex 1.962707e+00 -2.500000e+01 -5.992773e+01
      vertex -3.920686e+00 -2.500000e+01 -5.971108e+01
      vertex -1.962707e+00 -2.500000e+01 -5.992773e+01
    endloop
  endfacet
  facet normal 0.000000e+00 -1.000000e+00 0.000000e+00
    outer loop
      vertex 4.898587e-15 -2.500000e+01 -6.000000e+01
      vertex 1.962707e+00 -2.500000e+01 -5.992773e+01
      vertex -1.962707e+00 -2.500000e+01 -5.992773e+01
    endloop
  endfacet
  facet normal -0.000000e+00 -1.000000e+00 0.000000e+00
    outer loop
      vertex 1.962707e+00 -2.500000e+01 -5.992773e+01
      vertex 3.920686e+00 -2.500000e+01 -5.971108e+01
      vertex -3.920686e+00 -2.500000e+01 -5.971108e+01
    endloop
  endfacet
  facet normal 0.000000e+00 -1.000000e+00 0.000000e+00
    outer loop
      vertex 3.920686e+00 -2.500000e+01 -5.971108e+01
      vertex 5.869219e+00 -2.500000e+01 -5.935059e+01
      vertex -5.869219e+00 -2.500000e+01 -5.935059e+01
    endloop
  endfacet
  facet normal 0.000000e+00 -1.000000e+00 0.000000e+00
    outer loop
      vertex 5.869219e+00 -2.500000e+01 -5.935059e+01
      vertex 7.803613e+00 -2.500000e+01 -5.884712e+01
      vertex -7.803613e+00 -2.500000e+01 -5.884712e+01
    endloop
  endfacet
  facet normal 0.000000e+00 -1.000000e+00 0.000000e+00
    outer loop
      vertex 7.803613e+00 -2.500000e+01 -5.884712e+01
      vertex 9.719207e+00 -2.500000e+01 -5.820187e+01
      vertex -9.719207e+00 -2.500000e+01 -5.820187e+01
    endloop
  endfacet
  facet normal 0.000000e+00 -1.000000e+00 0.000000e+00
    outer loop
      vertex 9.719207e+00 -2.500000e+01 -5.820187e+01
      vertex 1.161139e+01 -2.500000e+01 -5.741642e+01
      vertex -1.161139e+01 -2.500000e+01 -5.741642e+01
    endloop
  endfacet
  facet normal 0.000000e+00 -1.000000e+00 0.000000e+00
    outer loop
      vertex 1.161139e+01 -2.500000e+01 -5.741642e+01
      vertex 1.530734e+01 -2.500000e+01 -5.543277e+01
      vertex -1.530734e+01 -2.500000e+01 -5.543277e+01
    endloop
  endfacet
  facet normal 0.000000e+00 -1.000000e+00 0.000000e+00
    outer loop
      vertex 1.530734e+01 -2.500000e+01 -5.543277e+01
      vertex 1.885587e+01 -2.500000e+01 -5.291528e+01
      vertex -1.885587e+01 -2.500000e+01 -5.291528e+01
    endloop
  endfacet
  facet normal 0.000000e+00 -1.000000e+00 0.000000e+00
    outer loop
      vertex 1.885587e+01 -2.500000e+01 -5.291528e+01
      vertex 2.222281e+01 -2.500000e+01 -4.988818e+01
      vertex -2.222281e+01 -2.500000e+01 -4.988818e+01
    endloop
  endfacet
  facet normal -0.000000e+00 -1.000000e+00 0.000000e+00
    outer loop
      vertex 2.222281e+01 -2.500000e+01 -4.988818e+01
      vertex 2.537573e+01 -2.500000e+01 -4.638063e+01
      vertex -2.537573e+01 -2.500000e+01 -4.638063e+01
    endloop
  endfacet
  facet normal -0.000000e+00 -1.000000e+00 0.000000e+00
    outer loop
      vertex 2.537573e+01 -2.500000e+01 -4.638063e+01
      vertex 2.828427e+01 -2.500000e+01 -4.242641e+01
      vertex -2.828427e+01 -2.500000e+01 -4.242641e+01
    endloop
  endfacet
  facet normal 0.000000e+00 -1.000000e+00 0.000000e+00
    outer loop
      vertex 2.828427e+01 -2.500000e+01 -4.242641e+01
      vertex 3.092042e+01 -2.500000e+01 -3.806360e+01
      vertex -3.092042e+01 -2.500000e+01 -3.806360e+01
    endloop
  endfacet
  facet normal -0.000000e+00 -1.000000e+00 0.000000e+00
    outer loop
      vertex 3.092042e+01 -2.500000e+01 -3.806360e+01
      vertex 3.325879e+01 -2.500000e+01 -3.333421e+01
      vertex -3.325879e+01 -2.500000e+01 -3.333421e+01
    endloop
  endfacet
  facet normal -7.084415e-32 -1.000000e+00 7.034506e-16
    outer loop
      vertex 3.325879e+01 -2.500000e+01 -3.333421e+01
      vertex 3.527685e+01 -2.500000e+01 -2.828380e+01
      vertex -3.527685e+01 -2.500000e+01 -2.828380e+01
    endloop
  endfacet
  facet normal -0.000000e+00 -1.000000e+00 0.000000e+00
    outer loop
      vertex 3.527685e+01 -2.500000e+01 -2.828380e+01
      vertex 3.695518e+01 -2.500000e+01 -2.296101e+01
      vertex -3.695518e+01 -2.500000e+01 -2.296101e+01
    endloop
  endfacet
  facet normal -0.000000e+00 -1.000000e+00 0.000000e+00
    outer loop
      vertex 3.695518e+01 -2.500000e+01 -2.296101e+01
      vertex 3.827761e+01 -2.500000e+01 -1.741708e+01
      vertex -3.827761e+01 -2.500000e+01 -1.741708e+01
    endloop
  endfacet
  facet normal -0.000000e+00 -1.000000e+00 0.000000e+00
    outer loop
      vertex 3.827761e+01 -2.500000e+01 -1.741708e+01
      vertex 3.923141e+01 -2.500000e+01 -1.170542e+01
      vertex -3.923141e+01 -2.500000e+01 -1.170542e+01
    endloop
  endfacet
  facet normal 0.000000e+00 -1.000000e+00 0.000000e+00
    outer loop
      vertex 3.923141e+01 -2.500000e+01 -1.170542e+01
      vertex 3.980739e+01 -2.500000e+01 -5.881029e+00
      vertex -3.980739e+01 -2.500000e+01 -5.881029e+00
    endloop
  endfacet
  facet normal -0.000000e+00 -1.000000e+00 0.000000e+00
    outer loop
      vertex 3.980739e+01 -2.500000e+01 -5.881029e+00
      vertex 4.000000e+01 -2.500000e+01 3.061617e-15
      vertex -4.000000e+01 -2.500000e+01 -7.960204e-15
    endloop
  endfacet
  facet normal 0.000000e+00 -1.000000e+00 0.000000e+00
    outer loop
      vertex -3.980739e+01 -2.500000e+01 5.881029e+00
      vertex 4.000000e+01 -2.500000e+01 3.061617e-15
      vertex 3.980739e+01 -2.500000e+01 5.881029e+00
    endloop
  endfacet
  facet normal 0.000000e+00 -1.000000e+00 0.000000e+00
    outer loop
      vertex -3.923141e+01 -2.500000e+01 1.170542e+01
      vertex 3.980739e+01 -2.500000e+01 5.881029e+00
      vertex 3.923141e+01 -2.500000e+01 1.170542e+01
    endloop
  endfacet
  facet normal 0.000000e+00 -1.000000e+00 0.000000e+00
    outer loop
      vertex -3.827761e+01 -2.500000e+01 1.741708e+01
      vertex 3.923141e+01 -2.500000e+01 1.170542e+01
      vertex 3.827761e+01 -2.500000e+01 1.741708e+01
    endloop
  endfacet
  facet normal 0.000000e+00 -1.000000e+00 0.000000e+00
    outer loop
      vertex -3.695518e+01 -2.500000e+01 2.296101e+01
      vertex 3.827761e+01 -2.500000e+01 1.741708e+01
      vertex 3.695518e+01 -2.500000e+01 2.296101e+01
    endloop
  endfacet
  facet normal 0.000000e+00 -1.000000e+00 0.000000e+00
    outer loop
      vertex -3.527685e+01 -2.500000e+01 2.828380e+01
      vertex 3.695518e+01 -2.500000e+01 2.296101e+01
      vertex 3.527685e+01 -2.500000e+01 2.828380e+01
    endloop
  endfacet
  facet normal -3.005712e-31 -1.000000e+00 7.034506e-16
    outer loop
      vertex -3.325879e+01 -2.500000e+01 3.333421e+01
      vertex 3.527685e+01 -2.500000e+01 2.828380e+01
      vertex 3.325879e+01 -2.500000e+01 3.333421e+01
    endloop
  endfacet
  facet normal 0.000000e+00 -1.000000e+00 0.000000e+00
    outer loop
      vertex -3.092042e+01 -2.500000e+01 3.806360e+01
      vertex 3.325879e+01 -2.500000e+01 3.333421e+01
      vertex 3.092042e+01 -2.500000e+01 3.806360e+01
    endloop
  endfacet
  facet normal 0.000000e+00 -1.000000e+00 0.000000e+00
    outer loop
      vertex -2.828427e+01 -2.500000e+01 4.242641e+01
      vertex 3.092042e+01 -2.500000e+01 3.806360e+01
      vertex 2.828427e+01 -2.500000e+01 4.242641e+01
    endloop
  endfacet
endsolid Surface 9
solid Surface 10
  facet normal 9.994641e-01 -1.509434e-18 -3.273368e-02
    outer loop
      vertex 4.000000e+01 -2.500000e+01 3.061617e-15
      vertex 3.980739e+01 -2.500000e+01 -5.881029e+00
      vertex 4.000000e+01 2.500000e+01 0.000000e+00
    endloop
  endfacet
  facet normal 9.994641e-01 6.977604e-18 -3.273368e-02
    outer loop
      vertex 4.000000e+01 2.500000e+01 0.000000e+00
      vertex 3.980739e+01 -2.500000e+01 -5.881029e+00
      vertex 3.980739e+01 2.500000e+01 -5.881029e+00
    endloop
  endfacet
  facet normal 9.951459e-01 2.097749e-17 -9.841064e-02
    outer loop
      vertex 3.980739e+01 2.500000e+01 -5.881029e+00
      vertex 3.980739e+01 -2.500000e+01 -5.881029e+00
      vertex 3.923141e+01 -2.500000e+01 -1.170542e+01
    endloop
  endfacet
  facet normal 9.863420e-01 4.654052e-17 -1.647105e-01
    outer loop
      vertex 3.923141e+01 2.500000e+01 -1.170542e+01
      vertex 3.923141e+01 -2.500000e+01 -1.170542e+01
      vertex 3.827761e+01 -2.500000e+01 -1.741708e+01
    endloop
  endfacet
  facet normal 9.727093e-01 -1.915003e-16 -2.320273e-01
    outer loop
      vertex 3.827761e+01 2.500000e+01 -1.741708e+01
      vertex 3.827761e+01 -2.500000e+01 -1.741708e+01
      vertex 3.695518e+01 2.500000e+01 -2.296101e+01
    endloop
  endfacet
  facet normal 9.863420e-01 -9.509484e-17 -1.647105e-01
    outer loop
      vertex 3.827761e+01 2.500000e+01 -1.741708e+01
      vertex 3.923141e+01 2.500000e+01 -1.170542e+01
      vertex 3.827761e+01 -2.500000e+01 -1.741708e+01
    endloop
  endfacet
  facet normal 9.727093e-01 1.115953e-16 -2.320273e-01
    outer loop
      vertex 3.827761e+01 -2.500000e+01 -1.741708e+01
      vertex 3.695518e+01 -2.500000e+01 -2.296101e+01
      vertex 3.695518e+01 2.500000e+01 -2.296101e+01
    endloop
  endfacet
  facet normal 9.537140e-01 5.739066e-17 -3.007154e-01
    outer loop
      vertex 3.695518e+01 2.500000e+01 -2.296101e+01
      vertex 3.695518e+01 -2.500000e+01 -2.296101e+01
      vertex 3.527685e+01 -2.500000e+01 -2.828380e+01
    endloop
  endfacet
  facet normal 9.286097e-01 -7.909580e-17 -3.710581e-01
    outer loop
      vertex 3.527685e+01 2.500000e+01 -2.828380e+01
      vertex 3.527685e+01 -2.500000e+01 -2.828380e+01
      vertex 3.325879e+01 -2.500000e+01 -3.333421e+01
    endloop
  endfacet
  facet normal 8.964142e-01 1.418162e-18 -4.432174e-01
    outer loop
      vertex 3.325879e+01 2.500000e+01 -3.333421e+01
      vertex 3.325879e+01 -2.500000e+01 -3.333421e+01
      vertex 3.092042e+01 -2.500000e+01 -3.806360e+01
    endloop
  endfacet
  facet normal 8.558910e-01 0.000000e+00 -5.171562e-01
    outer loop
      vertex 3.092042e+01 2.500000e+01 -3.806360e+01
      vertex 3.092042e+01 -2.500000e+01 -3.806360e+01
      vertex 2.828427e+01 -2.500000e+01 -4.242641e+01
    endloop
  endfacet
  facet normal 8.055514e-01 -1.684060e-16 -5.925260e-01
    outer loop
      vertex 2.828427e+01 2.500000e+01 -4.242641e+01
      vertex 2.828427e+01 -2.500000e+01 -4.242641e+01
      vertex 2.537573e+01 -2.500000e+01 -4.638063e+01
    endloop
  endfacet
  facet normal 7.437023e-01 -3.147257e-17 -6.685110e-01
    outer loop
      vertex 2.537573e+01 2.500000e+01 -4.638063e+01
      vertex 2.537573e+01 -2.500000e+01 -4.638063e+01
      vertex 2.222281e+01 2.500000e+01 -4.988818e+01
    endloop
  endfacet
  facet normal 8.055514e-01 0.000000e+00 -5.925260e-01
    outer loop
      vertex 2.537573e+01 2.500000e+01 -4.638063e+01
      vertex 2.828427e+01 2.500000e+01 -4.242641e+01
      vertex 2.537573e+01 -2.500000e+01 -4.638063e+01
    endloop
  endfacet
  facet normal 7.437023e-01 1.056865e-16 -6.685110e-01
    outer loop
      vertex 2.537573e+01 -2.500000e+01 -4.638063e+01
      vertex 2.222281e+01 -2.500000e+01 -4.988818e+01
      vertex 2.222281e+01 2.500000e+01 -4.988818e+01
    endloop
  endfacet
  facet normal 6.685807e-01 9.501102e-17 -7.436396e-01
    outer loop
      vertex 2.222281e+01 2.500000e+01 -4.988818e+01
      vertex 2.222281e+01 -2.500000e+01 -4.988818e+01
      vertex 1.885587e+01 -2.500000e+01 -5.291528e+01
    endloop
  endfacet
  facet normal 5.786221e-01 1.233407e-16 -8.155957e-01
    outer loop
      vertex 1.885587e+01 2.500000e+01 -5.291528e+01
      vertex 1.885587e+01 -2.500000e+01 -5.291528e+01
      vertex 1.530734e+01 -2.500000e+01 -5.543277e+01
    endloop
  endfacet
  facet normal 4.729020e-01 8.400427e-17 -8.811150e-01
    outer loop
      vertex 1.530734e+01 2.500000e+01 -5.543277e+01
      vertex 1.530734e+01 -2.500000e+01 -5.543277e+01
      vertex 1.161139e+01 -2.500000e+01 -5.741642e+01
    endloop
  endfacet
  facet normal 3.833868e-01 4.086191e-17 -9.235879e-01
    outer loop
      vertex 1.161139e+01 2.500000e+01 -5.741642e+01
      vertex 1.161139e+01 -2.500000e+01 -5.741642e+01
      vertex 9.719207e+00 2.500000e+01 -5.820187e+01
    endloop
  endfacet
  facet normal 4.729020e-01 5.081805e-17 -8.811150e-01
    outer loop
      vertex 1.161139e+01 2.500000e+01 -5.741642e+01
      vertex 1.530734e+01 2.500000e+01 -5.543277e+01
      vertex 1.161139e+01 -2.500000e+01 -5.741642e+01
    endloop
  endfacet
  facet normal 3.833868e-01 6.810318e-17 -9.235879e-01
    outer loop
      vertex 1.161139e+01 -2.500000e+01 -5.741642e+01
      vertex 9.719207e+00 -2.500000e+01 -5.820187e+01
      vertex 9.719207e+00 2.500000e+01 -5.820187e+01
    endloop
  endfacet
  facet normal 3.192139e-01 5.670378e-17 -9.476827e-01
    outer loop
      vertex 9.719207e+00 2.500000e+01 -5.820187e+01
      vertex 9.719207e+00 -2.500000e+01 -5.820187e+01
      vertex 7.803613e+00 -2.500000e+01 -5.884712e+01
    endloop
  endfacet
  facet normal 2.518829e-01 4.474338e-17 -9.677578e-01
    outer loop
      vertex 7.803613e+00 2.500000e+01 -5.884712e+01
      vertex 7.803613e+00 -2.500000e+01 -5.884712e+01
      vertex 5.869219e+00 2.500000e+01 -5.935059e+01
    endloop
  endfacet
  facet normal 3.192139e-01 5.712194e-17 -9.476827e-01
    outer loop
      vertex 7.803613e+00 2.500000e+01 -5.884712e+01
      vertex 9.719207e+00 2.500000e+01 -5.820187e+01
      vertex 7.803613e+00 -2.500000e+01 -5.884712e+01
    endloop
  endfacet
  facet normal 2.518829e-01 4.474338e-17 -9.677578e-01
    outer loop
      vertex 7.803613e+00 -2.500000e+01 -5.884712e+01
      vertex 5.869219e+00 -2.500000e+01 -5.935059e+01
      vertex 5.869219e+00 2.500000e+01 -5.935059e+01
    endloop
  endfacet
  facet normal 1.819202e-01 3.231552e-17 -9.833133e-01
    outer loop
      vertex 5.869219e+00 2.500000e+01 -5.935059e+01
      vertex 5.869219e+00 -2.500000e+01 -5.935059e+01
      vertex 3.920686e+00 -2.500000e+01 -5.971108e+01
    endloop
  endfacet
  facet normal 1.099755e-01 -2.600272e-16 -9.939343e-01
    outer loop
      vertex 3.920686e+00 2.500000e+01 -5.971108e+01
      vertex 3.920686e+00 -2.500000e+01 -5.971108e+01
      vertex 1.962707e+00 2.500000e+01 -5.992773e+01
    endloop
  endfacet
  facet normal 1.819202e-01 -2.420349e-16 -9.833133e-01
    outer loop
      vertex 3.920686e+00 2.500000e+01 -5.971108e+01
      vertex 5.869219e+00 2.500000e+01 -5.935059e+01
      vertex 3.920686e+00 -2.500000e+01 -5.971108e+01
    endloop
  endfacet
  facet normal 1.099755e-01 2.246591e-17 -9.939343e-01
    outer loop
      vertex 3.920686e+00 -2.500000e+01 -5.971108e+01
      vertex 1.962707e+00 -2.500000e+01 -5.992773e+01
      vertex 1.962707e+00 2.500000e+01 -5.992773e+01
    endloop
  endfacet
  facet normal 3.679799e-02 7.517132e-18 -9.993227e-01
    outer loop
      vertex 1.962707e+00 2.500000e+01 -5.992773e+01
      vertex 1.962707e+00 -2.500000e+01 -5.992773e+01
      vertex -4.898587e-15 2.500000e+01 -6.000000e+01
    endloop
  endfacet
  facet normal 3.679799e-02 7.065950e-18 -9.993227e-01
    outer loop
      vertex -4.898587e-15 2.500000e+01 -6.000000e+01
      vertex 1.962707e+00 -2.500000e+01 -5.992773e+01
      vertex 4.898587e-15 -2.500000e+01 -6.000000e+01
    endloop
  endfacet
  facet normal -3.679799e-02 -7.348587e-18 -9.993227e-01
    outer loop
      vertex -1.962707e+00 2.500000e+01 -5.992773e+01
      vertex 4.898587e-15 -2.500000e+01 -6.000000e+01
      vertex -1.962707e+00 -2.500000e+01 -5.992773e+01
    endloop
  endfacet
  facet normal -1.099755e-01 2.598130e-16 -9.939343e-01
    outer loop
      vertex -3.920686e+00 2.500000e+01 -5.971108e+01
      vertex -1.962707e+00 -2.500000e+01 -5.992773e+01
      vertex -3.920686e+00 -2.500000e+01 -5.971108e+01
    endloop
  endfacet
  facet normal -1.819202e-01 2.423116e-16 -9.833133e-01
    outer loop
      vertex -5.869219e+00 -2.500000e+01 -5.935059e+01
      vertex -3.920686e+00 2.500000e+01 -5.971108e+01
      vertex -3.920686e+00 -2.500000e+01 -5.971108e+01
    endloop
  endfacet
  facet normal -1.819202e-01 -3.231552e-17 -9.833133e-01
    outer loop
      vertex -5.869219e+00 -2.500000e+01 -5.935059e+01
      vertex -5.869219e+00 2.500000e+01 -5.935059e+01
      vertex -3.920686e+00 2.500000e+01 -5.971108e+01
    endloop
  endfacet
  facet normal -2.518829e-01 -4.443467e-17 -9.677578e-01
    outer loop
      vertex -5.869219e+00 -2.500000e+01 -5.935059e+01
      vertex -7.803613e+00 2.500000e+01 -5.884712e+01
      vertex -5.869219e+00 2.500000e+01 -5.935059e+01
    endloop
  endfacet
  facet normal -2.518829e-01 -4.474338e-17 -9.677578e-01
    outer loop
      vertex -5.869219e+00 -2.500000e+01 -5.935059e+01
      vertex -7.803613e+00 -2.500000e+01 -5.884712e+01
      vertex -7.803613e+00 2.500000e+01 -5.884712e+01
    endloop
  endfacet
  facet normal -3.192139e-01 -5.670378e-17 -9.476827e-01
    outer loop
      vertex -7.803613e+00 2.500000e+01 -5.884712e+01
      vertex -7.803613e+00 -2.500000e+01 -5.884712e+01
      vertex -9.719207e+00 -2.500000e+01 -5.820187e+01
    endloop
  endfacet
  facet normal -3.833868e-01 -6.810318e-17 -9.235879e-01
    outer loop
      vertex -9.719207e+00 2.500000e+01 -5.820187e+01
      vertex -9.719207e+00 -2.500000e+01 -5.820187e+01
      vertex -1.161139e+01 2.500000e+01 -5.741642e+01
    endloop
  endfacet
  facet normal -3.192139e-01 -5.712194e-17 -9.476827e-01
    outer loop
      vertex -9.719207e+00 2.500000e+01 -5.820187e+01
      vertex -7.803613e+00 2.500000e+01 -5.884712e+01
      vertex -9.719207e+00 -2.500000e+01 -5.820187e+01
    endloop
  endfacet
  facet normal -3.833868e-01 -4.086191e-17 -9.235879e-01
    outer loop
      vertex -9.719207e+00 -2.500000e+01 -5.820187e+01
      vertex -1.161139e+01 -2.500000e+01 -5.741642e+01
      vertex -1.161139e+01 2.500000e+01 -5.741642e+01
    endloop
  endfacet
  facet normal -4.729020e-01 -5.040256e-17 -8.811150e-01
    outer loop
      vertex -1.161139e+01 2.500000e+01 -5.741642e+01
      vertex -1.161139e+01 -2.500000e+01 -5.741642e+01
      vertex -1.530734e+01 -2.500000e+01 -5.543277e+01
    endloop
  endfacet
  facet normal -5.786221e-01 -1.027839e-16 -8.155957e-01
    outer loop
      vertex -1.530734e+01 2.500000e+01 -5.543277e+01
      vertex -1.530734e+01 -2.500000e+01 -5.543277e+01
      vertex -1.885587e+01 -2.500000e+01 -5.291528e+01
    endloop
  endfacet
  facet normal -6.685807e-01 -1.425165e-16 -7.436396e-01
    outer loop
      vertex -1.885587e+01 2.500000e+01 -5.291528e+01
      vertex -1.885587e+01 -2.500000e+01 -5.291528e+01
      vertex -2.222281e+01 -2.500000e+01 -4.988818e+01
    endloop
  endfacet
  facet normal -7.437023e-01 -1.056865e-16 -6.685110e-01
    outer loop
      vertex -2.222281e+01 2.500000e+01 -4.988818e+01
      vertex -2.222281e+01 -2.500000e+01 -4.988818e+01
      vertex -2.537573e+01 2.500000e+01 -4.638063e+01
    endloop
  endfacet
  facet normal -6.685807e-01 -9.416047e-17 -7.436396e-01
    outer loop
      vertex -2.222281e+01 2.500000e+01 -4.988818e+01
      vertex -1.885587e+01 2.500000e+01 -5.291528e+01
      vertex -2.222281e+01 -2.500000e+01 -4.988818e+01
    endloop
  endfacet
  facet normal -7.437023e-01 3.147257e-17 -6.685110e-01
    outer loop
      vertex -2.222281e+01 -2.500000e+01 -4.988818e+01
      vertex -2.537573e+01 -2.500000e+01 -4.638063e+01
      vertex -2.537573e+01 2.500000e+01 -4.638063e+01
    endloop
  endfacet
  facet normal -8.055514e-01 -3.307589e-18 -5.925260e-01
    outer loop
      vertex -2.537573e+01 2.500000e+01 -4.638063e+01
      vertex -2.537573e+01 -2.500000e+01 -4.638063e+01
      vertex -2.828427e+01 -2.500000e+01 -4.242641e+01
    endloop
  endfacet
  facet normal -8.558910e-01 1.469846e-16 -5.171562e-01
    outer loop
      vertex -2.828427e+01 2.500000e+01 -4.242641e+01
      vertex -2.828427e+01 -2.500000e+01 -4.242641e+01
      vertex -3.092042e+01 -2.500000e+01 -3.806360e+01
    endloop
  endfacet
  facet normal -8.964142e-01 -0.000000e+00 -4.432174e-01
    outer loop
      vertex -3.092042e+01 2.500000e+01 -3.806360e+01
      vertex -3.092042e+01 -2.500000e+01 -3.806360e+01
      vertex -3.325879e+01 -2.500000e+01 -3.333421e+01
    endloop
  endfacet
  facet normal -9.286097e-01 -2.650230e-17 -3.710581e-01
    outer loop
      vertex -3.325879e+01 2.500000e+01 -3.333421e+01
      vertex -3.325879e+01 -2.500000e+01 -3.333421e+01
      vertex -3.527685e+01 -2.500000e+01 -2.828380e+01
    endloop
  endfacet
  facet normal -9.537140e-01 2.136711e-17 -3.007154e-01
    outer loop
      vertex -3.527685e+01 2.500000e+01 -2.828380e+01
      vertex -3.527685e+01 -2.500000e+01 -2.828380e+01
      vertex -3.695518e+01 -2.500000e+01 -2.296101e+01
    endloop
  endfacet
  facet normal -9.727093e-01 -1.445684e-16 -2.320273e-01
    outer loop
      vertex -3.695518e+01 2.500000e+01 -2.296101e+01
      vertex -3.695518e+01 -2.500000e+01 -2.296101e+01
      vertex -3.827761e+01 2.500000e+01 -1.741708e+01
    endloop
  endfacet
  facet normal -9.537140e-01 -1.018494e-16 -3.007154e-01
    outer loop
      vertex -3.695518e+01 2.500000e+01 -2.296101e+01
      vertex -3.527685e+01 2.500000e+01 -2.828380e+01
      vertex -3.695518e+01 -2.500000e+01 -2.296101e+01
    endloop
  endfacet
  facet normal -9.727093e-01 1.585273e-16 -2.320273e-01
    outer loop
      vertex -3.695518e+01 -2.500000e+01 -2.296101e+01
      vertex -3.827761e+01 -2.500000e+01 -1.741708e+01
      vertex -3.827761e+01 2.500000e+01 -1.741708e+01
    endloop
  endfacet
  facet normal -9.863420e-01 7.049334e-17 -1.647105e-01
    outer loop
      vertex -3.827761e+01 2.500000e+01 -1.741708e+01
      vertex -3.827761e+01 -2.500000e+01 -1.741708e+01
      vertex -3.923141e+01 -2.500000e+01 -1.170542e+01
    endloop
  endfacet
  facet normal -9.951459e-01 -9.946376e-17 -9.841064e-02
    outer loop
      vertex -3.923141e+01 2.500000e+01 -1.170542e+01
      vertex -3.923141e+01 -2.500000e+01 -1.170542e+01
      vertex -3.980739e+01 -2.500000e+01 -5.881029e+00
    endloop
  endfacet
  facet normal -9.994641e-01 -1.046641e-17 -3.273368e-02
    outer loop
      vertex -3.980739e+01 2.500000e+01 -5.881029e+00
      vertex -3.980739e+01 -2.500000e+01 -5.881029e+00
      vertex -4.000000e+01 -2.500000e+01 -7.960204e-15
    endloop
  endfacet
  facet normal -9.994641e-01 -7.616567e-18 3.273368e-02
    outer loop
      vertex -4.000000e+01 2.500000e+01 3.673940e-15
      vertex -4.000000e+01 -2.500000e+01 -7.960204e-15
      vertex -3.980739e+01 -2.500000e+01 5.881029e+00
    endloop
  endfacet
  facet normal -9.951459e-01 2.076681e-16 9.841064e-02
    outer loop
      vertex -3.980739e+01 2.500000e+01 5.881029e+00
      vertex -3.980739e+01 -2.500000e+01 5.881029e+00
      vertex -3.923141e+01 -2.500000e+01 1.170542e+01
    endloop
  endfacet
  facet normal -9.863420e-01 0.000000e+00 1.647105e-01
    outer loop
      vertex -3.923141e+01 2.500000e+01 1.170542e+01
      vertex -3.923141e+01 -2.500000e+01 1.170542e+01
      vertex -3.827761e+01 -2.500000e+01 1.741708e+01
    endloop
  endfacet
  facet normal -9.727093e-01 5.960807e-17 2.320273e-01
    outer loop
      vertex -3.827761e+01 2.500000e+01 1.741708e+01
      vertex -3.827761e+01 -2.500000e+01 1.741708e+01
      vertex -3.695518e+01 2.500000e+01 2.296101e+01
    endloop
  endfacet
  facet normal -9.863420e-01 0.000000e+00 1.647105e-01
    outer loop
      vertex -3.827761e+01 2.500000e+01 1.741708e+01
      vertex -3.923141e+01 2.500000e+01 1.170542e+01
      vertex -3.827761e+01 -2.500000e+01 1.741708e+01
    endloop
  endfacet
  facet normal -9.727093e-01 -2.270010e-16 2.320273e-01
    outer loop
      vertex -3.827761e+01 -2.500000e+01 1.741708e+01
      vertex -3.695518e+01 -2.500000e+01 2.296101e+01
      vertex -3.695518e+01 2.500000e+01 2.296101e+01
    endloop
  endfacet
  facet normal -9.537140e-01 -2.069605e-16 3.007154e-01
    outer loop
      vertex -3.695518e+01 2.500000e+01 2.296101e+01
      vertex -3.695518e+01 -2.500000e+01 2.296101e+01
      vertex -3.527685e+01 -2.500000e+01 2.828380e+01
    endloop
  endfacet
  facet normal -9.286097e-01 -7.909580e-17 3.710581e-01
    outer loop
      vertex -3.527685e+01 2.500000e+01 2.828380e+01
      vertex -3.527685e+01 -2.500000e+01 2.828380e+01
      vertex -3.325879e+01 -2.500000e+01 3.333421e+01
    endloop
  endfacet
  facet normal -8.964142e-01 1.302244e-16 4.432174e-01
    outer loop
      vertex -3.325879e+01 2.500000e+01 3.333421e+01
      vertex -3.325879e+01 -2.500000e+01 3.333421e+01
      vertex -3.092042e+01 -2.500000e+01 3.806360e+01
    endloop
  endfacet
  facet normal -8.558910e-01 -1.368804e-16 5.171562e-01
    outer loop
      vertex -3.092042e+01 2.500000e+01 3.806360e+01
      vertex -3.092042e+01 -2.500000e+01 3.806360e+01
      vertex -2.828427e+01 -2.500000e+01 4.242641e+01
    endloop
  endfacet
  facet normal -8.055514e-01 1.717136e-16 5.925260e-01
    outer loop
      vertex -2.828427e+01 2.500000e+01 4.242641e+01
      vertex -2.828427e+01 -2.500000e+01 4.242641e+01
      vertex -2.537573e+01 -2.500000e+01 4.638063e+01
    endloop
  endfacet
  facet normal -7.437023e-01 3.147257e-17 6.685110e-01
    outer loop
      vertex -2.537573e+01 2.500000e+01 4.638063e+01
      vertex -2.537573e+01 -2.500000e+01 4.638063e+01
      vertex -2.222281e+01 2.500000e+01 4.988818e+01
    endloop
  endfacet
  facet normal -8.055514e-01 -7.237566e-18 5.925260e-01
    outer loop
      vertex -2.537573e+01 2.500000e+01 4.638063e+01
      vertex -2.828427e+01 2.500000e+01 4.242641e+01
      vertex -2.537573e+01 -2.500000e+01 4.638063e+01
    endloop
  endfacet
  facet normal -7.437023e-01 0.000000e+00 6.685110e-01
    outer loop
      vertex -2.537573e+01 -2.500000e+01 4.638063e+01
      vertex -2.222281e+01 -2.500000e+01 4.988818e+01
      vertex -2.222281e+01 2.500000e+01 4.988818e+01
    endloop
  endfacet
  facet normal -6.685807e-01 0.000000e+00 7.436396e-01
    outer loop
      vertex -2.222281e+01 2.500000e+01 4.988818e+01
      vertex -2.222281e+01 -2.500000e+01 4.988818e+01
      vertex -1.885587e+01 -2.500000e+01 5.291528e+01
    endloop
  endfacet
  facet normal -5.786221e-01 1.644543e-16 8.155957e-01
    outer loop
      vertex -1.885587e+01 2.500000e+01 5.291528e+01
      vertex -1.885587e+01 -2.500000e+01 5.291528e+01
      vertex -1.530734e+01 -2.500000e+01 5.543277e+01
    endloop
  endfacet
  facet normal -4.729020e-01 1.838571e-17 8.811150e-01
    outer loop
      vertex -1.530734e+01 2.500000e+01 5.543277e+01
      vertex -1.530734e+01 -2.500000e+01 5.543277e+01
      vertex -1.161139e+01 -2.500000e+01 5.741642e+01
    endloop
  endfacet
  facet normal -3.833868e-01 5.077514e-17 9.235879e-01
    outer loop
      vertex -1.161139e+01 2.500000e+01 5.741642e+01
      vertex -1.161139e+01 -2.500000e+01 5.741642e+01
      vertex -9.719207e+00 2.500000e+01 5.820187e+01
    endloop
  endfacet
  facet normal -4.729020e-01 1.355148e-16 8.811150e-01
    outer loop
      vertex -1.161139e+01 2.500000e+01 5.741642e+01
      vertex -1.530734e+01 2.500000e+01 5.543277e+01
      vertex -1.161139e+01 -2.500000e+01 5.741642e+01
    endloop
  endfacet
  facet normal -3.833868e-01 9.163704e-17 9.235879e-01
    outer loop
      vertex -1.161139e+01 -2.500000e+01 5.741642e+01
      vertex -9.719207e+00 -2.500000e+01 5.820187e+01
      vertex -9.719207e+00 2.500000e+01 5.820187e+01
    endloop
  endfacet
  facet normal -3.192139e-01 2.551203e-17 9.476827e-01
    outer loop
      vertex -9.719207e+00 2.500000e+01 5.820187e+01
      vertex -9.719207e+00 -2.500000e+01 5.820187e+01
      vertex -7.803613e+00 -2.500000e+01 5.884712e+01
    endloop
  endfacet
  facet normal -2.518829e-01 -1.855665e-16 9.677578e-01
    outer loop
      vertex -7.803613e+00 2.500000e+01 5.884712e+01
      vertex -7.803613e+00 -2.500000e+01 5.884712e+01
      vertex -5.869219e+00 2.500000e+01 5.935059e+01
    endloop
  endfacet
  facet normal -3.192139e-01 -1.559868e-16 9.476827e-01
    outer loop
      vertex -7.803613e+00 2.500000e+01 5.884712e+01
      vertex -9.719207e+00 2.500000e+01 5.820187e+01
      vertex -7.803613e+00 -2.500000e+01 5.884712e+01
    endloop
  endfacet
  facet normal -2.518829e-01 -5.369206e-17 9.677578e-01
    outer loop
      vertex -7.803613e+00 -2.500000e+01 5.884712e+01
      vertex -5.869219e+00 -2.500000e+01 5.935059e+01
      vertex -5.869219e+00 2.500000e+01 5.935059e+01
    endloop
  endfacet
  facet normal -1.819202e-01 -3.877862e-17 9.833133e-01
    outer loop
      vertex -5.869219e+00 2.500000e+01 5.935059e+01
      vertex -5.869219e+00 -2.500000e+01 5.935059e+01
      vertex -3.920686e+00 -2.500000e+01 5.971108e+01
    endloop
  endfacet
  facet normal -1.099755e-01 -6.837451e-18 9.939343e-01
    outer loop
      vertex -3.920686e+00 2.500000e+01 5.971108e+01
      vertex -3.920686e+00 -2.500000e+01 5.971108e+01
      vertex -1.962707e+00 2.500000e+01 5.992773e+01
    endloop
  endfacet
  facet normal -1.819202e-01 -1.120532e-17 9.833133e-01
    outer loop
      vertex -3.920686e+00 2.500000e+01 5.971108e+01
      vertex -5.869219e+00 2.500000e+01 5.935059e+01
      vertex -3.920686e+00 -2.500000e+01 5.971108e+01
    endloop
  endfacet
  facet normal -1.099755e-01 6.349061e-18 9.939343e-01
    outer loop
      vertex -3.920686e+00 -2.500000e+01 5.971108e+01
      vertex -1.962707e+00 -2.500000e+01 5.992773e+01
      vertex -1.962707e+00 2.500000e+01 5.992773e+01
    endloop
  endfacet
  facet normal -3.679799e-02 2.124407e-18 9.993227e-01
    outer loop
      vertex -1.962707e+00 2.500000e+01 5.992773e+01
      vertex -1.962707e+00 -2.500000e+01 5.992773e+01
      vertex 0.000000e+00 2.500000e+01 6.000000e+01
    endloop
  endfacet
  facet normal -3.679799e-02 7.065950e-18 9.993227e-01
    outer loop
      vertex 0.000000e+00 2.500000e+01 6.000000e+01
      vertex -1.962707e+00 -2.500000e+01 5.992773e+01
      vertex -9.797174e-15 -2.500000e+01 6.000000e+01
    endloop
  endfacet
  facet normal 3.679799e-02 -1.215343e-17 9.993227e-01
    outer loop
      vertex 1.962707e+00 2.500000e+01 5.992773e+01
      vertex -9.797174e-15 -2.500000e+01 6.000000e+01
      vertex 1.962707e+00 -2.500000e+01 5.992773e+01
    endloop
  endfacet
  facet normal 1.099755e-01 -5.184988e-17 9.939343e-01
    outer loop
      vertex 3.920686e+00 2.500000e+01 5.971108e+01
      vertex 1.962707e+00 -2.500000e+01 5.992773e+01
      vertex 3.920686e+00 -2.500000e+01 5.971108e+01
    endloop
  endfacet
  facet normal 1.819202e-01 -8.563612e-17 9.833133e-01
    outer loop
      vertex 5.869219e+00 -2.500000e+01 5.935059e+01
      vertex 3.920686e+00 2.500000e+01 5.971108e+01
      vertex 3.920686e+00 -2.500000e+01 5.971108e+01
    endloop
  endfacet
  facet normal 1.819202e-01 2.986446e-17 9.833133e-01
    outer loop
      vertex 5.869219e+00 -2.500000e+01 5.935059e+01
      vertex 5.869219e+00 2.500000e+01 5.935059e+01
      vertex 3.920686e+00 2.500000e+01 5.971108e+01
    endloop
  endfacet
  facet normal 2.518829e-01 -1.444127e-17 9.677578e-01
    outer loop
      vertex 5.869219e+00 -2.500000e+01 5.935059e+01
      vertex 7.803613e+00 2.500000e+01 5.884712e+01
      vertex 5.869219e+00 2.500000e+01 5.935059e+01
    endloop
  endfacet
  facet normal 2.518829e-01 -8.948676e-18 9.677578e-01
    outer loop
      vertex 5.869219e+00 -2.500000e+01 5.935059e+01
      vertex 7.803613e+00 -2.500000e+01 5.884712e+01
      vertex 7.803613e+00 2.500000e+01 5.884712e+01
    endloop
  endfacet
  facet normal 3.192139e-01 -1.134076e-17 9.476827e-01
    outer loop
      vertex 7.803613e+00 2.500000e+01 5.884712e+01
      vertex 7.803613e+00 -2.500000e+01 5.884712e+01
      vertex 9.719207e+00 -2.500000e+01 5.820187e+01
    endloop
  endfacet
  facet normal 3.833868e-01 2.043095e-16 9.235879e-01
    outer loop
      vertex 9.719207e+00 2.500000e+01 5.820187e+01
      vertex 9.719207e+00 -2.500000e+01 5.820187e+01
      vertex 1.161139e+01 2.500000e+01 5.741642e+01
    endloop
  endfacet
  facet normal 3.192139e-01 1.713658e-16 9.476827e-01
    outer loop
      vertex 9.719207e+00 2.500000e+01 5.820187e+01
      vertex 7.803613e+00 2.500000e+01 5.884712e+01
      vertex 9.719207e+00 -2.500000e+01 5.820187e+01
    endloop
  endfacet
  facet normal 3.833868e-01 -8.543121e-17 9.235879e-01
    outer loop
      vertex 9.719207e+00 -2.500000e+01 5.820187e+01
      vertex 1.161139e+01 -2.500000e+01 5.741642e+01
      vertex 1.161139e+01 2.500000e+01 5.741642e+01
    endloop
  endfacet
  facet normal 4.729020e-01 -3.201685e-17 8.811150e-01
    outer loop
      vertex 1.161139e+01 2.500000e+01 5.741642e+01
      vertex 1.161139e+01 -2.500000e+01 5.741642e+01
      vertex 1.530734e+01 -2.500000e+01 5.543277e+01
    endloop
  endfacet
  facet normal 5.786221e-01 1.233407e-16 8.155957e-01
    outer loop
      vertex 1.530734e+01 2.500000e+01 5.543277e+01
      vertex 1.530734e+01 -2.500000e+01 5.543277e+01
      vertex 1.885587e+01 -2.500000e+01 5.291528e+01
    endloop
  endfacet
  facet normal 6.685807e-01 -4.750551e-17 7.436396e-01
    outer loop
      vertex 1.885587e+01 2.500000e+01 5.291528e+01
      vertex 1.885587e+01 -2.500000e+01 5.291528e+01
      vertex 2.222281e+01 -2.500000e+01 4.988818e+01
    endloop
  endfacet
  facet normal 7.437023e-01 1.157884e-16 6.685110e-01
    outer loop
      vertex 2.222281e+01 2.500000e+01 4.988818e+01
      vertex 2.222281e+01 -2.500000e+01 4.988818e+01
      vertex 2.537573e+01 2.500000e+01 4.638063e+01
    endloop
  endfacet
  facet normal 6.685807e-01 1.804742e-16 7.436396e-01
    outer loop
      vertex 2.222281e+01 2.500000e+01 4.988818e+01
      vertex 1.885587e+01 2.500000e+01 5.291528e+01
      vertex 2.222281e+01 -2.500000e+01 4.988818e+01
    endloop
  endfacet
  facet normal 7.437023e-01 -4.274132e-17 6.685110e-01
    outer loop
      vertex 2.222281e+01 -2.500000e+01 4.988818e+01
      vertex 2.537573e+01 -2.500000e+01 4.638063e+01
      vertex 2.537573e+01 2.500000e+01 4.638063e+01
    endloop
  endfacet
  facet normal 8.055514e-01 -1.210909e-16 5.925260e-01
    outer loop
      vertex 2.537573e+01 2.500000e+01 4.638063e+01
      vertex 2.537573e+01 -2.500000e+01 4.638063e+01
      vertex 2.828427e+01 -2.500000e+01 4.242641e+01
    endloop
  endfacet
  facet normal 8.558910e-01 -3.545949e-17 5.171562e-01
    outer loop
      vertex 2.828427e+01 2.500000e+01 4.242641e+01
      vertex 2.828427e+01 -2.500000e+01 4.242641e+01
      vertex 3.092042e+01 -2.500000e+01 3.806360e+01
    endloop
  endfacet
  facet normal 8.964142e-01 1.418162e-18 4.432174e-01
    outer loop
      vertex 3.092042e+01 2.500000e+01 3.806360e+01
      vertex 3.092042e+01 -2.500000e+01 3.806360e+01
      vertex 3.325879e+01 -2.500000e+01 3.333421e+01
    endloop
  endfacet
  facet normal 9.286097e-01 0.000000e+00 3.710581e-01
    outer loop
      vertex 3.325879e+01 2.500000e+01 3.333421e+01
      vertex 3.325879e+01 -2.500000e+01 3.333421e+01
      vertex 3.527685e+01 -2.500000e+01 2.828380e+01
    endloop
  endfacet
  facet normal 9.537140e-01 -2.869533e-17 3.007154e-01
    outer loop
      vertex 3.527685e+01 2.500000e+01 2.828380e+01
      vertex 3.527685e+01 -2.500000e+01 2.828380e+01
      vertex 3.695518e+01 -2.500000e+01 2.296101e+01
    endloop
  endfacet
  facet normal 9.727093e-01 -7.862223e-17 2.320273e-01
    outer loop
      vertex 3.695518e+01 2.500000e+01 2.296101e+01
      vertex 3.695518e+01 -2.500000e+01 2.296101e+01
      vertex 3.827761e+01 2.500000e+01 1.741708e+01
    endloop
  endfacet
  facet normal 9.537140e-01 -1.909675e-17 3.007154e-01
    outer loop
      vertex 3.695518e+01 2.500000e+01 2.296101e+01
      vertex 3.527685e+01 2.500000e+01 2.828380e+01
      vertex 3.695518e+01 -2.500000e+01 2.296101e+01
    endloop
  endfacet
  facet normal 9.727093e-01 1.750138e-16 2.320273e-01
    outer loop
      vertex 3.695518e+01 -2.500000e+01 2.296101e+01
      vertex 3.827761e+01 -2.500000e+01 1.741708e+01
      vertex 3.827761e+01 2.500000e+01 1.741708e+01
    endloop
  endfacet
  facet normal 9.863420e-01 8.219673e-17 1.647105e-01
    outer loop
      vertex 3.827761e+01 2.500000e+01 1.741708e+01
      vertex 3.827761e+01 -2.500000e+01 1.741708e+01
      vertex 3.923141e+01 -2.500000e+01 1.170542e+01
    endloop
  endfacet
  facet normal 9.951459e-01 -8.198252e-17 9.841064e-02
    outer loop
      vertex 3.923141e+01 2.500000e+01 1.170542e+01
      vertex 3.923141e+01 -2.500000e+01 1.170542e+01
      vertex 3.980739e+01 -2.500000e+01 5.881029e+00
    endloop
  endfacet
  facet normal 9.994641e-01 2.782501e-16 3.273368e-02
    outer loop
      vertex 3.980739e+01 2.500000e+01 5.881029e+00
      vertex 3.980739e+01 -2.500000e+01 5.881029e+00
      vertex 4.000000e+01 -2.500000e+01 3.061617e-15
    endloop
  endfacet
  facet normal 9.994641e-01 1.509434e-18 3.273368e-02
    outer loop
      vertex 4.000000e+01 2.500000e+01 0.000000e+00
      vertex 3.980739e+01 2.500000e+01 5.881029e+00
      vertex 4.000000e+01 -2.500000e+01 3.061617e-15
    endloop
  endfacet
  facet normal 9.951459e-01 2.640497e-16 9.841064e-02
    outer loop
      vertex 3.980739e+01 2.500000e+01 5.881029e+00
      vertex 3.923141e+01 2.500000e+01 1.170542e+01
      vertex 3.980739e+01 -2.500000e+01 5.881029e+00
    endloop
  endfacet
  facet normal 9.863420e-01 -3.987848e-17 1.647105e-01
    outer loop
      vertex 3.923141e+01 2.500000e+01 1.170542e+01
      vertex 3.827761e+01 2.500000e+01 1.741708e+01
      vertex 3.923141e+01 -2.500000e+01 1.170542e+01
    endloop
  endfacet
  facet normal 9.286097e-01 0.000000e+00 3.710581e-01
    outer loop
      vertex 3.527685e+01 2.500000e+01 2.828380e+01
      vertex 3.325879e+01 2.500000e+01 3.333421e+01
      vertex 3.527685e+01 -2.500000e+01 2.828380e+01
    endloop
  endfacet
  facet normal 8.964142e-01 0.000000e+00 4.432174e-01
    outer loop
      vertex 3.325879e+01 2.500000e+01 3.333421e+01
      vertex 3.092042e+01 2.500000e+01 3.806360e+01
      vertex 3.325879e+01 -2.500000e+01 3.333421e+01
    endloop
  endfacet
  facet normal 8.558910e-01 -2.090902e-17 5.171562e-01
    outer loop
      vertex 3.092042e+01 2.500000e+01 3.806360e+01
      vertex 2.828427e+01 2.500000e+01 4.242641e+01
      vertex 3.092042e+01 -2.500000e+01 3.806360e+01
    endloop
  endfacet
  facet normal 8.055514e-01 -7.237566e-18 5.925260e-01
    outer loop
      vertex 2.828427e+01 2.500000e+01 4.242641e+01
      vertex 2.537573e+01 2.500000e+01 4.638063e+01
      vertex 2.828427e+01 -2.500000e+01 4.242641e+01
    endloop
  endfacet
  facet normal 5.786221e-01 -4.082784e-17 8.155957e-01
    outer loop
      vertex 1.885587e+01 2.500000e+01 5.291528e+01
      vertex 1.530734e+01 2.500000e+01 5.543277e+01
      vertex 1.885587e+01 -2.500000e+01 5.291528e+01
    endloop
  endfacet
  facet normal 4.729020e-01 1.016361e-16 8.811150e-01
    outer loop
      vertex 1.530734e+01 2.500000e+01 5.543277e+01
      vertex 1.161139e+01 2.500000e+01 5.741642e+01
      vertex 1.530734e+01 -2.500000e+01 5.543277e+01
    endloop
  endfacet
  facet normal 1.099755e-01 -3.662920e-17 9.939343e-01
    outer loop
      vertex 3.920686e+00 2.500000e+01 5.971108e+01
      vertex 1.962707e+00 2.500000e+01 5.992773e+01
      vertex 1.962707e+00 -2.500000e+01 5.992773e+01
    endloop
  endfacet
  facet normal 3.679799e-02 -7.210327e-18 9.993227e-01
    outer loop
      vertex 1.962707e+00 2.500000e+01 5.992773e+01
      vertex 0.000000e+00 2.500000e+01 6.000000e+01
      vertex -9.797174e-15 -2.500000e+01 6.000000e+01
    endloop
  endfacet
  facet normal -5.786221e-01 9.798682e-17 8.155957e-01
    outer loop
      vertex -1.530734e+01 2.500000e+01 5.543277e+01
      vertex -1.885587e+01 2.500000e+01 5.291528e+01
      vertex -1.530734e+01 -2.500000e+01 5.543277e+01
    endloop
  endfacet
  facet normal -6.685807e-01 1.961676e-16 7.436396e-01
    outer loop
      vertex -1.885587e+01 2.500000e+01 5.291528e+01
      vertex -2.222281e+01 2.500000e+01 4.988818e+01
      vertex -1.885587e+01 -2.500000e+01 5.291528e+01
    endloop
  endfacet
  facet normal -8.558910e-01 1.812115e-16 5.171562e-01
    outer loop
      vertex -2.828427e+01 2.500000e+01 4.242641e+01
      vertex -3.092042e+01 2.500000e+01 3.806360e+01
      vertex -2.828427e+01 -2.500000e+01 4.242641e+01
    endloop
  endfacet
  facet normal -8.964142e-01 -5.387092e-17 4.432174e-01
    outer loop
      vertex -3.092042e+01 2.500000e+01 3.806360e+01
      vertex -3.325879e+01 2.500000e+01 3.333421e+01
      vertex -3.092042e+01 -2.500000e+01 3.806360e+01
    endloop
  endfacet
  facet normal -9.286097e-01 1.829047e-16 3.710581e-01
    outer loop
      vertex -3.325879e+01 2.500000e+01 3.333421e+01
      vertex -3.527685e+01 2.500000e+01 2.828380e+01
      vertex -3.325879e+01 -2.500000e+01 3.333421e+01
    endloop
  endfacet
  facet normal -9.537140e-01 -6.365585e-17 3.007154e-01
    outer loop
      vertex -3.527685e+01 2.500000e+01 2.828380e+01
      vertex -3.695518e+01 2.500000e+01 2.296101e+01
      vertex -3.527685e+01 -2.500000e+01 2.828380e+01
    endloop
  endfacet
  facet normal -9.951459e-01 0.000000e+00 9.841064e-02
    outer loop
      vertex -3.923141e+01 2.500000e+01 1.170542e+01
      vertex -3.980739e+01 2.500000e+01 5.881029e+00
      vertex -3.923141e+01 -2.500000e+01 1.170542e+01
    endloop
  endfacet
  facet normal -9.994641e-01 2.588679e-16 3.273368e-02
    outer loop
      vertex -3.980739e+01 2.500000e+01 5.881029e+00
      vertex -4.000000e+01 2.500000e+01 3.673940e-15
      vertex -3.980739e+01 -2.500000e+01 5.881029e+00
    endloop
  endfacet
  facet normal -9.994641e-01 8.301887e-18 -3.273368e-02
    outer loop
      vertex -4.000000e+01 2.500000e+01 3.673940e-15
      vertex -3.980739e+01 2.500000e+01 -5.881029e+00
      vertex -4.000000e+01 -2.500000e+01 -7.960204e-15
    endloop
  endfacet
  facet normal -9.951459e-01 -3.035054e-17 -9.841064e-02
    outer loop
      vertex -3.980739e+01 2.500000e+01 -5.881029e+00
      vertex -3.923141e+01 2.500000e+01 -1.170542e+01
      vertex -3.980739e+01 -2.500000e+01 -5.881029e+00
    endloop
  endfacet
  facet normal -9.863420e-01 -7.055424e-17 -1.647105e-01
    outer loop
      vertex -3.923141e+01 2.500000e+01 -1.170542e+01
      vertex -3.827761e+01 2.500000e+01 -1.741708e+01
      vertex -3.923141e+01 -2.500000e+01 -1.170542e+01
    endloop
  endfacet
  facet normal -9.286097e-01 2.612924e-17 -3.710581e-01
    outer loop
      vertex -3.527685e+01 2.500000e+01 -2.828380e+01
      vertex -3.325879e+01 2.500000e+01 -3.333421e+01
      vertex -3.527685e+01 -2.500000e+01 -2.828380e+01
    endloop
  endfacet
  facet normal -8.964142e-01 0.000000e+00 -4.432174e-01
    outer loop
      vertex -3.325879e+01 2.500000e+01 -3.333421e+01
      vertex -3.092042e+01 2.500000e+01 -3.806360e+01
      vertex -3.325879e+01 -2.500000e+01 -3.333421e+01
    endloop
  endfacet
  facet normal -8.558910e-01 0.000000e+00 -5.171562e-01
    outer loop
      vertex -3.092042e+01 2.500000e+01 -3.806360e+01
      vertex -2.828427e+01 2.500000e+01 -4.242641e+01
      vertex -3.092042e+01 -2.500000e+01 -3.806360e+01
    endloop
  endfacet
  facet normal -8.055514e-01 1.664640e-16 -5.925260e-01
    outer loop
      vertex -2.828427e+01 2.500000e+01 -4.242641e+01
      vertex -2.537573e+01 2.500000e+01 -4.638063e+01
      vertex -2.828427e+01 -2.500000e+01 -4.242641e+01
    endloop
  endfacet
  facet normal -5.786221e-01 -1.224835e-16 -8.155957e-01
    outer loop
      vertex -1.885587e+01 2.500000e+01 -5.291528e+01
      vertex -1.530734e+01 2.500000e+01 -5.543277e+01
      vertex -1.885587e+01 -2.500000e+01 -5.291528e+01
    endloop
  endfacet
  facet normal -4.729020e-01 -8.469674e-17 -8.811150e-01
    outer loop
      vertex -1.530734e+01 2.500000e+01 -5.543277e+01
      vertex -1.161139e+01 2.500000e+01 -5.741642e+01
      vertex -1.530734e+01 -2.500000e+01 -5.543277e+01
    endloop
  endfacet
  facet normal -1.099755e-01 -2.246591e-17 -9.939343e-01
    outer loop
      vertex -3.920686e+00 2.500000e+01 -5.971108e+01
      vertex -1.962707e+00 2.500000e+01 -5.992773e+01
      vertex -1.962707e+00 -2.500000e+01 -5.992773e+01
    endloop
  endfacet
  facet normal -3.679799e-02 -7.210327e-18 -9.993227e-01
    outer loop
      vertex -1.962707e+00 2.500000e+01 -5.992773e+01
      vertex -4.898587e-15 2.500000e+01 -6.000000e+01
      vertex 4.898587e-15 -2.500000e+01 -6.000000e+01
    endloop
  endfacet
  facet normal 5.786221e-01 1.061524e-16 -8.155957e-01
    outer loop
      vertex 1.530734e+01 2.500000e+01 -5.543277e+01
      vertex 1.885587e+01 2.500000e+01 -5.291528e+01
      vertex 1.530734e+01 -2.500000e+01 -5.543277e+01
    endloop
  endfacet
  facet normal 6.685807e-01 1.490874e-16 -7.436396e-01
    outer loop
      vertex 1.885587e+01 2.500000e+01 -5.291528e+01
      vertex 2.222281e+01 2.500000e+01 -4.988818e+01
      vertex 1.885587e+01 -2.500000e+01 -5.291528e+01
    endloop
  endfacet
  facet normal 8.558910e-01 -1.463631e-16 -5.171562e-01
    outer loop
      vertex 2.828427e+01 2.500000e+01 -4.242641e+01
      vertex 3.092042e+01 2.500000e+01 -3.806360e+01
      vertex 2.828427e+01 -2.500000e+01 -4.242641e+01
    endloop
  endfacet
  facet normal 8.964142e-01 0.000000e+00 -4.432174e-01
    outer loop
      vertex 3.092042e+01 2.500000e+01 -3.806360e+01
      vertex 3.325879e+01 2.500000e+01 -3.333421e+01
      vertex 3.092042e+01 -2.500000e+01 -3.806360e+01
    endloop
  endfacet
  facet normal 9.286097e-01 2.612924e-17 -3.710581e-01
    outer loop
      vertex 3.325879e+01 2.500000e+01 -3.333421e+01
      vertex 3.527685e+01 2.500000e+01 -2.828380e+01
      vertex 3.325879e+01 -2.500000e+01 -3.333421e+01
    endloop
  endfacet
  facet normal 9.537140e-01 -6.365585e-17 -3.007154e-01
    outer loop
      vertex 3.527685e+01 2.500000e+01 -2.828380e+01
      vertex 3.695518e+01 2.500000e+01 -2.296101e+01
      vertex 3.527685e+01 -2.500000e+01 -2.828380e+01
    endloop
  endfacet
  facet normal 9.951459e-01 8.498152e-17 -9.841064e-02
    outer loop
      vertex 3.923141e+01 2.500000e+01 -1.170542e+01
      vertex 3.980739e+01 2.500000e+01 -5.881029e+00
      vertex 3.923141e+01 -2.500000e+01 -1.170542e+01
    endloop
  endfacet
endsolid Surface 10
solid Surface 11
  facet normal 0.000000e+00 1.000000e+00 -0.000000e+00
    outer loop
      vertex 1.962707e+00 2.500000e+01 -5.992773e+01
      vertex -1.962707e+00 2.500000e+01 -5.992773e+01
      vertex 3.920686e+00 2.500000e+01 -5.971108e+01
    endloop
  endfacet
  facet normal 0.000000e+00 1.000000e+00 0.000000e+00
    outer loop
      vertex 1.962707e+00 2.500000e+01 -5.992773e+01
      vertex -4.898587e-15 2.500000e+01 -6.000000e+01
      vertex -1.962707e+00 2.500000e+01 -5.992773e+01
    endloop
  endfacet
  facet normal 0.000000e+00 1.000000e+00 -0.000000e+00
    outer loop
      vertex 3.920686e+00 2.500000e+01 -5.971108e+01
      vertex -3.920686e+00 2.500000e+01 -5.971108e+01
      vertex 5.869219e+00 2.500000e+01 -5.935059e+01
    endloop
  endfacet
  facet normal 0.000000e+00 1.000000e+00 0.000000e+00
    outer loop
      vertex 3.920686e+00 2.500000e+01 -5.971108e+01
      vertex -1.962707e+00 2.500000e+01 -5.992773e+01
      vertex -3.920686e+00 2.500000e+01 -5.971108e+01
    endloop
  endfacet
  facet normal 0.000000e+00 1.000000e+00 -0.000000e+00
    outer loop
      vertex 5.869219e+00 2.500000e+01 -5.935059e+01
      vertex -5.869219e+00 2.500000e+01 -5.935059e+01
      vertex 7.803613e+00 2.500000e+01 -5.884712e+01
    endloop
  endfacet
  facet normal 0.000000e+00 1.000000e+00 0.000000e+00
    outer loop
      vertex 5.869219e+00 2.500000e+01 -5.935059e+01
      vertex -3.920686e+00 2.500000e+01 -5.971108e+01
      vertex -5.869219e+00 2.500000e+01 -5.935059e+01
    endloop
  endfacet
  facet normal 0.000000e+00 1.000000e+00 -0.000000e+00
    outer loop
      vertex 7.803613e+00 2.500000e+01 -5.884712e+01
      vertex -7.803613e+00 2.500000e+01 -5.884712e+01
      vertex 9.719207e+00 2.500000e+01 -5.820187e+01
    endloop
  endfacet
  facet normal 0.000000e+00 1.000000e+00 0.000000e+00
    outer loop
      vertex 7.803613e+00 2.500000e+01 -5.884712e+01
      vertex -5.869219e+00 2.500000e+01 -5.935059e+01
      vertex -7.803613e+00 2.500000e+01 -5.884712e+01
    endloop
  endfacet
  facet normal 0.000000e+00 1.000000e+00 -0.000000e+00
    outer loop
      vertex 9.719207e+00 2.500000e+01 -5.820187e+01
      vertex -9.719207e+00 2.500000e+01 -5.820187e+01
      vertex 1.161139e+01 2.500000e+01 -5.741642e+01
    endloop
  endfacet
  facet normal 0.000000e+00 1.000000e+00 0.000000e+00
    outer loop
      vertex 9.719207e+00 2.500000e+01 -5.820187e+01
      vertex -7.803613e+00 2.500000e+01 -5.884712e+01
      vertex -9.719207e+00 2.500000e+01 -5.820187e+01
    endloop
  endfacet
  facet normal 0.000000e+00 1.000000e+00 -0.000000e+00
    outer loop
      vertex 1.161139e+01 2.500000e+01 -5.741642e+01
      vertex -1.161139e+01 2.500000e+01 -5.741642e+01
      vertex 1.530734e+01 2.500000e+01 -5.543277e+01
    endloop
  endfacet
  facet normal 0.000000e+00 1.000000e+00 0.000000e+00
    outer loop
      vertex 1.161139e+01 2.500000e+01 -5.741642e+01
      vertex -9.719207e+00 2.500000e+01 -5.820187e+01
      vertex -1.161139e+01 2.500000e+01 -5.741642e+01
    endloop
  endfacet
  facet normal 0.000000e+00 1.000000e+00 -0.000000e+00
    outer loop
      vertex 1.530734e+01 2.500000e+01 -5.543277e+01
      vertex -1.530734e+01 2.500000e+01 -5.543277e+01
      vertex 1.885587e+01 2.500000e+01 -5.291528e+01
    endloop
  endfacet
  facet normal 0.000000e+00 1.000000e+00 0.000000e+00
    outer loop
      vertex 1.530734e+01 2.500000e+01 -5.543277e+01
      vertex -1.161139e+01 2.500000e+01 -5.741642e+01
      vertex -1.530734e+01 2.500000e+01 -5.543277e+01
    endloop
  endfacet
  facet normal 0.000000e+00 1.000000e+00 -0.000000e+00
    outer loop
      vertex 1.885587e+01 2.500000e+01 -5.291528e+01
      vertex -1.885587e+01 2.500000e+01 -5.291528e+01
      vertex 2.222281e+01 2.500000e+01 -4.988818e+01
    endloop
  endfacet
  facet normal 0.000000e+00 1.000000e+00 0.000000e+00
    outer loop
      vertex 1.885587e+01 2.500000e+01 -5.291528e+01
      vertex -1.530734e+01 2.500000e+01 -5.543277e+01
      vertex -1.885587e+01 2.500000e+01 -5.291528e+01
    endloop
  endfacet
  facet normal 0.000000e+00 1.000000e+00 -0.000000e+00
    outer loop
      vertex 2.222281e+01 2.500000e+01 -4.988818e+01
      vertex -2.222281e+01 2.500000e+01 -4.988818e+01
      vertex 2.537573e+01 2.500000e+01 -4.638063e+01
    endloop
  endfacet
  facet normal 0.000000e+00 1.000000e+00 0.000000e+00
    outer loop
      vertex 2.222281e+01 2.500000e+01 -4.988818e+01
      vertex -1.885587e+01 2.500000e+01 -5.291528e+01
      vertex -2.222281e+01 2.500000e+01 -4.988818e+01
    endloop
  endfacet
  facet normal -0.000000e+00 1.000000e+00 -0.000000e+00
    outer loop
      vertex -2.222281e+01 2.500000e+01 -4.988818e+01
      vertex -2.537573e+01 2.500000e+01 -4.638063e+01
      vertex 2.537573e+01 2.500000e+01 -4.638063e+01
    endloop
  endfacet
  facet normal 0.000000e+00 1.000000e+00 -0.000000e+00
    outer loop
      vertex 2.537573e+01 2.500000e+01 -4.638063e+01
      vertex -2.537573e+01 2.500000e+01 -4.638063e+01
      vertex 2.828427e+01 2.500000e+01 -4.242641e+01
    endloop
  endfacet
  facet normal 0.000000e+00 1.000000e+00 0.000000e+00
    outer loop
      vertex 2.828427e+01 2.500000e+01 -4.242641e+01
      vertex -2.537573e+01 2.500000e+01 -4.638063e+01
      vertex -2.828427e+01 2.500000e+01 -4.242641e+01
    endloop
  endfacet
  facet normal 0.000000e+00 1.000000e+00 0.000000e+00
    outer loop
      vertex 3.092042e+01 2.500000e+01 -3.806360e+01
      vertex -2.828427e+01 2.500000e+01 -4.242641e+01
      vertex -3.092042e+01 2.500000e+01 -3.806360e+01
    endloop
  endfacet
  facet normal 0.000000e+00 1.000000e+00 0.000000e+00
    outer loop
      vertex 3.325879e+01 2.500000e+01 -3.333421e+01
      vertex -3.092042e+01 2.500000e+01 -3.806360e+01
      vertex -3.325879e+01 2.500000e+01 -3.333421e+01
    endloop
  endfacet
  facet normal -7.084415e-32 1.000000e+00 -7.034506e-16
    outer loop
      vertex 3.527685e+01 2.500000e+01 -2.828380e+01
      vertex -3.325879e+01 2.500000e+01 -3.333421e+01
      vertex -3.527685e+01 2.500000e+01 -2.828380e+01
    endloop
  endfacet
  facet normal 0.000000e+00 1.000000e+00 0.000000e+00
    outer loop
      vertex 3.695518e+01 2.500000e+01 -2.296101e+01
      vertex -3.527685e+01 2.500000e+01 -2.828380e+01
      vertex -3.695518e+01 2.500000e+01 -2.296101e+01
    endloop
  endfacet
  facet normal 0.000000e+00 1.000000e+00 0.000000e+00
    outer loop
      vertex 3.827761e+01 2.500000e+01 -1.741708e+01
      vertex -3.695518e+01 2.500000e+01 -2.296101e+01
      vertex -3.827761e+01 2.500000e+01 -1.741708e+01
    endloop
  endfacet
  facet normal 0.000000e+00 1.000000e+00 0.000000e+00
    outer loop
      vertex 3.923141e+01 2.500000e+01 -1.170542e+01
      vertex -3.827761e+01 2.500000e+01 -1.741708e+01
      vertex -3.923141e+01 2.500000e+01 -1.170542e+01
    endloop
  endfacet
  facet normal 0.000000e+00 1.000000e+00 0.000000e+00
    outer loop
      vertex 3.980739e+01 2.500000e+01 -5.881029e+00
      vertex -3.923141e+01 2.500000e+01 -1.170542e+01
      vertex -3.980739e+01 2.500000e+01 -5.881029e+00
    endloop
  endfacet
  facet normal 0.000000e+00 1.000000e+00 0.000000e+00
    outer loop
      vertex 4.000000e+01 2.500000e+01 0.000000e+00
      vertex -3.980739e+01 2.500000e+01 -5.881029e+00
      vertex -4.000000e+01 2.500000e+01 3.673940e-15
    endloop
  endfacet
  facet normal 0.000000e+00 1.000000e+00 -0.000000e+00
    outer loop
      vertex 3.980739e+01 2.500000e+01 5.881029e+00
      vertex -4.000000e+01 2.500000e+01 3.673940e-15
      vertex -3.980739e+01 2.500000e+01 5.881029e+00
    endloop
  endfacet
  facet normal 0.000000e+00 1.000000e+00 -0.000000e+00
    outer loop
      vertex 3.923141e+01 2.500000e+01 1.170542e+01
      vertex -3.980739e+01 2.500000e+01 5.881029e+00
      vertex -3.923141e+01 2.500000e+01 1.170542e+01
    endloop
  endfacet
  facet normal 0.000000e+00 1.000000e+00 -0.000000e+00
    outer loop
      vertex 3.827761e+01 2.500000e+01 1.741708e+01
      vertex -3.923141e+01 2.500000e+01 1.170542e+01
      vertex -3.827761e+01 2.500000e+01 1.741708e+01
    endloop
  endfacet
  facet normal 0.000000e+00 1.000000e+00 -0.000000e+00
    outer loop
      vertex 3.695518e+01 2.500000e+01 2.296101e+01
      vertex -3.827761e+01 2.500000e+01 1.741708e+01
      vertex -3.695518e+01 2.500000e+01 2.296101e+01
    endloop
  endfacet
  facet normal 0.000000e+00 1.000000e+00 -0.000000e+00
    outer loop
      vertex 3.527685e+01 2.500000e+01 2.828380e+01
      vertex -3.695518e+01 2.500000e+01 2.296101e+01
      vertex -3.527685e+01 2.500000e+01 2.828380e+01
    endloop
  endfacet
  facet normal 0.000000e+00 1.000000e+00 -7.034506e-16
    outer loop
      vertex 3.325879e+01 2.500000e+01 3.333421e+01
      vertex -3.527685e+01 2.500000e+01 2.828380e+01
      vertex -3.325879e+01 2.500000e+01 3.333421e+01
    endloop
  endfacet
  facet normal 0.000000e+00 1.000000e+00 -0.000000e+00
    outer loop
      vertex 3.092042e+01 2.500000e+01 3.806360e+01
      vertex -3.325879e+01 2.500000e+01 3.333421e+01
      vertex -3.092042e+01 2.500000e+01 3.806360e+01
    endloop
  endfacet
  facet normal 0.000000e+00 1.000000e+00 -0.000000e+00
    outer loop
      vertex 2.828427e+01 2.500000e+01 4.242641e+01
      vertex -3.092042e+01 2.500000e+01 3.806360e+01
      vertex -2.828427e+01 2.500000e+01 4.242641e+01
    endloop
  endfacet
  facet normal 0.000000e+00 1.000000e+00 -0.000000e+00
    outer loop
      vertex 2.537573e+01 2.500000e+01 4.638063e+01
      vertex -2.828427e+01 2.500000e+01 4.242641e+01
      vertex -2.537573e+01 2.500000e+01 4.638063e+01
    endloop
  endfacet
  facet normal 0.000000e+00 1.000000e+00 -0.000000e+00
    outer loop
      vertex 2.222281e+01 2.500000e+01 4.988818e+01
      vertex -2.537573e+01 2.500000e+01 4.638063e+01
      vertex -2.222281e+01 2.500000e+01 4.988818e+01
    endloop
  endfacet
  facet normal 0.000000e+00 1.000000e+00 -0.000000e+00
    outer loop
      vertex 1.885587e+01 2.500000e+01 5.291528e+01
      vertex -2.222281e+01 2.500000e+01 4.988818e+01
      vertex -1.885587e+01 2.500000e+01 5.291528e+01
    endloop
  endfacet
  facet normal 0.000000e+00 1.000000e+00 -0.000000e+00
    outer loop
      vertex 1.530734e+01 2.500000e+01 5.543277e+01
      vertex -1.885587e+01 2.500000e+01 5.291528e+01
      vertex -1.530734e+01 2.500000e+01 5.543277e+01
    endloop
  endfacet
  facet normal 0.000000e+00 1.000000e+00 -0.000000e+00
    outer loop
      vertex 1.161139e+01 2.500000e+01 5.741642e+01
      vertex -1.530734e+01 2.500000e+01 5.543277e+01
      vertex -1.161139e+01 2.500000e+01 5.741642e+01
    endloop
  endfacet
  facet normal 0.000000e+00 1.000000e+00 -0.000000e+00
    outer loop
      vertex 9.719207e+00 2.500000e+01 5.820187e+01
      vertex -1.161139e+01 2.500000e+01 5.741642e+01
      vertex -9.719207e+00 2.500000e+01 5.820187e+01
    endloop
  endfacet
  facet normal 0.000000e+00 1.000000e+00 -0.000000e+00
    outer loop
      vertex 7.803613e+00 2.500000e+01 5.884712e+01
      vertex -9.719207e+00 2.500000e+01 5.820187e+01
      vertex -7.803613e+00 2.500000e+01 5.884712e+01
    endloop
  endfacet
  facet normal 0.000000e+00 1.000000e+00 -0.000000e+00
    outer loop
      vertex 5.869219e+00 2.500000e+01 5.935059e+01
      vertex -7.803613e+00 2.500000e+01 5.884712e+01
      vertex -5.869219e+00 2.500000e+01 5.935059e+01
    endloop
  endfacet
  facet normal 0.000000e+00 1.000000e+00 -0.000000e+00
    outer loop
      vertex 3.920686e+00 2.500000e+01 5.971108e+01
      vertex -5.869219e+00 2.500000e+01 5.935059e+01
      vertex -3.920686e+00 2.500000e+01 5.971108e+01
    endloop
  endfacet
  facet normal 0.000000e+00 1.000000e+00 -0.000000e+00
    outer loop
      vertex 1.962707e+00 2.500000e+01 5.992773e+01
      vertex -3.920686e+00 2.500000e+01 5.971108e+01
      vertex -1.962707e+00 2.500000e+01 5.992773e+01
    endloop
  endfacet
  facet normal 0.000000e+00 1.000000e+00 0.000000e+00
    outer loop
      vertex 0.000000e+00 2.500000e+01 6.000000e+01
      vertex 1.962707e+00 2.500000e+01 5.992773e+01
      vertex -1.962707e+00 2.500000e+01 5.992773e+01
    endloop
  endfacet
  facet normal 0.000000e+00 1.000000e+00 0.000000e+00
    outer loop
      vertex 1.962707e+00 2.500000e+01 5.992773e+01
      vertex 3.920686e+00 2.500000e+01 5.971108e+01
      vertex -3.920686e+00 2.500000e+01 5.971108e+01
    endloop
  endfacet
  facet normal 0.000000e+00 1.000000e+00 0.000000e+00
    outer loop
      vertex 3.920686e+00 2.500000e+01 5.971108e+01
      vertex 5.869219e+00 2.500000e+01 5.935059e+01
      vertex -5.869219e+00 2.500000e+01 5.935059e+01
    endloop
  endfacet
  facet normal 0.000000e+00 1.000000e+00 0.000000e+00
    outer loop
      vertex 5.869219e+00 2.500000e+01 5.935059e+01
      vertex 7.803613e+00 2.500000e+01 5.884712e+01
      vertex -7.803613e+00 2.500000e+01 5.884712e+01
    endloop
  endfacet
  facet normal 0.000000e+00 1.000000e+00 0.000000e+00
    outer loop
      vertex 7.803613e+00 2.500000e+01 5.884712e+01
      vertex 9.719207e+00 2.500000e+01 5.820187e+01
      vertex -9.719207e+00 2.500000e+01 5.820187e+01
    endloop
  endfacet
  facet normal 0.000000e+00 1.000000e+00 0.000000e+00
    outer loop
      vertex 9.719207e+00 2.500000e+01 5.820187e+01
      vertex 1.161139e+01 2.500000e+01 5.741642e+01
      vertex -1.161139e+01 2.500000e+01 5.741642e+01
    endloop
  endfacet
  facet normal 0.000000e+00 1.000000e+00 0.000000e+00
    outer loop
      vertex 1.161139e+01 2.500000e+01 5.741642e+01
      vertex 1.530734e+01 2.500000e+01 5.543277e+01
      vertex -1.530734e+01 2.500000e+01 5.543277e+01
    endloop
  endfacet
  facet normal 0.000000e+00 1.000000e+00 0.000000e+00
    outer loop
      vertex 1.530734e+01 2.500000e+01 5.543277e+01
      vertex 1.885587e+01 2.500000e+01 5.291528e+01
      vertex -1.885587e+01 2.500000e+01 5.291528e+01
    endloop
  endfacet
  facet normal 0.000000e+00 1.000000e+00 0.000000e+00
    outer loop
      vertex 1.885587e+01 2.500000e+01 5.291528e+01
      vertex 2.222281e+01 2.500000e+01 4.988818e+01
      vertex -2.222281e+01 2.500000e+01 4.988818e+01
    endloop
  endfacet
  facet normal 0.000000e+00 1.000000e+00 0.000000e+00
    outer loop
      vertex 2.222281e+01 2.500000e+01 4.988818e+01
      vertex 2.537573e+01 2.500000e+01 4.638063e+01
      vertex -2.537573e+01 2.500000e+01 4.638063e+01
    endloop
  endfacet
  facet normal 0.000000e+00 1.000000e+00 0.000000e+00
    outer loop
      vertex 2.537573e+01 2.500000e+01 4.638063e+01
      vertex 2.828427e+01 2.500000e+01 4.242641e+01
      vertex -2.828427e+01 2.500000e+01 4.242641e+01
    endloop
  endfacet
  facet normal 0.000000e+00 1.000000e+00 0.000000e+00
    outer loop
      vertex 2.828427e+01 2.500000e+01 4.242641e+01
      vertex 3.092042e+01 2.500000e+01 3.806360e+01
      vertex -3.092042e+01 2.500000e+01 3.806360e+01
    endloop
  endfacet
  facet normal 0.000000e+00 1.000000e+00 0.000000e+00
    outer loop
      vertex 3.092042e+01 2.500000e+01 3.806360e+01
      vertex 3.325879e+01 2.500000e+01 3.333421e+01
      vertex -3.325879e+01 2.500000e+01 3.333421e+01
    endloop
  endfacet
  facet normal 0.000000e+00 1.000000e+00 -7.034506e-16
    outer loop
      vertex 3.325879e+01 2.500000e+01 3.333421e+01
      vertex 3.527685e+01 2.500000e+01 2.828380e+01
      vertex -3.527685e+01 2.500000e+01 2.828380e+01
    endloop
  endfacet
  facet normal 0.000000e+00 1.000000e+00 0.000000e+00
    outer loop
      vertex 3.527685e+01 2.500000e+01 2.828380e+01
      vertex 3.695518e+01 2.500000e+01 2.296101e+01
      vertex -3.695518e+01 2.500000e+01 2.296101e+01
    endloop
  endfacet
  facet normal 0.000000e+00 1.000000e+00 0.000000e+00
    outer loop
      vertex 3.695518e+01 2.500000e+01 2.296101e+01
      vertex 3.827761e+01 2.500000e+01 1.741708e+01
      vertex -3.827761e+01 2.500000e+01 1.741708e+01
    endloop
  endfacet
  facet normal 0.000000e+00 1.000000e+00 0.000000e+00
    outer loop
      vertex 3.827761e+01 2.500000e+01 1.741708e+01
      vertex 3.923141e+01 2.500000e+01 1.170542e+01
      vertex -3.923141e+01 2.500000e+01 1.170542e+01
    endloop
  endfacet
  facet normal 0.000000e+00 1.000000e+00 0.000000e+00
    outer loop
      vertex 3.923141e+01 2.500000e+01 1.170542e+01
      vertex 3.980739e+01 2.500000e+01 5.881029e+00
      vertex -3.980739e+01 2.500000e+01 5.881029e+00
    endloop
  endfacet
  facet normal 0.000000e+00 1.000000e+00 0.000000e+00
    outer loop
      vertex 3.980739e+01 2.500000e+01 5.881029e+00
      vertex 4.000000e+01 2.500000e+01 0.000000e+00
      vertex -4.000000e+01 2.500000e+01 3.673940e-15
    endloop
  endfacet
  facet normal 0.000000e+00 1.000000e+00 -0.000000e+00
    outer loop
      vertex 2.828427e+01 2.500000e+01 -4.242641e+01
      vertex -2.828427e+01 2.500000e+01 -4.242641e+01
      vertex 3.092042e+01 2.500000e+01 -3.806360e+01
    endloop
  endfacet
  facet normal 0.000000e+00 1.000000e+00 -0.000000e+00
    outer loop
      vertex 3.092042e+01 2.500000e+01 -3.806360e+01
      vertex -3.092042e+01 2.500000e+01 -3.806360e+01
      vertex 3.325879e+01 2.500000e+01 -3.333421e+01
    endloop
  endfacet
  facet normal -1.502856e-31 1.000000e+00 -7.034506e-16
    outer loop
      vertex 3.325879e+01 2.500000e+01 -3.333421e+01
      vertex -3.325879e+01 2.500000e+01 -3.333421e+01
      vertex 3.527685e+01 2.500000e+01 -2.828380e+01
    endloop
  endfacet
  facet normal 0.000000e+00 1.000000e+00 -0.000000e+00
    outer loop
      vertex 3.527685e+01 2.500000e+01 -2.828380e+01
      vertex -3.527685e+01 2.500000e+01 -2.828380e+01
      vertex 3.695518e+01 2.500000e+01 -2.296101e+01
    endloop
  endfacet
  facet normal 0.000000e+00 1.000000e+00 -0.000000e+00
    outer loop
      vertex 3.695518e+01 2.500000e+01 -2.296101e+01
      vertex -3.695518e+01 2.500000e+01 -2.296101e+01
      vertex 3.827761e+01 2.500000e+01 -1.741708e+01
    endloop
  endfacet
  facet normal 0.000000e+00 1.000000e+00 -0.000000e+00
    outer loop
      vertex 3.827761e+01 2.500000e+01 -1.741708e+01
      vertex -3.827761e+01 2.500000e+01 -1.741708e+01
      vertex 3.923141e+01 2.500000e+01 -1.170542e+01
    endloop
  endfacet
  facet normal 0.000000e+00 1.000000e+00 -0.000000e+00
    outer loop
      vertex 3.923141e+01 2.500000e+01 -1.170542e+01
      vertex -3.923141e+01 2.500000e+01 -1.170542e+01
      vertex 3.980739e+01 2.500000e+01 -5.881029e+00
    endloop
  endfacet
  facet normal 0.000000e+00 1.000000e+00 -0.000000e+00
    outer loop
      vertex 3.980739e+01 2.500000e+01 -5.881029e+00
      vertex -3.980739e+01 2.500000e+01 -5.881029e+00
      vertex 4.000000e+01 2.500000e+01 0.000000e+00
    endloop
  endfacet
endsolid Surface 11
